<svg width="112" height="24" viewBox="0 0 112 24" fill="none" xmlns="http://www.w3.org/2000/svg">
<path fill-rule="evenodd" clip-rule="evenodd" d="M23.543 11.9999C23.543 5.41938 18.2728 0.0849609 11.7715 0.0849609C5.27023 0.0849609 0 5.41938 0 11.9999C0 18.5803 5.27023 23.9147 11.7715 23.9147C18.2728 23.9147 23.543 18.5803 23.543 11.9999ZM1.12102 11.9999C1.12102 6.04563 5.88895 1.21964 11.7715 1.21964C17.6541 1.21964 22.422 6.04563 22.422 11.9999C22.422 17.9541 17.6541 22.7801 11.7715 22.7801C5.88895 22.7801 1.12102 17.9541 1.12102 11.9999ZM12.3487 17.9605V14.3096C12.9004 14.3096 13.6212 14.308 13.8939 14.2967L17.7242 14.3063C18.0495 14.3225 18.3827 14.2482 18.6825 14.0723C19.2646 13.7317 19.5771 13.1039 19.5516 12.4728C19.55 12.3792 19.5404 12.2969 19.5293 12.2323C19.3921 11.4592 19.1242 10.6973 18.716 9.98231C18.3046 9.26244 17.6987 8.57647 17.1023 8.06966C16.702 7.76138 16.1917 7.65001 15.699 7.76461C15.5108 7.21422 15.0643 6.7526 14.562 6.53148C13.6898 6.21028 12.7489 6.03596 11.7714 6.03596C10.7987 6.03596 9.86267 6.20867 8.9952 6.52663C8.92982 6.55084 8.85009 6.58474 8.76557 6.63316C8.32067 6.86881 7.97783 7.28039 7.83272 7.77913C7.31765 7.68875 6.75635 7.83885 6.3561 8.13745C5.75811 8.64426 5.23827 9.26244 4.82845 9.98231C4.42022 10.6989 4.15233 11.4592 4.01519 12.2323C4.00403 12.2969 3.99287 12.3792 3.99287 12.4728C3.96735 13.1039 4.2799 13.7317 4.86193 14.0723C5.16332 14.2482 5.49659 14.3225 5.8203 14.3063L9.64899 14.2967C9.92167 14.3063 10.6424 14.3096 11.1942 14.3096V17.9605H12.3487ZM15.7771 8.97998C15.9876 8.8557 16.2444 8.87991 16.4261 9.02034C16.4301 9.02236 16.4342 9.02566 16.4378 9.02863C16.4399 9.0304 16.4419 9.03205 16.4437 9.03325C16.938 9.45451 17.3718 9.96939 17.713 10.5682C18.0527 11.1654 18.2759 11.7981 18.3891 12.4389C18.3923 12.4631 18.3939 12.4809 18.3923 12.497C18.4099 12.7197 18.303 12.9425 18.1005 13.0619C17.9921 13.1249 17.8725 13.1491 17.7577 13.1394L13.862 13.1297C13.7536 13.1394 13.6435 13.0861 13.5845 12.9828C13.5271 12.8811 13.5351 12.7617 13.5941 12.6713L15.5347 9.24953C15.5842 9.13978 15.6671 9.04455 15.7771 8.97998ZM7.0976 9.03486L7.11673 9.02034C7.30011 8.87991 7.55525 8.8557 7.76415 8.9816C7.87577 9.04616 7.9571 9.14139 8.00653 9.25114L9.94719 12.6729C10.0062 12.7633 10.0142 12.8844 9.95676 12.9844C9.89935 13.0877 9.78932 13.141 9.67929 13.1313L5.78363 13.141C5.66881 13.1507 5.54922 13.1265 5.44078 13.0635C5.23827 12.9441 5.13143 12.7213 5.14897 12.4986C5.14737 12.4825 5.14897 12.4631 5.15216 12.4405C5.26538 11.7981 5.48862 11.167 5.82828 10.5698C6.16953 9.9694 6.60167 9.45613 7.0976 9.03486ZM14.1845 7.6396L14.1937 7.64355C14.4536 7.75492 14.6354 8.01478 14.6354 8.31661C14.6354 8.4764 14.5859 8.6249 14.4998 8.74433L12.0935 12.9392C12.0345 13.0587 11.9118 13.141 11.7714 13.141C11.6279 13.141 11.5035 13.0555 11.4461 12.9312L9.03985 8.73788C8.95852 8.62005 8.91068 8.4764 8.91068 8.32145C8.91068 8.02931 9.07971 7.77591 9.32528 7.65969C9.34123 7.6484 9.36037 7.63871 9.38748 7.62903C10.1322 7.35625 10.9343 7.20776 11.7714 7.20776C12.6118 7.20776 13.4187 7.35787 14.1666 7.63226C14.1727 7.63432 14.1788 7.63705 14.1845 7.63959L14.1845 7.6396L14.1845 7.6396ZM33.7757 5.75994L36.6508 11.7174L39.5243 5.75994L43.8713 5.76155V17.6764H39.5243V11.7174L36.6508 17.6748L33.7757 11.7174V17.6748H29.4287V5.75994H33.7757ZM50.7218 13.7656L52.487 7.54509L54.2523 13.7656H50.7218ZM48.6472 5.76157L45.2666 17.6765H49.6135L50.1685 15.7202H54.8072L55.3622 17.6765H59.7091L56.3285 5.76157H48.6472ZM66.4575 7.13028C67.4366 7.13028 68.3886 7.6613 68.3886 8.74109C68.3886 9.82089 67.5482 10.6957 66.4575 10.6957H65.5151V7.13028H66.4575ZM69.229 5.76641H61.0948V17.6765H65.4402V12.7133H69.229C71.1234 12.7133 72.6606 11.1573 72.6606 9.23983C72.6606 7.32073 71.125 5.76641 69.229 5.76641ZM85.7254 5.75994H74.1691V17.6764H78.5145V12.702H85.7254V10.7457H78.5145V7.71616H85.7254V5.75994ZM104.789 15.7202H112V17.6748H100.442V5.75994H112V7.71616H104.789V10.7457H112V12.702H104.789V15.7202ZM94.5373 8.74108C94.5373 7.6629 93.5614 7.13188 92.6062 7.13188H91.6638V10.6957H92.6062C93.673 10.6957 94.5373 9.82088 94.5373 8.74108ZM98.8109 14.6001C98.8125 14.634 98.8109 14.6662 98.8109 14.6985H98.8093V17.6748H95.8672H94.5341V14.7921C94.5357 14.7615 94.5373 14.7292 94.5373 14.6969C94.5373 13.6171 93.6714 12.7423 92.6062 12.7423H91.6638V17.6764H87.245V11.7206V5.76478H92.0736H95.8688C97.4937 5.76478 98.8109 7.09799 98.8109 8.7427C98.8109 10.3874 97.4937 11.7206 95.8688 11.7206C97.4618 11.7206 98.7598 13.0006 98.8109 14.6001Z" fill="#DA291C"/>
</svg>
