<svg width="113" height="24" viewBox="0 0 113 24" fill="none" xmlns="http://www.w3.org/2000/svg">
<g clip-path="url(#clip0)">
<path fill-rule="evenodd" clip-rule="evenodd" d="M78.836 0.99207C77.8832 1.61982 77.2934 2.5205 77.0484 3.67592C76.9395 4.22179 76.8941 4.83134 76.8941 5.49548V18.5508C76.8941 18.5508 80.3695 18.8329 80.3695 16.5311V8.85257H81.2315C84.1897 8.85257 84.353 6.64181 84.353 6.64181V16.5311C84.353 16.9587 84.4165 17.3044 84.5527 17.5774C84.6888 17.8503 84.8702 18.0686 85.088 18.2324C85.3058 18.3962 85.5599 18.5053 85.8321 18.5599C86.1043 18.6236 86.3766 18.6509 86.6488 18.6509C86.921 18.6509 87.1842 18.6418 87.4382 18.6145C87.6923 18.5872 87.8193 18.569 87.8193 18.5508V6.21421H80.3695V5.36811C80.3695 4.35826 80.5873 3.67592 81.0228 3.31201C81.4584 2.9481 82.0845 2.75704 82.9012 2.75704C83.618 2.75704 84.2714 2.87532 84.8521 3.10276C85.4419 3.33021 85.8775 3.59404 86.1679 3.88517C86.4038 3.61224 86.6125 3.29381 86.7758 2.939C86.9482 2.58419 87.0299 2.25666 87.0299 1.96553C87.0299 1.48335 86.7214 1.08305 86.1134 0.764625C85.6688 0.518984 85.1243 0.346126 84.4801 0.227854C83.8358 0.109583 83.1825 0.0458984 82.5382 0.0458984C81.0228 0.0458984 79.7887 0.364322 78.836 0.99207ZM37.2221 15.2756C37.3582 15.403 37.6032 15.5667 37.948 15.7578C38.2928 15.9489 38.7012 16.0398 39.1549 16.0489C40.0169 16.0489 40.6521 15.7032 41.0604 15.0209C41.4597 14.3385 41.6684 13.3833 41.6684 12.1551C41.6684 11.6365 41.623 11.1634 41.5414 10.7176C41.4597 10.2809 41.3145 9.89881 41.124 9.57129C40.9243 9.24377 40.6612 8.99813 40.3345 8.81618C39.9988 8.64332 39.5995 8.55234 39.1277 8.55234C38.4108 8.55234 37.9208 8.68881 37.6395 8.96174C37.3582 9.23467 37.2221 9.5258 37.2221 9.85332V15.2756ZM37.0769 7.41511C37.3491 7.09669 37.7665 6.76007 38.3473 6.43255C38.919 6.09593 39.654 5.93217 40.5251 5.93217C41.1603 5.93217 41.7501 6.03225 42.3217 6.25059C42.8934 6.46894 43.3925 6.81466 43.8371 7.28774C44.2727 7.76083 44.6266 8.39768 44.8897 9.18009C45.1529 9.9625 45.289 10.9269 45.289 12.0732C45.289 13.4015 45.1347 14.4932 44.8262 15.3575C44.5268 16.2218 44.1275 16.9041 43.6466 17.4045C43.1656 17.914 42.6212 18.2597 42.0314 18.4689C41.4416 18.6782 40.8427 18.7783 40.2528 18.7783C39.7538 18.7783 39.3273 18.7237 38.9643 18.6145C38.5923 18.5053 38.2838 18.378 38.0297 18.2415C37.7847 18.105 37.5851 17.9686 37.4489 17.8321C37.3128 17.6956 37.2312 17.6047 37.1949 17.5501V22.1808C37.1949 24.3643 33.7195 23.9731 33.7195 23.9731V6.28699C33.8011 6.26879 33.91 6.2506 34.028 6.2324C34.1369 6.2142 34.2549 6.20511 34.391 6.19601C34.4533 6.19601 34.5214 6.1941 34.5951 6.19203L34.5952 6.19203C34.6824 6.18958 34.7777 6.18691 34.881 6.18691C35.4526 6.18691 35.9336 6.27789 36.3328 6.46894C36.723 6.66 36.9771 6.96932 37.0769 7.41511ZM49.8895 14.7115C49.8895 15.1937 50.0256 15.594 50.2979 15.9307C50.5701 16.2582 51.0238 16.4219 51.6681 16.4219C51.9856 16.4219 52.2942 16.3855 52.5845 16.2946C52.8658 16.2127 53.129 16.1035 53.3468 15.967C53.5736 15.8306 53.746 15.685 53.8731 15.5213C54.0001 15.3575 54.0636 15.2119 54.0636 15.0755V12.4644H53.7097C53.5918 12.4644 53.4738 12.4735 53.3558 12.4917C52.9294 12.5281 52.5119 12.5827 52.0945 12.6463C51.6771 12.71 51.3142 12.8283 50.9875 13.0012C50.6608 13.174 50.3977 13.3924 50.198 13.6653C49.9893 13.9382 49.8895 14.284 49.8895 14.7115ZM48.8642 6.53263C49.3269 6.35067 49.8532 6.20511 50.4521 6.09593C51.0419 5.98676 51.6681 5.93217 52.3214 5.93217C53.247 5.93217 54.0183 6.02315 54.6625 6.2142C55.2977 6.40526 55.8149 6.69639 56.2142 7.08759C56.6135 7.4788 56.8947 7.97008 57.0672 8.56144C57.2396 9.1437 57.3212 9.83513 57.3212 10.6175V15.4303C57.3212 16.7858 57.5209 17.7593 57.911 18.378C57.6116 18.4962 57.3212 18.5781 57.0581 18.6327C56.7949 18.6782 56.5227 18.7055 56.2323 18.7055C55.6244 18.7055 55.1616 18.5872 54.844 18.3507C54.5264 18.1141 54.3268 17.7775 54.2451 17.3317C53.8731 17.7229 53.374 18.0595 52.766 18.3325C52.149 18.6054 51.4049 18.7419 50.5156 18.7419C50.0529 18.7419 49.5992 18.6782 49.1364 18.5508C48.6736 18.4235 48.2562 18.2142 47.8842 17.9231C47.5121 17.6319 47.2036 17.2407 46.9677 16.7586C46.7317 16.2764 46.6138 15.685 46.6138 14.9845C46.6138 14.1111 46.8225 13.4106 47.2399 12.8647C47.6573 12.3188 48.1836 11.8912 48.8097 11.5728C49.4358 11.2635 50.1164 11.0451 50.8514 10.9269C51.5773 10.8086 52.2579 10.7358 52.8658 10.6994C53.0745 10.6812 53.2651 10.6721 53.4647 10.6721H54.0183V10.2081C54.0183 9.5531 53.8368 9.08001 53.492 8.80708C53.1381 8.52505 52.5755 8.38858 51.7951 8.38858C51.0692 8.38858 50.316 8.48865 49.5719 8.76159C49.1213 8.92476 49.0894 8.94074 48.9105 9.03051L48.9105 9.03052C48.83 9.07089 48.7198 9.12618 48.5284 9.21648C48.111 9.40753 47.748 8.96174 47.6029 8.60693C47.4577 8.25211 47.3851 7.99737 47.3851 7.82451C47.3851 7.58797 47.5212 7.36053 47.7843 7.13308C48.0475 6.91473 48.4014 6.71458 48.8642 6.53263ZM63.1015 6.2051C62.3937 6.38706 61.7313 6.71458 61.0961 7.18766C60.47 7.66075 59.9346 8.31579 59.5172 9.13459C59.0907 9.95339 58.882 11.0087 58.882 12.3097C58.882 13.6744 59.0907 14.7752 59.499 15.6213C59.9074 16.4674 60.4155 17.1316 61.0326 17.6046C61.6496 18.0868 62.312 18.4053 63.0289 18.5781C63.7457 18.751 64.4081 18.8328 65.0161 18.8328C65.9326 18.8328 66.6948 18.7328 67.2846 18.5235C67.8835 18.3234 68.3372 18.0959 68.6639 17.8594C68.8817 17.6865 69.0269 17.5228 69.0995 17.359C69.172 17.1952 69.1993 17.0315 69.1993 16.8586C69.1993 16.5857 69.0995 16.2491 68.9089 15.8579C68.7093 15.4667 68.5187 15.1664 68.3372 14.9663C68.2556 15.0664 68.1285 15.1937 67.9561 15.3393C67.7837 15.4849 67.5841 15.6213 67.3391 15.7487C67.1031 15.8761 66.8309 15.9852 66.5224 16.0671C66.2139 16.149 65.8781 16.1945 65.5061 16.1945C64.9254 16.1945 64.4444 16.0944 64.0542 15.8852C63.6641 15.685 63.3465 15.403 63.1015 15.0391C62.8565 14.6843 62.675 14.2658 62.5752 13.7836C62.4753 13.3014 62.4209 12.7919 62.4209 12.246C62.4209 11.1725 62.6568 10.29 63.1378 9.59858C63.6187 8.90715 64.4172 8.56143 65.5333 8.56143C66.1776 8.56143 66.7674 8.707 67.2937 8.99813C67.82 9.28926 68.2193 9.58039 68.4915 9.87152C68.7274 9.58039 68.927 9.26196 69.0813 8.91625C69.2356 8.56143 69.3082 8.2703 69.3082 8.03376C69.3082 7.77902 69.2446 7.55158 69.1176 7.36962C68.9906 7.17857 68.7637 6.98751 68.437 6.77826C68.0469 6.52352 67.5569 6.32337 66.958 6.16871C66.3591 6.01405 65.7148 5.94127 65.0161 5.94127C64.4444 5.93217 63.8092 6.02315 63.1015 6.2051ZM70.7963 6.28699C70.7963 6.26879 70.9234 6.2506 71.1774 6.2233C71.4406 6.20511 71.7037 6.18691 71.9578 6.18691C72.23 6.18691 72.5023 6.20511 72.7745 6.2597C73.0467 6.31428 73.3008 6.40526 73.5186 6.55083C73.7363 6.69639 73.9178 6.90564 74.0539 7.16948C74.19 7.43331 74.2626 7.77903 74.2626 8.20662V18.5326C74.19 18.569 74.0358 18.5963 73.7999 18.6145C73.5639 18.6327 73.3098 18.6418 73.0376 18.6418C72.7019 18.6418 72.3934 18.6145 72.1211 18.5508C71.8489 18.4962 71.6221 18.3871 71.4224 18.2233C71.2228 18.0595 71.0685 17.8412 70.9597 17.5683C70.8508 17.2953 70.7963 16.9496 70.7963 16.522V6.28699ZM91.812 7.18766C92.4471 6.71458 93.1096 6.38706 93.8173 6.2051C94.5251 6.02315 95.1603 5.93217 95.7229 5.94127C96.4216 5.94127 97.0659 6.01405 97.6648 6.16871C98.2636 6.32337 98.7537 6.52352 99.1438 6.77826C99.4614 6.98751 99.6883 7.17857 99.8153 7.36962C99.9424 7.55158 100.006 7.77902 100.006 8.03376C100.006 8.2703 99.9333 8.56143 99.779 8.91625C99.6248 9.26196 99.4251 9.58039 99.1892 9.87152C98.917 9.58039 98.5177 9.28926 97.9914 8.99813C97.4651 8.707 96.8753 8.56143 96.231 8.56143C95.1059 8.56143 94.3073 8.90715 93.8355 9.59858C93.3546 10.29 93.1186 11.1725 93.1186 12.246C93.1186 12.7919 93.1731 13.3014 93.2729 13.7836C93.3818 14.2658 93.5542 14.6843 93.7992 15.0391C94.0533 15.403 94.3709 15.685 94.761 15.8852C95.1512 16.0944 95.6322 16.1945 96.2129 16.1945C96.5849 16.1945 96.9207 16.149 97.2292 16.0671C97.5377 15.9852 97.8099 15.8761 98.0459 15.7487C98.2818 15.6213 98.4814 15.4849 98.6538 15.3393C98.8262 15.1937 98.9533 15.0664 99.035 14.9663C99.2255 15.1664 99.4161 15.4667 99.6066 15.8579C99.7972 16.2491 99.897 16.5857 99.897 16.8586C99.897 17.0315 99.8607 17.1952 99.7972 17.359C99.7246 17.5228 99.5794 17.6865 99.3616 17.8594C99.035 18.0959 98.5812 18.3234 97.9824 18.5235C97.3925 18.7328 96.6303 18.8328 95.7138 18.8328C95.1059 18.8328 94.4434 18.751 93.7266 18.5781C93.0188 18.4053 92.3473 18.0868 91.7394 17.6046C91.1223 17.1316 90.6142 16.4674 90.2058 15.6213C89.7975 14.7752 89.5979 13.6744 89.5979 12.3097C89.5979 11.0087 89.8066 9.95339 90.2331 9.13459C90.6595 8.31579 91.1858 7.66075 91.812 7.18766ZM105.768 15.8306C105.432 15.6122 105.178 15.312 104.988 14.9481C104.806 14.5842 104.67 14.1657 104.588 13.7108C104.507 13.2468 104.47 12.7919 104.47 12.3279C104.47 11.8639 104.516 11.4182 104.597 10.9724C104.679 10.5266 104.824 10.1354 105.015 9.78055C105.205 9.42574 105.478 9.14371 105.804 8.92536C106.14 8.70701 106.548 8.58874 107.047 8.58874C107.537 8.58874 107.946 8.69791 108.272 8.90716C108.59 9.11641 108.853 9.39844 109.035 9.73506C109.225 10.0808 109.352 10.472 109.416 10.9269C109.479 11.3818 109.516 11.8367 109.516 12.3006C109.516 12.7737 109.479 13.2468 109.416 13.7108C109.343 14.1748 109.216 14.5842 109.035 14.9481C108.844 15.312 108.59 15.6122 108.254 15.8306C107.919 16.058 107.501 16.1672 106.993 16.1672C106.512 16.1672 106.095 16.058 105.768 15.8306ZM104.416 6.44166C103.654 6.78738 103.019 7.25136 102.519 7.83362C102.02 8.42498 101.639 9.10731 101.385 9.88063C101.131 10.6539 101.004 11.4818 101.004 12.3461C101.004 13.2013 101.113 14.011 101.34 14.7934C101.558 15.5668 101.912 16.2491 102.383 16.8404C102.855 17.4318 103.472 17.8958 104.225 18.2506C104.979 18.6054 105.904 18.7783 106.993 18.7783C108.082 18.7783 109.007 18.5963 109.77 18.2415C110.532 17.8867 111.158 17.4045 111.639 16.8132C112.12 16.2127 112.474 15.5213 112.682 14.7389C112.891 13.9564 113 13.1376 113 12.2824C113 11.4273 112.891 10.6175 112.682 9.85333C112.474 9.08002 112.129 8.40678 111.666 7.83362C111.203 7.25136 110.586 6.79647 109.833 6.45076C109.08 6.11414 108.164 5.94128 107.093 5.94128C106.077 5.93218 105.178 6.10504 104.416 6.44166ZM71.6947 1.10124C72.0667 0.61906 72.6293 0.346126 73.2373 0.346126C74.308 0.346126 75.1882 1.22861 75.1973 2.31125C75.1973 3.02998 74.8071 3.68502 74.181 4.03074C73.6184 4.37645 72.9651 4.55841 72.3027 4.55841C72.0577 4.55841 71.8127 4.54021 71.5677 4.48562H71.5586C71.241 4.42194 71.0051 4.14901 70.9778 3.83058C70.9506 3.65773 70.9415 3.49397 70.9415 3.3302C70.9415 2.5387 71.1865 1.78358 71.6675 1.14673V1.13763C71.6765 1.13763 71.6765 1.12854 71.6765 1.12854C71.6856 1.12854 71.6856 1.11944 71.6856 1.11944L71.6947 1.10124Z" fill="#00A3D8"/>
<path d="M4.76394 2.41092C4.73672 2.43821 4.70042 2.45641 4.66412 2.4837C4.62783 2.51099 4.60061 2.53829 4.56431 2.56558H4.57338C3.0943 3.74829 2.15967 5.48597 2.15967 7.4329C2.15967 9.29795 3.02171 10.9719 4.3919 12.1547H4.38283C5.81654 13.4011 7.55877 14.3108 9.47341 14.7566C8.566 14.4564 7.90358 13.6285 7.83099 12.655V12.6459C7.7584 12.1001 7.71303 11.5451 7.71303 10.9992C7.71303 8.36998 8.54785 5.86808 10.1267 3.77559L10.1449 3.75739C10.154 3.74829 10.154 3.7392 10.163 3.7301C10.1721 3.721 10.1812 3.7119 10.1812 3.70281L10.2266 3.63912C11.4606 2.04701 13.3208 1.13723 15.3262 1.13723C16.5512 1.13723 17.6946 1.47384 18.6655 2.0743C16.7508 0.773313 14.437 0 11.9506 0C9.24655 0 6.76932 0.900682 4.76394 2.41092Z" fill="url(#paint0_linear)"/>
<path d="M18.6655 2.07446C18.6655 2.07446 18.6564 2.07446 18.6655 2.07446C18.6564 2.07446 18.6655 2.07446 18.6655 2.07446ZM10.2266 3.64838C10.2266 3.64838 9.8999 4.09417 9.87268 4.13056C10.9253 2.99334 12.604 2.50206 14.1375 2.50206C17.1229 2.50206 20.4531 5.10403 20.4531 8.87962C20.4531 10.0532 20.2353 12.1366 18.4659 13.3193C20.5983 12.173 21.8051 9.86218 21.8051 7.64231C21.8051 5.28598 20.5438 3.22078 18.6655 2.08356C18.6655 2.08356 18.6655 2.08356 18.6746 2.08356C17.6946 1.4922 16.5512 1.14648 15.3353 1.14648C13.3208 1.14648 11.4607 2.05626 10.2266 3.64838Z" fill="url(#paint1_linear)"/>
<path d="M4.56428 2.56543C1.7876 4.758 0 8.16058 0 11.9817C0 18.5958 5.34466 23.9635 11.9506 23.9635C18.5475 23.9635 23.9012 18.5958 23.9012 11.9817C23.9012 8.38802 22.3223 5.1674 19.8179 2.96573C21.0429 4.14845 21.8051 5.80425 21.8051 7.642C21.8051 7.78757 21.796 7.93313 21.787 8.0696C21.787 8.11509 21.7779 8.16058 21.7779 8.21516C21.7688 8.30614 21.7597 8.40622 21.7507 8.4972C21.7416 8.55178 21.7325 8.60637 21.7234 8.67005C21.7053 8.75193 21.6962 8.83382 21.6781 8.9157C21.669 8.97938 21.6508 9.03397 21.6418 9.09765C21.6236 9.17043 21.6055 9.25231 21.5873 9.3251C21.5692 9.38878 21.551 9.44337 21.5329 9.50705C21.5147 9.57983 21.4875 9.65262 21.4603 9.7254C21.4421 9.78908 21.4149 9.84367 21.3968 9.90736C21.3696 9.98014 21.3423 10.0438 21.3151 10.1166C21.2879 10.1803 21.2607 10.2349 21.2334 10.2986C21.2062 10.3622 21.1699 10.435 21.1427 10.4987C21.1155 10.5624 21.0792 10.617 21.052 10.6807C21.0157 10.7444 20.9884 10.808 20.9521 10.8717C20.9158 10.9263 20.8886 10.99 20.8523 11.0446C20.816 11.1083 20.7797 11.1629 20.7344 11.2265C20.6981 11.2811 20.6618 11.3357 20.6255 11.3994C20.5801 11.454 20.5438 11.5086 20.4984 11.5723C20.4531 11.6268 20.4168 11.6814 20.3714 11.736C20.326 11.7906 20.2807 11.8452 20.2353 11.8998C20.1899 11.9544 20.1445 12.0089 20.0992 12.0544C20.0538 12.109 19.9994 12.1545 19.954 12.2091C19.9086 12.2546 19.8542 12.3092 19.8088 12.3547C19.7544 12.4002 19.709 12.4456 19.6545 12.5002C19.6001 12.5457 19.5547 12.5912 19.5003 12.6367C19.4458 12.6822 19.3823 12.7277 19.3279 12.7732C19.2734 12.8187 19.219 12.855 19.1645 12.9005C19.0557 12.9824 18.9377 13.0643 18.8288 13.1371C18.7018 13.219 18.5747 13.3008 18.4386 13.3736L18.4295 13.3827C16.5603 14.5199 14.4097 15.1295 12.2138 15.1295C11.3971 15.1295 10.5804 15.0476 9.77283 14.8748L9.75468 14.8657C9.66394 14.8475 9.5732 14.8202 9.48245 14.7929C9.36449 14.7656 9.24653 14.7383 9.11949 14.7019C9.08319 14.6928 9.03782 14.6746 9.00153 14.6655C8.89264 14.6382 8.79282 14.6018 8.68393 14.5745C8.62949 14.5563 8.57504 14.5381 8.51152 14.5199C8.41171 14.4926 8.32097 14.4563 8.23023 14.4199C8.18486 14.4017 8.13041 14.3835 8.08504 14.3653C7.958 14.3198 7.83096 14.2652 7.70393 14.2197C7.64948 14.2015 7.59504 14.1742 7.53152 14.1469C7.44985 14.1105 7.36818 14.0741 7.28652 14.0378C7.23207 14.0105 7.16855 13.9832 7.11411 13.9559C7.01429 13.9104 6.91448 13.8558 6.81466 13.8103C6.74207 13.7739 6.67855 13.7375 6.60596 13.7011C6.52429 13.6557 6.4517 13.6193 6.37003 13.5738C6.30651 13.5374 6.25207 13.5101 6.18855 13.4737C6.11596 13.4282 6.05244 13.3918 5.97984 13.3463C5.9254 13.3099 5.87095 13.2826 5.81651 13.2462C5.70762 13.1735 5.59873 13.1098 5.49892 13.037C5.44447 12.9642 5.38095 12.9278 5.32651 12.8823C5.26299 12.8368 5.20854 12.8005 5.14503 12.755C5.09058 12.7095 5.02706 12.664 4.97262 12.6276C4.9091 12.573 4.83651 12.5275 4.77299 12.4729C4.72762 12.4365 4.69132 12.4093 4.64595 12.3729C4.55521 12.3001 4.47354 12.2273 4.39187 12.1545H4.40095C4.35558 12.1181 4.31021 12.0726 4.27391 12.0362C4.22854 11.9998 4.18317 11.9635 4.14687 11.918C4.09243 11.8725 4.04706 11.827 4.00169 11.7815C3.96539 11.7451 3.92002 11.6996 3.88372 11.6632C3.83835 11.6177 3.80206 11.5723 3.76576 11.5268C3.72946 11.4813 3.69317 11.4449 3.65687 11.3994C3.62057 11.3539 3.58428 11.3084 3.54798 11.2629C3.51168 11.2174 3.47539 11.172 3.43909 11.1356C3.40279 11.0901 3.3665 11.0446 3.33928 10.99C3.30298 10.9445 3.27576 10.899 3.23946 10.8535C3.20316 10.808 3.17594 10.7535 3.13965 10.708C3.11242 10.6625 3.07613 10.6079 3.0489 10.5624C3.02168 10.5169 2.99446 10.4623 2.95816 10.4168C2.93094 10.3713 2.90372 10.3168 2.8765 10.2622C2.84927 10.2167 2.82205 10.1621 2.79483 10.1075C2.77668 10.0711 2.74946 10.0165 2.72224 9.96194C2.69501 9.90736 2.67687 9.86187 2.64964 9.80728C2.62242 9.75269 2.60427 9.69811 2.57705 9.64352C2.5589 9.58893 2.54075 9.54344 2.51353 9.48886C2.49538 9.43427 2.47723 9.37059 2.45001 9.316C2.43186 9.26141 2.41372 9.21592 2.40464 9.16134C2.38649 9.09765 2.36835 9.04306 2.3502 8.97938C2.3502 8.93389 2.34112 8.8793 2.32297 8.82472C2.3139 8.76103 2.29575 8.69735 2.28668 8.63366C2.2776 8.58817 2.25946 8.53359 2.25038 8.4881C2.24131 8.41532 2.23223 8.35163 2.22316 8.27885C2.21409 8.23336 2.20501 8.18787 2.20501 8.14238C2.19594 8.0605 2.18686 7.98772 2.17779 7.90584C2.17779 7.86945 2.16871 7.82396 2.16871 7.78757C2.15964 7.6693 2.15964 7.55102 2.15964 7.42366C2.15964 7.30538 2.15964 7.17802 2.16871 7.05974C2.16871 7.01426 2.17779 6.96877 2.17779 6.93237C2.18686 6.85959 2.18686 6.77771 2.19594 6.70493C2.20501 6.65034 2.21409 6.59576 2.22316 6.55027C2.23223 6.48658 2.24131 6.4229 2.25038 6.35012C2.26853 6.29553 2.2776 6.23184 2.29575 6.17726C2.30483 6.11357 2.32297 6.05899 2.33205 5.9953C2.3502 5.94071 2.36835 5.88613 2.37742 5.82244C2.39557 5.76786 2.40464 5.71327 2.42279 5.65868C2.44094 5.595 2.46816 5.54041 2.48631 5.47673C2.50446 5.43124 2.52261 5.37665 2.54075 5.33116C2.56798 5.26748 2.5952 5.20379 2.61335 5.14011C2.63149 5.09462 2.64964 5.04913 2.66779 5.00364C2.69501 4.93996 2.72224 4.87627 2.75853 4.81259C2.78575 4.7762 2.8039 4.73071 2.82205 4.69432C2.85835 4.63063 2.89464 4.56695 2.92187 4.50326C2.94909 4.45777 2.96724 4.42138 2.98539 4.38499C3.02168 4.32131 3.05798 4.25762 3.10335 4.19394C3.13057 4.15755 3.14872 4.12115 3.17594 4.08476C3.22131 4.02108 3.26668 3.95739 3.30298 3.89371C3.3302 3.85732 3.34835 3.83002 3.37557 3.79363C3.42094 3.72995 3.46631 3.66626 3.52076 3.61168C3.54798 3.58438 3.56613 3.54799 3.59335 3.5207C3.6478 3.45701 3.69317 3.40243 3.74761 3.33874C3.77483 3.31145 3.79298 3.28416 3.8202 3.25686C3.87465 3.20228 3.92909 3.14769 3.99261 3.084C4.01983 3.05671 4.04706 3.02942 4.07428 3.00212C4.12872 2.94754 4.19224 2.89295 4.25576 2.83836C4.27391 2.82017 4.30113 2.79287 4.32835 2.76558C4.39187 2.71099 4.44632 2.66551 4.50984 2.61092C4.53706 2.59272 4.55521 2.57453 4.56428 2.56543Z" fill="url(#paint2_radial)"/>
</g>
<defs>
<linearGradient id="paint0_linear" x1="14.0649" y1="6.05674e-07" x2="5.86582" y2="14.5382" gradientUnits="userSpaceOnUse">
<stop offset="0.0108886" stop-color="#4CAD63"/>
<stop offset="0.322917" stop-color="#4CAD63"/>
<stop offset="1" stop-color="#22552C"/>
</linearGradient>
<linearGradient id="paint1_linear" x1="9.98157" y1="0.455043" x2="20.0004" y2="16.3527" gradientUnits="userSpaceOnUse">
<stop stop-color="#6F3212"/>
<stop offset="0.46875" stop-color="#E37438"/>
<stop offset="0.9999" stop-color="#622B0D"/>
<stop offset="1" stop-color="#E37438" stop-opacity="0"/>
</linearGradient>
<radialGradient id="paint2_radial" cx="0" cy="0" r="1" gradientUnits="userSpaceOnUse" gradientTransform="translate(21.7779 5.45852) rotate(136.323) scale(26.3476 29.5103)">
<stop offset="0.630208" stop-color="#347CAF"/>
<stop offset="1" stop-color="#11324F"/>
</radialGradient>
<clipPath id="clip0">
<rect width="113" height="24" fill="white"/>
</clipPath>
</defs>
</svg>
