<svg width="84" height="16" viewBox="0 0 84 16" fill="none" xmlns="http://www.w3.org/2000/svg">
<path fill-rule="evenodd" clip-rule="evenodd" d="M47.7882 0.758131C47.0179 0.738297 46.4604 1.00715 45.7998 1.88864L38.0277 12.2726L35.0407 2.11342C34.7294 1.08428 34.0509 0.742705 33.4262 0.747112C32.479 0.75152 32.0021 1.14158 31.5028 2.01645L24.6577 15.5627H28.4866L33.1217 6.22556L36.0169 15.5627H39.2167L46.2118 6.27625L46.176 15.5627H49.4631L49.4385 2.54755C49.434 1.28702 48.6077 0.780168 47.7882 0.758131ZM20.0473 3.16241L16.9572 15.5627H20.457L23.5 3.16241H20.0473ZM5.12321 8.79732H7.59524C9.27909 8.79732 10.4905 8.08332 10.6315 6.87348C10.7681 5.69889 10.0471 5.05981 8.66108 5.05981H6.04574L5.12321 8.79732ZM9.80753 3.16241C13.2962 3.16241 14.2679 5.051 14.0799 6.69497C13.8895 8.34115 12.8483 9.87714 9.79186 10.6264L13.2357 15.5627H9.45823L6.38609 10.9063H4.60596L3.46399 15.5627H0L3.0475 3.16241H9.80753ZM58.4713 10.9504L61.5277 6.42171L62.6898 10.9504H58.4713ZM63.8632 15.5627H67.1838L64.0221 4.14086C63.6057 2.83846 62.7861 2.49468 61.933 2.563C61.3978 2.60707 60.8425 2.82965 60.2671 3.58332L51.9553 15.5649H55.3566L57.0427 13.0373L63.2205 13.0307L63.8632 15.5627ZM73.5521 9.681C73.3214 11.6665 74.9247 13.229 77.7371 13.2687C79.4299 13.2929 80.4935 13.1078 81.819 12.7574L81.1495 15.4702C79.7881 15.6861 78.8186 15.7787 77.7057 15.7787C72.1772 15.7787 69.6089 13.2025 70.0209 9.62591C70.4866 5.5931 74.2731 2.88032 80.2404 2.88032C81.3376 2.88032 83.0192 3.05662 84 3.28801L83.3842 5.7738C82.1728 5.46748 80.8517 5.39917 79.8284 5.39036C76.3465 5.36391 73.8633 6.99687 73.5521 9.681Z" fill="#E6281E"/>
</svg>
