<svg width="468" height="184" viewBox="0 0 468 184" fill="none" xmlns="http://www.w3.org/2000/svg">
<g clip-path="url(#clip0)">
<path d="M292.975 150.289V158.195C292.975 163.92 288.325 168.57 282.6 168.57H198.185C192.459 168.57 187.809 163.92 187.809 158.195V155.676" stroke="#00B0CA" stroke-width="1.5" stroke-miterlimit="10" stroke-linecap="round" stroke-linejoin="round"/>
<path d="M292.975 135.016V150.29" stroke="#00B0CA" stroke-width="1.5" stroke-miterlimit="10" stroke-linecap="round" stroke-linejoin="round"/>
<path d="M187.809 105.153V82.5006C187.809 76.4766 192.688 71.5977 198.712 71.5977H282.6C288.325 71.5977 292.975 76.2476 292.975 81.9729V101.678" stroke="#00B0CA" stroke-width="1.5" stroke-miterlimit="10" stroke-linecap="round" stroke-linejoin="round"/>
<path d="M188.467 135.016C182.094 172.673 133.106 170.911 96.8122 128.623C67.5485 94.5405 41.0827 95.118 0.746826 102.257" stroke="#00B0CA" stroke-width="1.5" stroke-miterlimit="10" stroke-linecap="round" stroke-linejoin="round"/>
<path d="M277.243 71.5983V52.5306C277.243 32.2083 260.715 15.6797 240.392 15.6797C220.07 15.6797 203.542 32.2083 203.542 52.5306V68.6112" stroke="#00B0CA" stroke-width="1.5" stroke-miterlimit="10" stroke-linecap="round" stroke-linejoin="round"/>
<path d="M214.793 71.6008V52.5331C214.793 38.414 226.273 26.9336 240.392 26.9336C254.512 26.9336 265.992 38.414 265.992 52.5331V68.6137" stroke="#00B0CA" stroke-width="1.5" stroke-miterlimit="10" stroke-linecap="round" stroke-linejoin="round"/>
<path d="M314.234 90.9844C299.189 102.674 282.172 105.093 271.14 105.093C260.107 105.093 181.397 105.093 181.397 105.093C177.544 105.093 174.427 108.21 174.427 112.063V127.497C174.427 131.619 177.773 134.955 181.885 134.955H299.368C303.221 134.955 306.338 131.838 306.338 127.985V112.053C306.338 108.2 303.221 105.084 299.368 105.084" stroke="#00B0CA" stroke-width="1.5" stroke-miterlimit="10" stroke-linecap="round" stroke-linejoin="round"/>
<path d="M314.234 90.9859C314.234 90.9859 383.744 43.6402 467.263 71.5995" stroke="#00B0CA" stroke-width="1.5" stroke-miterlimit="10" stroke-linecap="round" stroke-linejoin="round"/>
<path d="M191.225 115.32L196.721 124.849" stroke="#00B0CA" stroke-width="1.5" stroke-miterlimit="10" stroke-linecap="round" stroke-linejoin="round"/>
<path d="M199.469 120.078H188.467" stroke="#00B0CA" stroke-width="1.5" stroke-miterlimit="10" stroke-linecap="round" stroke-linejoin="round"/>
<path d="M191.225 124.849L196.721 115.32" stroke="#00B0CA" stroke-width="1.5" stroke-miterlimit="10" stroke-linecap="round" stroke-linejoin="round"/>
<path d="M209.834 115.32L215.341 124.849" stroke="#00B0CA" stroke-width="1.5" stroke-miterlimit="10" stroke-linecap="round" stroke-linejoin="round"/>
<path d="M218.089 120.078H207.086" stroke="#00B0CA" stroke-width="1.5" stroke-miterlimit="10" stroke-linecap="round" stroke-linejoin="round"/>
<path d="M209.834 124.849L215.341 115.32" stroke="#00B0CA" stroke-width="1.5" stroke-miterlimit="10" stroke-linecap="round" stroke-linejoin="round"/>
<path d="M228.454 115.32L233.96 124.849" stroke="#00B0CA" stroke-width="1.5" stroke-miterlimit="10" stroke-linecap="round" stroke-linejoin="round"/>
<path d="M236.708 120.078H225.706" stroke="#00B0CA" stroke-width="1.5" stroke-miterlimit="10" stroke-linecap="round" stroke-linejoin="round"/>
<path d="M228.454 124.849L233.96 115.32" stroke="#00B0CA" stroke-width="1.5" stroke-miterlimit="10" stroke-linecap="round" stroke-linejoin="round"/>
<path d="M246.795 115.32L252.301 124.849" stroke="#00B0CA" stroke-width="1.5" stroke-miterlimit="10" stroke-linecap="round" stroke-linejoin="round"/>
<path d="M255.049 120.078H244.047" stroke="#00B0CA" stroke-width="1.5" stroke-miterlimit="10" stroke-linecap="round" stroke-linejoin="round"/>
<path d="M246.795 124.849L252.301 115.32" stroke="#00B0CA" stroke-width="1.5" stroke-miterlimit="10" stroke-linecap="round" stroke-linejoin="round"/>
<path d="M265.534 115.32L271.04 124.849" stroke="#00B0CA" stroke-width="1.5" stroke-miterlimit="10" stroke-linecap="round" stroke-linejoin="round"/>
<path d="M273.788 120.078H262.786" stroke="#00B0CA" stroke-width="1.5" stroke-miterlimit="10" stroke-linecap="round" stroke-linejoin="round"/>
<path d="M265.534 124.849L271.04 115.32" stroke="#00B0CA" stroke-width="1.5" stroke-miterlimit="10" stroke-linecap="round" stroke-linejoin="round"/>
<path d="M284.064 115.32L289.56 124.849" stroke="#00B0CA" stroke-width="1.5" stroke-miterlimit="10" stroke-linecap="round" stroke-linejoin="round"/>
<path d="M292.318 120.078H281.306" stroke="#00B0CA" stroke-width="1.5" stroke-miterlimit="10" stroke-linecap="round" stroke-linejoin="round"/>
<path d="M284.064 124.849L289.56 115.32" stroke="#00B0CA" stroke-width="1.5" stroke-miterlimit="10" stroke-linecap="round" stroke-linejoin="round"/>
</g>
<defs>
<clipPath id="clip0">
<rect y="14.9336" width="468" height="154.384" fill="white"/>
</clipPath>
</defs>
</svg>
