<svg width="468" height="184" viewBox="0 0 468 184" fill="none" xmlns="http://www.w3.org/2000/svg">
<path d="M176.48 141.81L217.84 101.01C227.14 91.8403 242.21 91.8403 251.5 101.01L292.86 141.81" stroke="#00ABC9" stroke-width="1.5" stroke-miterlimit="10" stroke-linecap="round" stroke-linejoin="round"/>
<path d="M275.49 43.2812L292.87 60.4312" stroke="#00ABC9" stroke-width="1.5" stroke-miterlimit="10" stroke-linecap="round" stroke-linejoin="round"/>
<path d="M211.24 26.1508L217.84 19.6308C226.75 10.8408 240.96 10.4808 250.31 18.5308" stroke="#00ABC9" stroke-width="1.5" stroke-miterlimit="10" stroke-linecap="round" stroke-linejoin="round"/>
<path d="M176.48 60.4203L194.25 42.8203" stroke="#00ABC9" stroke-width="1.5" stroke-miterlimit="10" stroke-linecap="round" stroke-linejoin="round"/>
<path d="M176.48 141.809H292.87" stroke="#00ABC9" stroke-width="1.5" stroke-miterlimit="10" stroke-linecap="round" stroke-linejoin="round"/>
<path d="M210.95 45.4102H258.39" stroke="#00ABC9" stroke-width="1.5" stroke-miterlimit="10" stroke-linecap="round" stroke-linejoin="round"/>
<path d="M210.95 54.1289H258.39" stroke="#00ABC9" stroke-width="1.5" stroke-miterlimit="10" stroke-linecap="round" stroke-linejoin="round"/>
<path d="M210.95 62.8516H258.39" stroke="#00ABC9" stroke-width="1.5" stroke-miterlimit="10" stroke-linecap="round" stroke-linejoin="round"/>
<path d="M210.95 69.7695H245.07" stroke="#00ABC9" stroke-width="1.5" stroke-miterlimit="10" stroke-linecap="round" stroke-linejoin="round"/>
<path d="M176.48 86.1519V60.4219" stroke="#00ABC9" stroke-width="1.5" stroke-miterlimit="10" stroke-linecap="round" stroke-linejoin="round"/>
<path d="M226.01 95.1919L176.48 60.4219" stroke="#00ABC9" stroke-width="1.5" stroke-miterlimit="10" stroke-linecap="round" stroke-linejoin="round"/>
<path d="M292.87 141.809V108.629" stroke="#00ABC9" stroke-width="1.5" stroke-miterlimit="10" stroke-linecap="round" stroke-linejoin="round"/>
<path d="M292.87 80.8909V60.9609" stroke="#00ABC9" stroke-width="1.5" stroke-miterlimit="10" stroke-linecap="round" stroke-linejoin="round"/>
<path d="M176.48 141.812V119.422" stroke="#00ABC9" stroke-width="1.5" stroke-miterlimit="10" stroke-linecap="round" stroke-linejoin="round"/>
<path d="M243.34 95.1919L292.87 60.4219" stroke="#00ABC9" stroke-width="1.5" stroke-miterlimit="10" stroke-linecap="round" stroke-linejoin="round"/>
<path d="M194.25 66.5289V24.8789" stroke="#00ABC9" stroke-width="1.5" stroke-miterlimit="10" stroke-linecap="round" stroke-linejoin="round"/>
<path d="M275.15 72.8617V23.2617" stroke="#00ABC9" stroke-width="1.5" stroke-miterlimit="10" stroke-linecap="round" stroke-linejoin="round"/>
<path d="M194.25 24.8794C194.25 24.8794 209.27 28.6594 236.49 23.2594C263.71 17.8594 275.15 23.2594 275.15 23.2594" stroke="#00ABC9" stroke-width="1.5" stroke-miterlimit="10" stroke-linecap="round" stroke-linejoin="round"/>
<path d="M176.46 73.9219V93.8419C176.46 93.8419 176.91 128.732 149.12 138.552C121.39 148.352 97.44 134.282 73.85 120.242C54.0375 108.45 30.0208 102.993 0.94104 109" stroke="#00ABC9" stroke-width="1.5" stroke-miterlimit="10" stroke-linecap="round" stroke-linejoin="round"/>
<path d="M292.88 127.32V107.4C292.88 107.4 292.76 73.4004 320.22 62.6904C348.02 51.8504 371.9 66.9604 395.49 81.0004C414.984 92.6026 438.548 98.0725 467 92.5232" stroke="#00ABC9" stroke-width="1.5" stroke-miterlimit="10" stroke-linecap="round" stroke-linejoin="round"/>
</svg>
