<svg width="22" height="20" viewBox="0 0 22 20" fill="none" xmlns="http://www.w3.org/2000/svg">
<path d="M18.96 2H16.15V1C16.15 0.45 15.7 0 15.15 0C14.6 0 14.15 0.45 14.15 1V2H8.15V1C8.15 0.45 7.7 0 7.15 0C6.6 0 6.15 0.45 6.15 1V2H2.78C1.3 2 0 3.23 0 4.63C0 5.18 0.45 5.63 1 5.63C1.55 5.63 2 5.18 2 4.63C2 4.43 2.29 4 2.78 4H6.15V5.13C6.15 5.68 6.6 6.13 7.15 6.13C7.7 6.13 8.15 5.68 8.15 5.13V4H14.15V5.13C14.15 5.68 14.6 6.13 15.15 6.13C15.7 6.13 16.15 5.68 16.15 5.13V4H18.96C19.56 4 20 4.33 20 4.63V17.36C20 17.66 19.56 17.99 18.96 17.99H3.04C2.44 17.99 2 17.66 2 17.36V9.76H16.61C17.16 9.76 17.61 9.31 17.61 8.76C17.61 8.21 17.16 7.76 16.61 7.76H1C0.45 7.76 0 8.21 0 8.76V17.37C0 18.82 1.36 20 3.04 20H18.97C20.64 20 22.01 18.82 22.01 17.37V4.63C22 3.18 20.64 2 18.96 2Z" fill="#B8BCD5"/>
</svg>