
<svg width="24" height="24" viewBox="0 0 24 24" fill="none" xmlns="http://www.w3.org/2000/svg">
  <path d="M17.5 22.0104C17.3 22.0104 17.09 22.0004 16.88 21.9704C16.76 21.9604 16.64 21.9404 16.52 21.9104C15.98 21.8104 15.62 21.2804 15.73 20.7404C15.84 20.2004 16.36 19.8504 16.9 19.9504C16.97 19.9604 17.04 19.9704 17.12 19.9804C18.03 20.1004 18.9 19.7904 19.54 19.1604L19.63 19.0704C20.14 18.5604 20.14 17.7404 19.63 17.2304L18.41 16.0104C17.99 15.5804 17.33 15.5104 16.81 15.8204C16.78 15.8404 16.74 15.8604 16.71 15.8704C14.83 16.9404 12.43 16.6204 10.88 15.0704L8.95001 13.1404C7.39001 11.5804 7.07001 9.20043 8.13001 7.30043C8.15001 7.27043 8.17001 7.23043 8.19001 7.20043C8.51001 6.68043 8.43001 6.03043 8.00001 5.60043L6.78001 4.38043C6.27001 3.87043 5.45001 3.87043 4.94001 4.38043L4.85001 4.47043C4.21001 5.10043 3.91001 5.98043 4.02001 6.87043C4.02001 6.87043 4.02001 6.88043 4.02001 6.89043C4.03001 6.96043 4.04001 7.03043 4.06001 7.10043C4.38001 9.60043 5.43001 11.9904 7.08001 14.1004C7.09001 14.1104 8.49001 15.8704 9.64001 16.7204C10.84 17.6104 12.04 18.3304 13.19 18.8604C13.69 19.0904 13.91 19.6804 13.68 20.1904C13.45 20.6904 12.86 20.9104 12.35 20.6804C11.07 20.0904 9.75001 19.3004 8.44001 18.3304C7.07001 17.3204 5.56001 15.4204 5.50001 15.3304C3.62001 12.9304 2.44001 10.2004 2.08001 7.42043C2.07001 7.38043 2.05001 7.26043 2.04001 7.14043V7.13043C1.85001 5.62043 2.36001 4.13043 3.43001 3.06043L3.52001 2.97043C4.81001 1.68043 6.90001 1.68043 8.19001 2.97043L9.41001 4.19043C10.47 5.25043 10.68 6.88043 9.93001 8.18043C9.92001 8.20043 9.91001 8.23043 9.89001 8.25043C9.25001 9.37043 9.43001 10.8004 10.35 11.7204L12.29 13.6704C13.21 14.5904 14.64 14.7804 15.76 14.1204C15.79 14.1004 15.82 14.0904 15.86 14.0704C17.09 13.3204 18.75 13.5204 19.82 14.6004L21.04 15.8204C22.33 17.1104 22.33 19.2004 21.04 20.4904L20.95 20.5804C20.03 21.5104 18.79 22.0104 17.5 22.0104Z" fill="#00B0CA"/>
</svg>                