<svg width="224" height="224" viewBox="0 0 224 224" fill="none" xmlns="http://www.w3.org/2000/svg">
<path d="M209.907 120.445C200.042 101.783 122.361 96.0216 86.9643 71.721C57.7596 51.6733 4.46548 80.4981 7.23166 118.891C11.009 171.24 33.1611 197.96 81.1826 204.165C127.068 210.078 231.457 161.224 209.907 120.445Z" fill="#E6F6F9"/>
<path d="M81.5508 176.86C79.5408 176.86 77.1208 176.41 75.5608 174.61C73.3308 172.04 73.5808 167.54 76.2808 161.24L77.0508 159.45C83.3208 144.95 99.9908 106.45 85.0408 87.38C78.6108 79.18 66.9008 75.59 50.1308 76.67C36.9808 83.53 27.0708 96.01 21.1608 113.32C13.6808 135.25 12.9708 149.01 19.1108 153.12C25.7808 157.59 68.3408 169.76 68.7708 169.88C69.3008 170.03 69.6108 170.59 69.4608 171.12C69.3108 171.65 68.7508 171.96 68.2208 171.81C66.4608 171.31 24.9208 159.43 17.9908 154.79C10.9208 150.05 11.3508 135.89 19.2608 112.68C24.7608 96.56 33.6608 84.49 45.4008 77.08C42.9408 77.35 40.3808 77.71 37.7308 78.16C37.6908 78.17 37.6608 78.17 37.6208 78.17C36.4608 78.24 34.5408 78.35 34.2908 77C34.1008 75.98 34.5808 74.94 42.5608 71.67C46.9308 69.88 52.8208 67.75 58.3108 65.98C71.2508 61.81 111.641 59.33 130.391 58.93C131.151 58.91 131.921 58.89 132.691 58.86C138.191 58.66 143.881 58.45 146.781 62.3C146.861 62.4 146.931 62.51 147.001 62.62C152.361 62.32 157.191 62.07 161.151 61.88C162.291 58.2 163.341 54.82 164.271 51.89C161.271 52.02 158.521 52.02 155.591 51.85C155.041 51.82 154.621 51.34 154.651 50.79C154.681 50.24 155.151 49.82 155.711 49.85C158.801 50.03 161.701 50.02 164.921 49.85C166.271 45.61 167.291 42.53 167.831 41.12C170.561 34.04 171.991 33.97 183.081 33.37C185.761 33.22 189.091 33.04 193.191 32.73C194.401 32.64 195.561 32.53 196.661 32.43C202.481 31.89 206.691 31.51 208.841 33.94C210.221 35.5 210.481 37.96 209.671 41.7C208.211 48.37 206.181 48.51 196.401 49.19C194.271 49.34 191.621 49.52 188.511 49.8C185.141 50.11 182.151 50.39 179.461 50.65C174.191 51.16 170.061 51.55 166.411 51.78C165.491 54.69 164.431 58.07 163.291 61.78C168.391 61.53 171.701 61.38 172.371 61.35C172.601 61.33 178.931 60.85 184.301 65.15L184.741 65.5C210.811 86.2 209.921 109.07 204.591 124.61C195.591 153.11 191.381 157.96 184.791 158.56C179.271 159.06 86.0008 176.29 85.0608 176.46C84.9708 176.46 83.4508 176.86 81.5508 176.86ZM55.7008 74.48C70.1808 74.48 80.5408 78.38 86.6308 86.14C102.311 106.14 85.3008 145.44 78.9008 160.23L78.1308 162.02C75.7908 167.48 75.4308 171.38 77.0808 173.29C79.2908 175.85 84.5808 174.49 84.6308 174.48C88.5508 173.75 179.011 157.04 184.621 156.53C190.171 156.03 194.091 151.2 202.701 123.95C211.991 96.87 197.391 78.05 183.511 67.03L183.061 66.67C178.311 62.87 172.571 63.3 172.511 63.3C172.321 63.31 168.631 63.47 162.681 63.77C160.031 72.35 156.961 82.43 153.931 92.37C146.431 116.94 139.361 140.15 138.021 143.09C136.441 146.57 133.761 147.44 131.781 147.1C129.101 146.64 127.181 144.13 126.901 140.71C126.391 134.62 136.311 104.2 143.541 81.99L144.461 79.16C146.651 72.45 147.121 67.59 145.891 64.67C116.971 66.29 73.2308 69.19 60.8908 72.49C58.8308 73.04 56.8308 73.7 54.8908 74.48C55.1608 74.48 55.4308 74.48 55.7008 74.48ZM147.971 64.56C149.101 67.97 148.561 72.99 146.351 79.79L145.431 82.62C138.651 103.43 128.401 134.87 128.881 140.56C129.091 143.04 130.361 144.84 132.111 145.14C133.731 145.42 135.241 144.35 136.181 142.27C137.461 139.46 144.851 115.23 151.991 91.8C154.941 82.13 157.931 72.32 160.531 63.89C156.941 64.08 152.681 64.3 147.971 64.56ZM136.351 60.76C135.181 60.76 133.971 60.8 132.781 60.85C132.001 60.88 131.221 60.91 130.451 60.92C111.801 61.32 71.6808 63.76 58.9408 67.88C48.8608 71.13 40.6508 74.43 37.5108 76.17C41.7708 75.45 45.8008 74.97 49.5808 74.71C52.9708 72.98 56.5708 71.59 60.3708 70.58C72.8608 67.24 115.561 64.37 144.521 62.75C142.651 61.1 139.631 60.76 136.351 60.76ZM202.791 34C201.101 34 199.091 34.19 196.861 34.39C195.741 34.49 194.571 34.6 193.361 34.69C189.241 35.01 185.901 35.19 183.211 35.33C172.201 35.93 171.991 35.94 169.721 41.81C169.221 43.11 168.301 45.88 167.081 49.69C170.521 49.46 174.401 49.09 179.291 48.62C181.981 48.36 184.971 48.08 188.351 47.77C191.481 47.49 194.151 47.3 196.291 47.15C205.831 46.49 206.611 46.44 207.751 41.23C208.411 38.21 208.291 36.25 207.381 35.22C206.541 34.3 204.931 34 202.791 34Z" fill="#00ABC9"/>
<path d="M80.4901 121C80.4001 121 80.3001 120.99 80.2101 120.96C78.7501 120.54 44.3501 110.51 36.9401 104.56C34.2801 102.42 33.2301 100.5 33.7401 98.7002C34.6401 95.5002 40.3401 94.6802 40.9801 94.5902C41.3901 94.5402 81.7601 89.6002 87.3501 89.0902C87.9201 89.0502 88.3901 89.4502 88.4401 90.0002C88.4901 90.5502 88.0801 91.0402 87.5301 91.0902C81.9801 91.5902 41.6401 96.5302 41.2301 96.5802C39.6001 96.7902 36.0901 97.7202 35.6601 99.2502C35.4101 100.16 36.3001 101.49 38.1901 103C44.8301 108.34 76.0101 117.64 80.2801 118.9L88.6201 112.54C89.0601 112.2 89.6901 112.29 90.0201 112.73C90.3501 113.17 90.2701 113.8 89.8301 114.13L81.0901 120.79C80.9201 120.93 80.7001 121 80.4901 121Z" fill="#00ABC9"/>
<path d="M80.4917 154.95H46.7017C42.5817 154.95 41.2517 148.24 41.1217 147.47L35.7817 108.23C35.7117 107.68 36.0917 107.18 36.6417 107.1C37.1917 107.03 37.6917 107.41 37.7717 107.96L43.1017 147.16C43.3717 148.63 44.6217 152.95 46.7117 152.95H80.4917C81.0417 152.95 81.4917 153.4 81.4917 153.95C81.4917 154.5 81.0417 154.95 80.4917 154.95Z" fill="#00ABC9"/>
</svg>
