<svg width="225" height="224" viewBox="0 0 225 224" fill="none" xmlns="http://www.w3.org/2000/svg">
<path d="M150.096 177.697C173.791 154.957 183.558 97.7471 166.544 75.3384C129.359 26.3633 59.7323 98.6929 22.4679 121.957C0.793591 135.489 22.3038 176.465 50.9018 190.227C78.2308 203.367 116.621 209.822 150.096 177.697Z" fill="#E6F6F9"/>
<path fill-rule="evenodd" clip-rule="evenodd" d="M50.9002 197.68H51.1548C58.445 197.68 175.444 189.993 183.732 188.975C192.57 187.875 192.57 181.898 192.57 179.027C192.57 175.82 184.669 102.5 183.58 99.2219C183.406 98.6925 182.826 98.4074 182.297 98.5805C181.757 98.7536 181.472 99.3339 181.645 99.8634C182.388 102.154 190.534 174.659 190.534 179.027C190.534 182 190.534 186.073 183.478 186.959C175.088 188.007 55.034 195.837 51.0326 195.654C48.7213 195.511 45.5955 194.554 45.0355 187.875C44.8826 185.974 44.0754 178.703 43.0343 169.326L43.0343 169.326L43.0341 169.325L42.826 167.45L42.8032 167.245C40.5245 146.757 37.4184 118.83 37.0937 112.112C36.8799 107.683 37.4093 104.985 38.7024 103.875C39.629 103.081 41.1155 102.979 43.8239 103.529C45.117 103.794 53.6493 108.141 104.833 142.759C105.902 143.482 106.585 143.94 106.798 144.083C107.305 144.421 107.889 144.274 108.107 144.219L108.122 144.215C108.926 144.002 110.454 143.167 112.5 141.874C113.61 142.22 114.537 142.362 115.209 142.26C122.723 141.1 174.294 100.729 174.803 100.322C182.337 94.2939 182.225 91.0154 182.124 90.4147C182.083 90.1805 181.95 89.9565 181.767 89.8038C179.385 87.8183 170.201 80.1819 159.204 71.2932C159.199 70.6356 159.196 69.9649 159.194 69.2824L159.194 69.2793V69.2765C159.191 68.6187 159.189 67.9499 159.184 67.2714C159.123 54.0758 159.072 41.603 159.275 37.7543C159.815 27.7354 152.474 26.8801 152.311 26.8699C152.162 26.8683 151.833 26.8644 151.344 26.8585C142.654 26.7542 83.2602 26.0415 77.149 26.8801C71.4064 27.6743 69.5228 32.1645 69.3191 34.5063C69.3191 34.8321 69.2173 50.0641 69.1053 66.7419L32.97 94.2939C32.522 94.6299 32.4406 95.2714 32.7766 95.7194C33.1126 96.1674 33.754 96.259 34.202 95.9128L69.0849 69.3078L69.0219 78.7606L69.0218 78.7768C68.9212 93.8179 68.8304 107.391 68.8304 109.465C68.8304 114.627 73.4122 116.908 74.298 117.305C77.5868 119.82 99.1824 136.182 110.138 140.978C108.896 141.721 108.091 142.118 107.674 142.24C107.521 142.138 107.317 142 107.064 141.829L107.063 141.828C106.761 141.624 106.39 141.373 105.953 141.079C68.1075 115.472 47.3264 102.164 44.2108 101.533C41.7264 101.024 39.181 100.77 37.3584 102.327C35.5257 103.895 34.7926 107.031 35.0471 112.204C35.3709 118.767 38.2845 145.114 40.5277 165.397L40.7795 167.674L41.056 170.162L41.056 170.162L41.0561 170.163C42.064 179.231 42.8395 186.207 42.989 188.038C43.498 194.157 46.1657 197.405 50.9002 197.68ZM158.675 106.441C159.214 105.372 159.306 97.1754 159.214 73.9303C166.606 79.8968 173.836 85.843 180.057 91.0358C179.863 91.9012 178.845 94.4772 173.52 98.7332C163.277 106.919 121.246 138.9 115.015 140.224C129.035 130.826 157.789 108.212 158.675 106.441ZM70.8668 109.465C70.8668 106.889 70.9991 86.5659 71.1315 67.7499L96.7897 48.1805C96.8304 48.1499 96.8711 48.1092 96.9119 48.0685L96.9333 48.0463C97.4169 47.5426 105.72 38.8947 111.513 38.8947H111.563C114.75 38.9252 136.285 55.4503 157.178 72.2808C157.239 87.2481 157.27 103.57 156.842 105.524C155.732 106.838 145.286 115.319 132.996 124.656C122.916 132.323 116.206 137.078 112.185 139.684C104.65 136.834 86.5977 124.147 75.4282 115.604C75.3569 115.554 75.2755 115.503 75.194 115.472C75.021 115.401 70.8668 113.66 70.8668 109.465ZM111.584 36.8583H111.523C104.915 36.8583 96.362 45.6961 95.4864 46.6125L71.1417 65.1739C71.1864 58.7725 71.2295 52.6505 71.2652 47.5885L71.2653 47.5659L71.2657 47.5194C71.319 39.9461 71.3555 34.7625 71.3555 34.5979C71.3759 34.4045 71.8951 29.6598 77.434 28.8961C83.2504 28.0987 141.318 28.7707 150.875 28.8813L150.875 28.8813C151.691 28.8908 152.153 28.8961 152.199 28.8961C152.423 28.9165 157.687 29.619 157.249 37.6423C157.046 41.5521 157.097 54.0554 157.158 67.2816C157.158 67.672 157.16 68.0625 157.163 68.4542V68.4544V68.4546V68.4548V68.455C157.165 68.8496 157.168 69.2454 157.168 69.6438C138.505 54.6154 115.636 36.8888 111.584 36.8583ZM50.2689 190.665C50.4624 190.858 50.7169 190.95 50.9715 190.95C51.2362 190.95 51.5009 190.848 51.7148 190.634C62.4566 179.404 98.4086 152.768 98.7751 152.503C99.2333 152.167 99.3249 151.526 98.9889 151.078C98.6529 150.63 98.0115 150.528 97.5635 150.864C96.0769 151.964 61.1024 177.876 50.2384 189.229C49.8515 189.636 49.8617 190.278 50.2689 190.665ZM184.099 182.509C183.956 182.509 183.803 182.479 183.661 182.407C171.3 176.471 135.348 150.192 133.821 149.072C133.363 148.736 133.271 148.105 133.597 147.647C133.933 147.188 134.564 147.097 135.022 147.423L135.04 147.436L135.04 147.436C136.038 148.164 172.455 174.761 184.537 180.564C185.046 180.809 185.259 181.42 185.015 181.919C184.842 182.295 184.475 182.509 184.099 182.509ZM139.787 77.6976H139.889C140.409 77.6976 140.846 77.3005 140.908 76.7914C140.969 76.2314 140.561 75.7325 140.001 75.6714L134.534 75.1216C128.353 74.5005 115.29 73.7063 105.516 74.6838C95.8733 75.651 90.4464 74.7041 90.3955 74.6939C89.8457 74.6023 89.3162 74.9688 89.2144 75.5187C89.1126 76.0685 89.4791 76.5979 90.029 76.6998C90.253 76.7405 95.741 77.7077 105.709 76.7099C115.351 75.7427 128.638 76.5776 134.32 77.1478L139.787 77.6976ZM113.926 94.6299C106.758 94.6299 99.6609 94.1412 95.578 93.7339L90.1104 93.1841C89.5504 93.123 89.1431 92.6241 89.2042 92.0641C89.2653 91.5041 89.7642 91.107 90.3242 91.1579L95.7918 91.7077C101.473 92.2779 114.761 93.1128 124.403 92.1456C134.361 91.1477 139.859 92.115 140.083 92.1557C140.633 92.2576 140.999 92.787 140.897 93.3368C140.795 93.8867 140.266 94.2634 139.716 94.1616C139.665 94.1514 134.238 93.2045 124.596 94.1717C121.277 94.5077 117.591 94.6299 113.926 94.6299ZM95.578 107.551C99.6609 107.958 106.758 108.447 113.926 108.447C117.591 108.447 121.277 108.324 124.596 107.988C134.238 107.021 139.665 107.968 139.716 107.978C140.266 108.08 140.795 107.703 140.897 107.154C140.999 106.604 140.633 106.074 140.083 105.972C139.859 105.932 134.361 104.964 124.403 105.962C114.761 106.93 101.473 106.095 95.7918 105.524L90.3242 104.975C89.7642 104.924 89.2653 105.321 89.2042 105.881C89.1431 106.441 89.5504 106.94 90.1104 107.001L95.578 107.551Z" fill="#00ABC9"/>
</svg>
