
<svg width="24" height="24" viewBox="0 0 24 24" fill="none" xmlns="http://www.w3.org/2000/svg">
  <path d="M20 11C19.45 11 19 11.45 19 12V18C19 18.55 18.55 19 18 19H6C5.45 19 5 18.55 5 18V6C5 5.45 5.45 5 6 5H12C12.55 5 13 4.55 13 4C13 3.45 12.55 3 12 3H6C4.35 3 3 4.35 3 6V18C3 19.65 4.35 21 6 21H18C19.65 21 21 19.65 21 18V12C21 11.45 20.55 11 20 11Z" fill="#00B0CA"/>
  <path d="M20 3H16C15.45 3 15 3.45 15 4C15 4.55 15.45 5 16 5H17.59L8.46999 14.12C8.07999 14.51 8.07999 15.14 8.46999 15.53C8.66999 15.73 8.91999 15.82 9.17999 15.82C9.43999 15.82 9.68999 15.72 9.88999 15.53L19 6.41V8C19 8.55 19.45 9 20 9C20.55 9 21 8.55 21 8V4C21 3.45 20.55 3 20 3Z" fill="#00B0CA"/>
</svg>     