<svg width="224" height="224" viewBox="0 0 224 224" fill="none" xmlns="http://www.w3.org/2000/svg">
<path d="M3.1515 114.479C13.8952 93.7924 98.4985 87.4058 137.05 60.4695C168.857 38.2475 226.9 70.1987 223.887 112.755C219.773 170.783 195.647 200.401 143.347 207.279C93.3728 213.833 -20.3191 159.68 3.1515 114.479Z" fill="#E6F6F9"/>
<path fill-rule="evenodd" clip-rule="evenodd" d="M115.47 183.93C69.44 183.93 32 146.49 32 100.47C32 54.45 69.44 17 115.47 17C128.798 17 141.541 20.0462 153.332 26.0596C153.382 26.0757 153.432 26.0958 153.48 26.12C154.22 26.5 166.49 32.96 175.56 42.2C179.36 38.45 185.31 34.95 194.6 32.78C195.13 32.66 195.68 32.99 195.8 33.53C195.93 34.07 195.59 34.61 195.05 34.73C190.6 35.77 182.5 38.3 176.94 43.67C180.3 47.35 183.07 51.43 184.4 55.71C185.82 60.29 185.43 64.68 183.25 68.76C182.07 70.98 180.35 72.18 178.42 72.18C178.01 72.18 177.6 72.13 177.18 72.02C173.18 71 168.95 64.73 169.03 57.04C169.06 54.06 169.84 48.77 174.18 43.69C165.696 35.0454 154.106 28.7215 152.7 27.9734C152.649 27.9566 152.599 27.9355 152.55 27.91C141.01 22 128.53 19 115.47 19C70.55 19 34 55.55 34 100.47C34 145.39 70.55 181.94 115.47 181.94C160.39 181.94 196.94 145.39 196.94 100.47C196.94 99.92 197.39 99.47 197.94 99.47C198.49 99.47 198.94 99.92 198.94 100.47C198.93 146.49 161.49 183.93 115.47 183.93ZM127.8 103.66C124.39 103.66 121.73 102.49 119.92 100.18C115.04 93.97 117.46 80.95 119.71 71.7C119.84 71.16 120.38 70.83 120.92 70.96C121.46 71.09 121.79 71.63 121.66 72.17C120.42 77.27 116.66 92.78 121.5 98.94C122.94 100.77 125 101.66 127.81 101.66C139.74 101.66 148.7 86.28 153.51 78.02L153.671 77.7455C154.227 76.7939 154.734 75.9278 155.19 75.17C155.48 74.7 156.09 74.55 156.56 74.84C157.03 75.13 157.18 75.74 156.89 76.21C156.425 76.9725 155.917 77.8474 155.357 78.8106L155.23 79.03L155.22 79.0466C150.208 87.6506 140.882 103.66 127.8 103.66ZM81.44 95.18C80.8864 95.18 80.499 95.1116 80.3259 95.081L80.32 95.08C77.85 94.56 72.48 91.44 75.88 73.9C75.99 73.36 76.51 73.01 77.05 73.11C77.59 73.21 77.95 73.74 77.84 74.28C75.34 87.19 77.69 92.48 80.73 93.13C80.83 93.15 90.44 94.92 97.5 72.62C97.67 72.09 98.23 71.8 98.75 71.97C99.28 72.14 99.57 72.7 99.4 73.22C96.47 82.48 92.73 88.95 88.28 92.46C85.35 94.77 82.85 95.18 81.44 95.18ZM75.55 147.89C84.66 155.73 95.68 159.68 108.4 159.68C111.7 159.68 115.11 159.42 118.63 158.88C127.21 157.62 135.7 154.28 143.18 149.22C155.81 140.67 165.51 127.49 172.02 110.03C172.21 109.51 171.95 108.93 171.43 108.74C170.91 108.55 170.33 108.81 170.14 109.33C156.41 146.14 131.79 154.93 118.33 156.9C101.8 159.38 87.85 155.84 76.85 146.37C62.31 133.86 57.61 114.94 57.61 107.74C57.61 107.19 57.16 106.74 56.61 106.74C56.06 106.74 55.61 107.19 55.61 107.74C55.61 115.24 60.49 134.93 75.55 147.89ZM171.02 57.06C171.07 52.14 172.88 48.23 175.55 45.14C178.71 48.6 181.29 52.39 182.48 56.3C183.74 60.35 183.4 64.22 181.48 67.81C180.47 69.71 179.18 70.47 177.66 70.08C174.47 69.26 170.95 63.71 171.02 57.06Z" fill="#00ABC9"/>
</svg>
