<svg width="224" height="224" viewBox="0 0 224 224" fill="none" xmlns="http://www.w3.org/2000/svg">
<path opacity="0.1" d="M103.344 202.656C71.9837 200.78 43.327 192.022 38.2476 150.918C32.4063 103.648 98.7291 105.248 111.72 62.7118C125.857 16.4202 199.291 15.5585 202.927 68.1702C206.383 118.44 148.092 198.802 103.344 202.656Z" fill="#00ABC8"/>
<path d="M129.934 193.896C129.904 193.896 129.884 193.896 129.854 193.896C129.774 193.886 129.704 193.866 129.625 193.835C113.16 187.522 93.6282 168.167 83.4577 157.181C71.4788 144.26 60.6387 130.29 53.955 119.376C48.7098 118.989 42.056 118.592 33.5439 118.276C16.4498 117.634 14.2301 122.995 12.5963 124.66C7.60091 129.751 3.99426 139.393 3.96429 139.444C3.75448 139.963 3.17502 140.218 2.66549 140.014C2.15597 139.81 1.9062 139.21 2.10602 138.69C2.20592 138.446 4.98334 128.407 11.5972 122.624C13.3438 121.096 15.8504 115.578 33.6139 116.24C41.3966 116.525 47.6408 116.881 52.6761 117.248C51.5172 115.262 50.5182 113.399 49.6989 111.678C43.125 97.953 40.0479 76.3676 48.0305 59.1196C53.5353 47.217 63.2765 39.4788 76.9937 36.1188C107.835 28.5843 122.242 45.8017 125.618 50.6992C127.287 48.6221 131.263 44.0708 137.048 39.7741C147.228 32.2192 158.138 29.2257 168.608 31.0788C186.662 34.2963 198.63 45.7814 202.307 63.4468C205.784 80.145 200.738 104.907 188.8 113.063C171.566 124.833 154.372 114.865 147.898 111.108C146.938 110.548 146.029 110.029 145.74 109.947C144.661 109.621 142.353 114.315 141.484 116.077C140.734 117.594 140.145 118.795 139.605 119.426C139.276 119.824 138.796 119.986 138.336 119.874C137.098 119.569 136.528 117.665 134.82 110.293C134.22 107.717 133.521 104.683 132.902 102.83C131.982 106.078 130.554 113.796 129.265 120.75C126.068 138.049 123.63 150.501 121.342 153.108C120.014 154.625 118.685 155.216 117.386 154.869C114.809 154.177 113.809 149.87 113.71 149.381C108.345 120.272 101.721 96.3443 98.9233 96.0083C96.086 97.7799 90.8808 103.909 86.2951 109.326C81.0699 115.486 77.763 119.304 75.9147 120.19C73.8067 121.198 71.7186 120.994 65.5543 120.394C63.2365 120.17 60.2791 119.885 56.4726 119.579C71.4587 143.232 106.476 182.564 130.014 191.819C133.461 189.956 162.944 161.783 181.626 129.069C182.136 127.918 182.655 126.747 183.135 125.648C186.122 118.846 187.92 114.753 191.437 113.083C192.786 112.442 197.302 112.106 206.553 111.474C210.48 111.474 215.975 111.474 221.171 108.389C221.68 108.176 222.26 108.43 222.469 108.949C222.679 109.469 222.429 110.059 221.92 110.273C215.476 113.501 209.981 113.501 206.683 113.501C199.829 113.969 193.355 114.417 192.276 114.926C189.439 116.27 187.751 120.119 184.953 126.482C184.474 127.582 183.954 128.753 183.395 130.005C172.974 148.251 159.757 164.349 150.495 174.642C143.751 182.146 132.302 193.896 129.934 193.896ZM98.9433 93.9821C99.233 93.9821 99.5228 94.0432 99.8025 94.1756C105.807 96.9043 114.079 140.309 115.678 148.984C115.997 150.43 116.897 152.64 117.906 152.904C118.545 153.077 119.324 152.375 119.864 151.754C121.952 149.371 125.049 132.612 127.307 120.384C130.774 101.608 131.333 99.9181 132.622 99.6025C133.071 99.4905 133.531 99.6737 133.831 100.061C134.74 101.282 135.549 104.561 136.768 109.825C137.347 112.34 138.107 115.588 138.676 117.166C138.986 116.596 139.346 115.873 139.695 115.16C141.524 111.454 143.612 107.249 146.259 107.982C146.799 108.135 147.578 108.583 148.887 109.336C155.071 112.92 171.486 122.44 187.681 111.362C197.002 104.999 204.395 83.3319 200.339 63.8643C197.881 51.9923 190.308 37.0148 168.269 33.0948C144.241 28.8083 126.528 52.8068 126.348 53.0512C126.148 53.3261 125.808 53.489 125.479 53.4585C125.139 53.4381 124.839 53.2447 124.669 52.9392C124.15 51.9923 111.512 29.7756 77.4533 38.1043C64.3654 41.3014 55.0739 48.6628 49.8388 59.985C42.1859 76.5407 45.333 97.9225 51.4972 110.782C52.4464 112.768 53.6752 114.997 55.1539 117.431C59.6996 117.777 63.1266 118.113 65.7541 118.368C71.5188 118.928 73.457 119.121 75.0755 118.347C76.644 117.604 80.7802 112.717 84.7965 107.992C89.7119 102.199 94.7972 96.2017 97.9043 94.2774C98.234 94.0839 98.5836 93.9821 98.9433 93.9821Z" fill="#00ABC9"/>
</svg>
