
<svg width="16" height="16" viewBox="0 0 16 16" fill="none" xmlns="http://www.w3.org/2000/svg">
  <path d="M7.33325 10.72C7.33325 11.0866 7.63325 11.3866 7.99992 11.3866C8.36659 11.3866 8.66659 11.0866 8.66659 10.72V7.38664C8.66659 7.01997 8.36659 6.71997 7.99992 6.71997C7.63325 6.71997 7.33325 7.01997 7.33325 7.38664V10.72Z" fill="#FF6900"/>
  <path d="M7.99992 5.99984C8.36811 5.99984 8.66659 5.70136 8.66659 5.33317C8.66659 4.96498 8.36811 4.6665 7.99992 4.6665C7.63173 4.6665 7.33325 4.96498 7.33325 5.33317C7.33325 5.70136 7.63173 5.99984 7.99992 5.99984Z" fill="#FF6900"/>
  <path d="M7.99992 1.33325C6.75992 1.33325 5.55325 1.67325 4.50659 2.31992C4.19325 2.51325 4.09325 2.92659 4.28659 3.23992C4.47992 3.55325 4.89325 3.65325 5.20659 3.45992C6.04659 2.93992 7.01325 2.66659 7.99992 2.66659C10.9399 2.66659 13.3333 5.05992 13.3333 7.99992C13.3333 10.9399 10.9399 13.3333 7.99992 13.3333C5.05992 13.3333 2.66659 10.9399 2.66659 7.99992C2.66659 7.29325 2.79992 6.61325 3.06659 5.96659C3.20659 5.62659 3.04659 5.23992 2.70659 5.09325C2.36659 4.95325 1.97325 5.11325 1.83325 5.45325C1.49992 6.26659 1.33325 7.11992 1.33325 7.99992C1.33325 11.6733 4.32659 14.6666 7.99992 14.6666C11.6733 14.6666 14.6666 11.6733 14.6666 7.99992C14.6666 4.32659 11.6733 1.33325 7.99992 1.33325Z" fill="#FF6900"/>
</svg>