
<svg width="24" height="24" viewBox="0 0 24 24" fill="none" xmlns="http://www.w3.org/2000/svg">
  <g clip-path="url(#clip0)">
  <path d="M14.84 2.13009C13.94 1.85009 13 2.02009 12.23 2.58009C11.46 3.15009 11 4.06009 11 5.02009V10.6901H8C7.45 10.6901 7 11.1401 7 11.6901C7 12.2401 7.45 12.6901 8 12.6901H11V15.6901C11 16.2401 11.45 16.6901 12 16.6901C12.55 16.6901 13 16.2401 13 15.6901V12.6901H16C16.55 12.6901 17 12.2401 17 11.6901C17 11.1401 16.55 10.6901 16 10.6901H13V5.02009C13 4.69009 13.15 4.39009 13.42 4.19009C13.56 4.08009 13.86 3.92009 14.25 4.04009C17.03 4.90009 20 7.36009 20 11.7101C20 16.1101 16.41 19.6901 12 19.6901C8.15 19.6901 4 16.6401 4 11.7101C4 8.59009 5.86 6.48009 6.43 5.91009C6.82 5.52009 6.82 4.89009 6.43 4.50009C6.03 4.10009 5.4 4.10009 5.01 4.49009C3.12 6.39009 2 9.09009 2 11.7101C2 17.8701 7.19 21.6901 12 21.6901C17.51 21.6901 22 17.2101 22 11.7101C22 6.28009 18.3 3.20009 14.84 2.13009Z" fill="#00B0CA"/>
  </g>
  <defs>
  <clipPath id="clip0">
  <rect x="2" y="2" width="20" height="19.68" fill="white"/>
  </clipPath>
  </defs>
</svg>