
<svg width="24" height="24" viewBox="0 0 24 24" fill="none" xmlns="http://www.w3.org/2000/svg">
  <g clip-path="url(#clip0)">
  <path d="M14.84 2.1296C13.94 1.8496 13 2.0196 12.23 2.5796C11.46 3.1496 11 4.0596 11 5.0196V10.6896H8C7.45 10.6896 7 11.1396 7 11.6896C7 12.2396 7.45 12.6896 8 12.6896H11V15.6896C11 16.2396 11.45 16.6896 12 16.6896C12.55 16.6896 13 16.2396 13 15.6896V12.6896H16C16.55 12.6896 17 12.2396 17 11.6896C17 11.1396 16.55 10.6896 16 10.6896H13V5.0196C13 4.6896 13.15 4.3896 13.42 4.1896C13.56 4.0796 13.86 3.9196 14.25 4.0396C17.03 4.8996 20 7.3596 20 11.7096C20 16.1096 16.41 19.6896 12 19.6896C8.15 19.6896 4 16.6396 4 11.7096C4 8.5896 5.86 6.4796 6.43 5.9096C6.82 5.5196 6.82 4.8896 6.43 4.4996C6.03 4.0996 5.4 4.0996 5.01 4.4896C3.12 6.3896 2 9.0896 2 11.7096C2 17.8696 7.19 21.6896 12 21.6896C17.51 21.6896 22 17.2096 22 11.7096C22 6.2796 18.3 3.1996 14.84 2.1296Z" fill="#B8BCD5"/>
  </g>
  <defs>
  <clipPath id="clip0">
  <rect x="2" y="2" width="20" height="19.68" fill="white"/>
  </clipPath>
  </defs>
</svg>              