
<svg width="24" height="24" viewBox="0 0 24 24" fill="none" xmlns="http://www.w3.org/2000/svg">
  <g clip-path="url(#clip0)">
  <path d="M21.41 3.36039C20.83 2.59039 19.95 2.15039 18.99 2.15039H16.06C15.51 2.15039 15.06 2.60039 15.06 3.15039C15.06 3.70039 15.51 4.15039 16.06 4.15039H18.99C19.31 4.15039 19.61 4.30039 19.8 4.56039C19.99 4.81039 20.05 5.13039 19.96 5.43039C18.98 8.74039 15.66 11.1504 12.06 11.1504C10.25 11.1504 8.53 10.5604 7.11 9.44039C6.68 9.10039 6.05 9.17039 5.71 9.61039C5.37 10.0504 5.44 10.6704 5.88 11.0104C7.39 12.2004 9.17 12.9104 11.07 13.1004V17.6904C11.07 19.0504 9.96 20.1604 8.6 20.1604C7.39 20.1604 6.39 19.2804 6.18 18.1304C6.86 17.7304 7.33 17.0004 7.33 16.1604C7.33 14.9004 6.31 13.8704 5.04 13.8704C3.78 13.8704 2.75 14.8904 2.75 16.1604C2.75 17.1204 3.35 17.9504 4.19 18.2804C4.48 20.4604 6.34 22.1604 8.6 22.1604C11.06 22.1604 13.07 20.1604 13.07 17.6904V13.0904C17.14 12.6804 20.75 9.83039 21.89 6.00039C22.15 5.08039 21.97 4.12039 21.41 3.36039Z" fill="#B8BCD5"/>
  <path d="M3.25021 7.87C3.43021 8.2 3.77021 8.39 4.13021 8.39C4.29021 8.39 4.45021 8.35 4.60021 8.27C5.09021 8.01 5.27021 7.4 5.01021 6.92C4.90021 6.71 4.74021 6.47 4.58021 6.22C4.37021 5.91 4.11021 5.51 4.04021 5.28C3.95021 4.98 4.01021 4.66 4.20021 4.41C4.39021 4.15 4.69021 4 4.96021 4L8.01021 4.15C8.55021 4.18 9.03021 3.75 9.06021 3.2C9.09021 2.65 8.66021 2.18 8.11021 2.15L5.01021 2C4.05021 2 3.17021 2.44 2.60021 3.21C2.03021 3.98 1.86021 4.94 2.12021 5.84C2.27021 6.36 2.61021 6.87 2.90021 7.32C3.04021 7.51 3.16021 7.7 3.25021 7.87Z" fill="#B8BCD5"/>
  </g>
  <defs>
  <clipPath id="clip0">
  <rect x="2" y="2" width="20" height="20.15" fill="white"/>
  </clipPath>
  </defs>
</svg>