<svg width="224" height="224" viewBox="0 0 224 224" fill="none" xmlns="http://www.w3.org/2000/svg">
<path opacity="0.1" d="M3.1515 113.889C13.8952 93.5219 98.4985 87.2337 137.05 60.7125C168.857 38.8329 226.9 70.2917 223.887 112.193C219.773 169.326 195.647 198.488 143.347 205.26C93.3728 211.713 -20.3191 158.394 3.1515 113.889Z" fill="#00ABC8"/>
<path fill-rule="evenodd" clip-rule="evenodd" d="M115.533 186.256C68.6656 186.256 30.5449 148.135 30.5449 101.279C30.5449 54.4219 68.6656 16.291 115.533 16.291C129.096 16.291 142.063 19.3893 154.064 25.5055C154.125 25.5232 154.185 25.5469 154.244 25.5768C154.997 25.9637 167.49 32.5412 176.725 41.9492C180.594 38.131 186.653 34.5674 196.111 32.3579C196.661 32.2357 197.211 32.5717 197.333 33.1216C197.466 33.6714 197.119 34.2212 196.57 34.3434C192.039 35.4023 183.791 37.9783 178.13 43.4459C181.551 47.1928 184.372 51.347 185.726 55.7048C187.172 60.3681 186.775 64.8379 184.555 68.9921C183.343 71.2525 181.592 72.4743 179.627 72.4743C179.21 72.4743 178.792 72.4234 178.365 72.3114C174.292 71.2728 169.985 64.8888 170.066 57.059C170.097 54.0248 170.891 48.6386 175.32 43.4663C166.712 34.6948 154.962 28.2699 153.464 27.472C153.404 27.4537 153.345 27.4296 153.287 27.3994C141.537 21.3819 128.83 18.3274 115.533 18.3274C69.7958 18.3274 32.5813 55.5419 32.5813 101.279C32.5813 147.015 69.7958 184.23 115.533 184.23C161.269 184.23 198.484 147.015 198.484 101.279C198.484 100.719 198.942 100.26 199.502 100.26C200.062 100.26 200.52 100.719 200.52 101.279C200.51 148.135 162.389 186.256 115.533 186.256ZM128.087 104.527C124.615 104.527 121.906 103.335 120.063 100.983C115.095 94.6605 117.559 81.4037 119.85 71.9856C119.982 71.4357 120.532 71.0997 121.082 71.2321C121.631 71.3645 121.967 71.9143 121.835 72.4641C120.573 77.6568 116.744 93.4488 121.672 99.7208C123.138 101.584 125.236 102.49 128.097 102.49C140.244 102.49 149.367 86.8307 154.264 78.4205L154.427 78.1415L154.428 78.1406L154.429 78.1393L154.429 78.1384C154.995 77.1705 155.51 76.2895 155.975 75.5187C156.27 75.0401 156.891 74.8874 157.37 75.1827C157.848 75.4779 158.001 76.099 157.706 76.5776C157.232 77.3542 156.715 78.2453 156.145 79.2263L156.015 79.4488L156.006 79.4657C150.902 88.2261 141.406 104.527 128.087 104.527ZM80.8838 95.8925C80.3202 95.8925 79.9258 95.8228 79.7495 95.7917L79.7434 95.7906C77.2285 95.2612 71.7609 92.0845 75.2227 74.2256C75.3347 73.6757 75.8642 73.3194 76.414 73.4212C76.9638 73.523 77.3304 74.0626 77.2184 74.6125C74.6729 87.7572 77.0656 93.1434 80.1609 93.8052C80.2627 93.8256 90.0474 95.6277 97.2358 72.9223C97.4089 72.3826 97.9791 72.0874 98.5085 72.2605C99.0482 72.4336 99.3434 73.0037 99.1704 73.5332C96.1871 82.9616 92.3791 89.5492 87.8482 93.123C84.8649 95.475 82.3194 95.8925 80.8838 95.8925ZM75.8947 156.464C75.9966 156.495 76.0882 156.505 76.19 156.505C76.6278 156.505 77.0249 156.23 77.1573 155.792C84.1827 132.679 99.0482 126.306 107.285 124.554C117.447 122.355 126.244 123.984 133.422 129.401C142.799 136.467 146.414 147.738 146.699 152.086C146.73 152.646 147.208 153.063 147.778 153.033C148.338 153.002 148.766 152.514 148.725 151.954C148.338 146.028 143.716 134.614 134.644 127.772C126.967 121.978 117.62 120.227 106.858 122.559C85.8933 127.008 77.7478 146.863 75.2126 155.191C75.0496 155.731 75.3551 156.301 75.8947 156.464ZM172.103 57.0794C172.154 52.0699 173.997 48.0888 176.715 44.9426C179.922 48.4656 182.549 52.3245 183.771 56.3056C185.054 60.4292 184.708 64.3696 182.753 68.0248C181.725 69.9594 180.411 70.7332 178.863 70.3361C175.615 69.5012 172.031 63.8503 172.103 57.0794Z" fill="#00ABC9"/>
</svg>
