
<svg width="24" height="24" viewBox="0 0 24 24" fill="none" xmlns="http://www.w3.org/2000/svg">
  <g clip-path="url(#clip0)">
  <path d="M10.7937 2C11.5739 2 12.3549 2 13.135 2C13.1501 2.06589 13.1995 2.07423 13.2572 2.0809C17.4358 2.5563 20.9339 5.77898 21.761 9.89574C21.8463 10.3186 21.8271 10.7615 21.9995 11.1676C21.9995 11.6956 21.9995 12.2235 21.9995 12.7506C21.8321 13.045 21.8698 13.3811 21.8095 13.6972C20.6276 19.8766 14.2165 23.4479 8.35201 21.1193C7.45384 20.7623 6.6963 20.7173 5.82156 20.9975C4.62289 21.3811 3.37398 21.5947 2.18033 22.0008C2.12425 22.0008 2.069 22.0008 2.01292 22.0008C1.97525 21.8724 2.03217 21.7573 2.06481 21.638C2.44149 20.2635 2.79557 18.8816 3.20406 17.5171C3.33715 17.0717 3.29781 16.7198 3.09106 16.3086C0.27182 10.7056 3.39826 3.88991 9.48875 2.30776C9.92235 2.19516 10.3811 2.19349 10.7937 2ZM4.38683 19.6222C5.37206 19.367 6.27442 19.1451 7.16924 18.8949C7.40697 18.8282 7.58359 18.8574 7.79202 18.9791C9.07607 19.7281 10.4614 20.1443 11.9547 20.1509C17.2098 20.1726 21.1281 15.3803 20.081 10.2193C19.3954 6.84153 16.4489 4.11843 13.0831 3.75229C9.41425 3.35196 5.99149 5.20851 4.53583 8.42952C3.32292 11.1126 3.49117 13.7348 5.01463 16.2585C5.16279 16.5037 5.19962 16.7148 5.11592 16.9933C4.86229 17.8399 4.6413 18.6947 4.38683 19.6222Z" fill="#00B0CA"/>
  <path d="M14.5811 16.6855C13.5674 16.6571 12.6483 16.2743 11.7836 15.8147C9.8115 14.7655 8.35668 13.1784 7.32876 11.2184C6.64572 9.9165 6.83992 8.66629 7.76655 7.67964C8.07793 7.34853 8.85222 7.18506 9.2356 7.37105C9.39966 7.45028 9.46663 7.60791 9.53108 7.75887C9.79057 8.37022 10.0367 8.9874 10.3003 9.59707C10.3866 9.7964 10.3732 9.97655 10.2694 10.1525C10.1857 10.2952 10.0902 10.4328 9.98561 10.5612C9.43984 11.2318 9.44235 11.2276 9.95296 11.9474C10.7205 13.0291 11.7183 13.8156 12.9471 14.3227C13.2091 14.4311 13.3933 14.4036 13.5641 14.1792C13.7909 13.8815 14.0337 13.5954 14.263 13.2985C14.3986 13.1225 14.5484 13.0566 14.7686 13.1442C15.4927 13.4303 16.1791 13.7939 16.8747 14.1384C16.9944 14.1976 17.068 14.2935 17.0638 14.4353C17.0463 14.9832 16.9835 15.5162 16.5482 15.9207C15.9949 16.4344 15.3512 16.7155 14.5811 16.6855Z" fill="#00B0CA"/>
  </g>
  <defs>
  <clipPath id="clip0">
  <rect x="2" y="2" width="20" height="20" fill="white"/>
  </clipPath>
  </defs>
</svg>