<?xml version="1.0" standalone="no"?>
<!DOCTYPE svg PUBLIC "-//W3C//DTD SVG 1.1//EN" "http://www.w3.org/Graphics/SVG/1.1/DTD/svg11.dtd" >
<svg xmlns="http://www.w3.org/2000/svg">
<metadata>Generated by IcoMoon</metadata>
<defs>
<font id="icomoon" horiz-adv-x="1024">
<font-face units-per-em="1024" ascent="960" descent="-64" />
<missing-glyph horiz-adv-x="1024" />
<glyph unicode="&#x20;" horiz-adv-x="512" d="" />
<glyph unicode="&#xe900;" glyph-name="arroba" d="M677.294 946.094h-330.58c-183.596 0-332.801-149.205-332.801-332.8v-330.028c0-183.593 149.205-332.8 332.801-332.8h330.025c30.508 0 55.468 24.96 55.468 55.468s-24.96 55.468-55.468 55.468h-330.025c-122.583 0-221.868 99.284-221.868 221.865v330.028c0 122.581 99.285 221.866 221.868 221.866h330.025c122.583 0 221.868-99.285 221.868-221.866v-331.692h-91.52c-36.608 0-67.116 29.952-67.116 66.56v266.24c0 61.015-49.92 110.934-110.932 110.934h-124.244c-122.583 0-221.868-99.286-221.868-221.866v-110.932c0-122.028 99.284-221.868 221.868-221.868h13.312c59.348 0 113.705 23.296 154.196 62.676 32.724-38.272 80.428-62.676 134.228-62.676h106.496c53.248 0 96.512 43.264 96.512 96.512v346.112c0.556 183.040-149.204 332.8-332.244 332.8zM518.659 281.603h-13.312c-61.012 0-110.932 49.92-110.932 110.935v110.932c0 61.012 49.92 110.932 110.932 110.932h124.247v-239.060l-4.992-16.084c-14.423-46.592-57.132-77.655-105.943-77.655z" />
<glyph unicode="&#xe901;" glyph-name="Alerta" d="M554.663 622.076c0 23.467-19.2 42.667-42.667 42.667-23.465 0-42.665-19.2-42.665-42.667v-213.333c0-23.467 19.2-42.667 42.665-42.667 23.467 0 42.667 19.2 42.667 42.667v213.333zM511.996 319.996c-23.564 0-42.665-19.102-42.665-42.665s19.102-42.667 42.665-42.667c23.566 0 42.667 19.104 42.667 42.667s-19.102 42.665-42.667 42.665zM511.994 874.663c-79.36 0-156.587-21.76-223.575-63.147-20.053-12.373-26.453-38.827-14.080-58.881 12.375-20.053 38.827-26.453 58.88-14.080 53.76 33.281 115.627 50.774 178.775 50.774 188.16 0 341.333-153.174 341.333-341.334s-153.173-341.333-341.333-341.333c-188.16 0-341.334 153.173-341.334 341.333 0 45.227 8.533 88.747 25.6 130.135 8.959 21.76-1.28 46.505-23.040 55.893-21.76 8.96-46.933-1.28-55.893-23.040-21.333-52.053-32-106.667-32-162.987 0-235.093 191.572-426.665 426.667-426.665 235.093 0 426.665 191.573 426.665 426.665 0 235.095-191.573 426.667-426.665 426.667z" />
<glyph unicode="&#xe902;" glyph-name="Anterior" d="M389.583 448.217l233.667 243.058c21.595 22.463 21.595 58.75 0 81.212s-56.478 22.463-78.072 0l-272.981-283.952c-21.597-22.463-21.597-58.748 0-81.211l272.981-283.953c11.073-11.518 24.917-16.703 39.312-16.703 14.397 0 28.241 5.76 39.314 16.703 21.597 22.463 21.597 58.75 0 81.211l-234.22 243.635z" />
<glyph unicode="&#xe903;" glyph-name="Calendario" d="M851.623 789.335h-119.893v42.667c0 23.467-19.2 42.667-42.667 42.667s-42.667-19.2-42.667-42.667v-42.667h-256v42.667c0 23.467-19.2 42.667-42.665 42.667-23.467 0-42.667-19.2-42.667-42.667v-42.667h-143.787c-63.147 0-118.613-52.48-118.613-112.213 0-23.467 19.2-42.667 42.667-42.667s42.667 19.2 42.667 42.667c0 8.533 12.373 26.88 33.28 26.88h143.787v-48.215c0-23.465 19.2-42.665 42.667-42.665 23.465 0 42.665 19.2 42.665 42.665v48.215h256v-48.215c0-23.465 19.2-42.665 42.667-42.665s42.667 19.2 42.667 42.665v48.215h119.893c25.6 0 44.373-14.080 44.373-26.88v-543.147c0-12.8-18.773-26.88-44.373-26.88h-679.253c-25.6 0-44.373 14.080-44.373 26.88v324.267h623.359c23.467 0 42.667 19.2 42.667 42.665 0 23.467-19.2 42.667-42.667 42.667h-666.026c-23.467 0-42.667-19.2-42.667-42.667v-367.36c0-61.865 58.027-112.213 129.707-112.213h679.681c71.253 0 129.705 50.347 129.705 112.213v543.575c-0.425 61.865-58.453 112.213-130.133 112.213z" />
<glyph unicode="&#xe904;" glyph-name="Campana" d="M832.274 432.246v123.016c0 176.104-143.592 319.406-320.055 319.406-174.732 0-317.891-142.006-320.053-315.954 0-11.223-0.432-40.572-0.432-126.468-60.551-12.085-106.396-66.038-106.396-129.92 0-73.377 59.686-132.943 133.213-132.943h143.159c1.729-81.577 68.334-147.617 150.51-147.617s148.783 66.040 150.512 147.617h143.159c73.527 0 133.213 59.565 133.213 132.943-0.433 63.882-46.279 117.835-106.829 129.92zM512.219 108.093c-34.599 0-62.281 27.193-64.010 61.29h128.022c-1.731-34.097-29.844-61.29-64.012-61.29zM805.459 255.711h-586.91c-25.951 0-46.712 20.718-46.712 46.616s20.76 46.616 46.712 46.616h162.188c23.788 0 43.252 19.424 43.252 43.164s-19.464 43.164-43.252 43.164h-102.502c0 47.911 0 122.583 0 123.014 1.729 127.33 105.531 230.491 233.984 230.491 128.888 0 233.555-104.454 233.555-233.081 0-0.863 0-160.134 0-160.134 0-25.899 20.76-46.618 46.71-46.618h12.975c25.951 0 46.71-20.718 46.71-46.616s-20.76-46.616-46.71-46.616z" />
<glyph unicode="&#xe905;" glyph-name="Carpeta" d="M853.331 21.333h-682.667c-70.4 0-128 57.173-128 128v407.893c0 23.467 19.2 42.667 42.667 42.667s42.667-19.2 42.667-42.667v-407.893c0-23.467 19.2-42.667 42.667-42.667h682.667c23.465 0 42.665 19.2 42.665 42.667v426.667c0 23.465-19.2 42.665-42.665 42.665h-285.015c-17.92 0-35.84 12.8-41.813 29.867l-35.84 111.36c-5.973 17.493-22.187 29.44-40.533 29.44h-279.467c-23.467 0-42.667-19.2-42.667-42.667 0-23.465-19.2-42.665-42.667-42.665s-42.667 19.2-42.667 42.665c0 70.401 57.173 128.001 128 128.001h279.467c55.465 0 104.533-35.413 121.6-88.32l26.453-82.346h255.147c70.4 0 128-57.175 128-128v-426.667c0-70.827-57.175-128-128-128z" />
<glyph unicode="&#xe906;" glyph-name="Check" d="M320.851 71.68c-11.947 0-23.040 4.693-31.147 13.227l-235.52 250.025c-16.213 17.067-15.36 43.947 1.707 60.16 17.067 16.215 44.373 15.36 60.16-1.705l203.946-216.32 585.815 641.279c15.785 17.493 42.665 18.347 60.16 2.56 17.493-15.787 18.773-42.667 2.56-60.159l-616.107-675.415c-8.107-8.533-19.2-13.653-31.573-13.653 0.425 0 0 0 0 0z" />
<glyph unicode="&#xe907;" glyph-name="Clinica" d="M612.689 644.267h-58.027v58.027c0 23.467-19.2 42.667-42.667 42.667-23.465 0-42.665-19.2-42.665-42.667v-58.027h-58.027c-23.467 0-42.667-19.2-42.667-42.665 0-23.467 19.2-42.667 42.667-42.667h58.027v-58.027c0-23.465 19.2-42.665 42.665-42.665 23.467 0 42.667 19.2 42.667 42.665v58.027h58.027c23.465 0 42.665 19.2 42.665 42.667 0 23.465-19.2 42.665-42.665 42.665zM938.663 64v553.387c0 70.4-57.173 128-128 128h-5.547v43.947c0 70.4-57.173 128-128 128h-330.24c-70.4 0-128-57.173-128-128v-44.374h-5.545c-70.401 0-128.001-57.173-128.001-128v-552.96c-23.467 0-42.667-19.2-42.667-42.665 0-23.467 19.2-42.667 42.667-42.667h853.333c23.467 0 42.667 19.2 42.667 42.667 0 23.465-19.2 42.665-42.667 42.665zM810.663 659.627c23.467 0 42.667-19.2 42.667-42.667v-552.96h-48.215v595.627h5.547zM170.663 617.387c0 23.467 19.2 42.667 42.667 42.667h5.545v-596.055h-48.213v553.387zM304.211 64v725.334c0 23.467 19.2 42.667 42.665 42.667h330.667c23.467 0 42.667-19.2 42.667-42.667v-725.334h-416z" />
<glyph unicode="&#xe908;" glyph-name="CloseEyes" d="M150.503 862.188c-17.067 16.64-43.947 16.64-60.587 0s-16.64-43.52 0-60.16l123.733-123.732c-74.666-56.32-133.973-132.267-168.106-219.307-3.84-10.24-3.84-21.333 0-31.147 75.947-193.28 258.986-317.865 466.346-317.865 75.947 0 150.615 18.345 218.455 51.625l116.053-116.053c8.533-8.533 19.2-12.373 30.293-12.373s21.76 4.265 30.295 12.373c16.638 16.64 16.638 43.52 0 60.16l-756.481 756.48zM511.89 195.308c-166.4 0-313.6 96.853-380.586 248.32 30.72 69.547 81.494 129.28 144.214 172.8l107.947-107.947c-9.815-19.625-16.215-41.385-16.215-64.853 0-79.787 64.427-144.64 144.64-144.64 23.467 0 45.227 5.973 64.855 16.213l89.6-89.6c-48.64-20.053-101.12-30.293-154.455-30.293zM978.237 458.988c-75.947 193.28-258.987 317.867-466.347 317.867-22.187 0-44.373-1.28-66.133-4.267-23.467-2.987-39.68-24.32-36.695-47.787 2.987-23.465 24.32-39.68 47.787-36.693 17.92 2.56 36.267 3.413 54.613 3.413 166.4 0 313.6-96.853 380.587-248.32-14.507-32.425-32.853-63.145-55.040-90.88-14.507-18.345-11.52-45.225 6.827-60.16 7.68-6.4 17.065-9.385 26.453-9.385 12.373 0 25.173 5.545 33.28 16.213 31.147 38.827 55.893 82.347 74.24 128.427 4.267 10.24 4.267 21.333 0.427 31.573zM506.77 587.414c1.707 0.215 3.415 0.427 5.12 0.427 79.787 0 144.64-64.427 144.64-144.64 0-3.413-0.425-6.827-0.853-10.24l-154.027 154.027c1.707 0 3.415 0.213 5.12 0.425z" />
<glyph unicode="&#xe909;" glyph-name="Compartir" d="M768 273.922c-32.427 0-61.44-12.8-83.627-32.855l-304.213 177.067c2.133 9.813 3.84 19.627 3.84 29.867s-1.707 20.053-3.84 29.865l300.8 175.36c23.040-21.333 53.333-34.56 87.040-34.56 70.827 0 128 57.175 128 128 0 70.828-57.173 128.001-128 128.001s-128-57.173-128-128.001c0-10.24 1.707-20.053 3.84-29.865l-300.8-175.36c-23.040 21.333-53.333 34.56-87.040 34.56-70.827 0-128-57.175-128-128 0-70.827 57.173-128 128-128 33.707 0 64 13.225 87.040 34.56l303.787-177.495c-2.135-8.96-3.415-18.345-3.415-27.733 0-68.693 55.895-124.587 124.587-124.587s124.587 55.895 124.587 124.587c0 68.693-55.895 124.587-124.587 124.587z" />
<glyph unicode="&#xe90a;" glyph-name="Cruz" d="M633.177 869.119c-38.4 11.947-78.507 4.693-111.36-19.2-32.853-24.32-52.48-63.147-52.48-104.107v-241.92h-128c-23.467 0-42.667-19.2-42.667-42.667 0-23.465 19.2-42.665 42.667-42.665h128v-128c0-23.467 19.2-42.667 42.667-42.667 23.465 0 42.665 19.2 42.665 42.667v128h128c23.467 0 42.667 19.2 42.667 42.665 0 23.467-19.2 42.667-42.667 42.667h-128v241.92c0 14.080 6.4 26.88 17.92 35.413 5.975 4.693 18.775 11.52 35.415 6.4 118.613-36.693 245.333-141.653 245.333-327.253 0-187.733-153.173-340.48-341.333-340.48-164.267 0-341.334 130.133-341.334 340.48 0 133.12 79.359 223.147 103.679 247.467 16.64 16.64 16.64 43.52 0 60.159-17.065 17.067-43.945 17.067-60.585 0.427-80.641-81.066-128.427-196.266-128.427-308.053 0-262.827 221.44-425.813 426.667-425.813 235.093 0 426.665 191.145 426.665 425.813 0 231.68-157.865 363.093-305.493 408.747z" />
<glyph unicode="&#xe90b;" glyph-name="Doctor" d="M913.497 816.64c-24.747 32.853-62.293 51.627-103.253 51.627h-125.015c-23.465 0-42.665-19.2-42.665-42.667s19.2-42.667 42.665-42.667h125.015c13.653 0 26.453-6.4 34.56-17.493 8.105-10.668 10.665-24.32 6.825-37.12-41.813-141.227-183.465-244.053-337.065-244.053-77.227 0-150.615 25.173-211.2 72.96-18.347 14.505-45.227 11.52-59.735-7.255-14.505-18.773-11.52-45.225 7.255-59.733 64.425-50.773 140.373-81.067 221.44-89.173v-195.84c0-58.027-47.36-105.387-105.387-105.387-51.627 0-94.293 37.547-103.253 86.613 29.013 17.067 49.065 48.215 49.065 84.055 0 53.76-43.52 97.705-97.705 97.705-53.761 0-97.707-43.52-97.707-97.705 0-40.96 25.6-76.375 61.44-90.455 12.373-93.013 91.733-165.545 188.16-165.545 104.96 0 190.72 85.333 190.72 190.72v196.265c173.653 17.495 327.68 139.095 376.32 302.507 11.093 39.253 3.413 80.213-20.48 112.64zM138.674 624.213c7.68-14.080 22.187-22.187 37.547-22.187 6.827 0 13.653 1.707 20.053 5.12 20.906 11.095 28.586 37.12 17.494 57.6-4.693 8.96-11.52 19.2-18.347 29.867-8.96 13.227-20.053 30.293-23.040 40.107-3.84 12.8-1.28 26.453 6.827 37.119 8.107 11.093 20.908 17.493 32.428 17.493l130.133-6.4c23.040-1.28 43.52 17.067 44.8 40.533s-17.067 43.52-40.533 44.8l-132.267 6.4c-40.96 0-78.507-18.773-102.827-51.627s-31.573-73.814-20.48-112.214c6.4-22.185 20.907-43.945 33.28-63.145 5.973-8.107 11.093-16.215 14.933-23.467z" />
<glyph unicode="&#xe90c;" glyph-name="Equis" d="M584.643 435.519l238.507 238.507c16.64 16.64 16.64 43.52 0 60.16s-43.52 16.64-60.16 0l-238.507-238.507-238.507 238.507c-16.64 16.64-43.52 16.64-60.16 0s-16.64-43.52 0-60.16l238.507-238.507-238.507-238.507c-16.64-16.64-16.64-43.52 0-60.16 8.535-8.533 19.2-12.373 30.295-12.373 11.093 0 21.76 4.267 30.293 12.373l238.080 238.080 238.507-238.505c8.533-8.535 19.2-12.375 30.293-12.375s21.76 4.267 30.293 12.375c16.64 16.64 16.64 43.52 0 60.16l-238.933 238.933z" />
<glyph unicode="&#xe90d;" glyph-name="Error" d="M512.004 321.707c-23.467 0-42.667 19.2-42.667 42.667v113.92c0 23.467 19.2 42.667 42.667 42.667 23.465 0 42.665-19.2 42.665-42.667v-113.92c0-23.467-19.2-42.667-42.665-42.667zM512.004 190.297c23.564 0 42.665 19.102 42.665 42.667 0 23.564-19.102 42.665-42.665 42.665-23.566 0-42.667-19.102-42.667-42.665 0-23.566 19.102-42.667 42.667-42.667zM829.015 44.802h-634.026c-46.507 0-88.32 23.893-111.36 64.427-23.467 40.105-23.467 88.32 0 128.853l34.56 59.733c11.947 20.48 37.973 27.307 58.453 15.787 20.48-11.947 27.307-37.973 15.787-58.453l-34.56-59.735c-11.093-19.625-3.84-36.693 0-43.52 3.84-6.4 14.933-21.76 37.547-21.76h634.454c22.613 0 33.705 15.36 37.545 21.76s11.095 23.895 0 43.52l-317.865 549.12c-11.095 19.201-29.867 21.334-37.547 21.334s-26.453-2.133-37.547-21.759l-186.88-323.415c-11.52-20.053-37.973-27.305-58.025-15.36-20.48 11.947-27.307 37.975-15.787 58.455l186.88 323.413c23.040 40.107 64.853 64 111.36 64s88.32-23.893 111.36-64.427l317.013-549.546c23.040-40.107 23.040-88.32 0-128.855-23.040-39.68-64.853-63.573-111.36-63.573z" />
<glyph unicode="&#xe90e;" glyph-name="Estrella" d="M252.581 342.613l-197.121 192c-11.52 11.093-15.787 28.16-10.667 43.52s18.347 26.88 34.56 29.013l272.64 39.68 122.027 246.613c6.825 14.507 21.758 23.893 37.973 23.893 16.213 0 31.147-9.387 38.4-23.893l122.027-246.613 272.64-39.68c16.213-2.133 29.438-13.653 34.558-29.013 5.122-15.36 0.855-32.427-10.665-43.947l-197.12-192 46.507-271.36c2.56-16.213-3.84-32-17.067-41.813-13.227-9.815-30.293-10.667-44.8-3.415l-244.053 128-244.055-128c-6.4-2.56-13.225-4.265-20.053-4.265-8.96 0-17.493 2.56-25.173 8.105-13.227 9.387-19.627 25.6-17.067 41.815l46.507 271.36zM512.207 778.199l-103.595-209.367-231.408-33.678 167.066-162.725-39.67-231.471 207.823 108.999 207.273-108.709-39.548 230.754 167.446 163.098-231.788 33.733-103.597 209.367z" />
<glyph unicode="&#xe90f;" glyph-name="Estrella-Filled" d="M248.314 21.333c-8.96 0-17.493 2.56-25.173 8.105-13.227 9.387-19.627 25.6-17.067 41.815l46.507 271.36-197.121 192c-11.52 11.093-15.787 28.16-10.667 43.52s18.347 26.88 34.56 29.013l272.64 39.68 122.027 246.613c6.825 14.507 21.76 23.893 37.973 23.893s31.147-9.387 38.4-23.893l122.027-246.613 272.64-39.68c16.213-2.133 29.44-13.653 34.56-29.013s0.853-32.427-10.667-43.947l-197.12-192 46.507-271.36c2.56-16.213-3.84-32-17.067-41.813-13.227-9.815-30.293-10.667-44.8-3.415l-244.053 128-244.055-128c-6.4-2.56-13.225-4.265-20.053-4.265z" />
<glyph unicode="&#xe910;" glyph-name="Exit" d="M256.851 832.853h510.293c71.68 0 129.707-58.027 129.707-129.706v-510.295c0-71.253-58.027-129.705-129.707-129.705h-510.293c-71.253 0-129.707 58.025-129.707 129.705v127.575c0 23.465 19.2 42.665 42.667 42.665s42.667-19.2 42.667-42.665v-127.575c0-24.32 19.625-44.373 44.373-44.373h510.293c24.32 0 44.375 19.627 44.375 44.373v510.295c0 24.32-19.627 44.373-44.375 44.373h-510.293c-24.32 0-44.373-19.627-44.373-44.373v-128c0-23.467-19.2-42.667-42.667-42.667s-42.667 19.2-42.667 42.667v128c0 71.253 58.027 129.706 129.707 129.706zM169.811 405.333c-23.467 0-42.667 19.2-42.667 42.667s18.773 42.667 42.667 42.667h377.6l-97.28 98.56c-16.64 16.64-16.64 43.52 0 60.16s43.52 16.64 60.16 0l170.667-170.667c4.265-4.267 7.253-8.96 9.385-14.080 4.267-10.24 4.267-22.187 0-32.427-2.133-5.545-5.545-10.24-9.385-14.080l-170.667-170.665c-8.533-8.107-19.2-12.375-30.293-12.375-11.095 0-21.76 3.84-30.295 12.375-16.64 16.64-16.64 43.52 0 60.16l97.707 97.705h-377.6z" />
<glyph unicode="&#xe911;" glyph-name="Flecha-Down" d="M526.964 325.658c-8.43-7.542-21.504-7.542-29.934 0l-191.346 171.225c-14.566 13.036-4.953 36.452 14.968 36.452h382.69c19.921 0 29.535-23.416 14.966-36.452l-191.344-171.225z" />
<glyph unicode="&#xe912;" glyph-name="Flecha-Up" d="M497.036 527.677c8.43 7.542 21.504 7.542 29.934 0l191.346-171.227c14.566-13.034 4.953-36.45-14.968-36.45h-382.69c-19.921 0-29.535 23.416-14.966 36.45l191.344 171.227z" />
<glyph unicode="&#xe913;" glyph-name="Gps" d="M597.331 584.109c0 46.933-38.4 85.333-85.335 85.333-46.933 0-85.333-38.4-85.333-85.333s38.4-85.333 85.333-85.333c46.935 0 85.335 37.973 85.335 85.333zM511.996 874.668c-43.095 0-85.335-8.96-124.587-26.027-21.76-9.387-31.573-34.56-22.187-56.32 9.387-21.333 34.56-31.574 56.32-21.76 28.587 12.373 58.88 18.773 90.455 18.773 124.585 0 226.133-101.548 226.133-226.133 0-34.987-9.813-76.8-29.44-124.587-10.667-26.453-24.747-55.040-41.387-84.907-26.453-47.36-59.305-98.133-98.56-150.613-21.76-29.44-41.813-54.187-57.173-73.385-83.627 101.118-226.133 300.798-226.133 433.493 0 37.545 9.385 74.665 27.305 107.52 11.095 20.905 3.415 46.505-17.065 58.025-20.907 11.52-46.507 3.84-58.027-17.065-23.893-45.227-37.12-96.855-37.12-148.48 0-215.467 268.373-514.987 279.893-527.787 8.107-8.96 19.627-14.080 31.575-14.080 11.945 0 23.465 5.12 31.573 14.080 1.707 2.133 43.093 47.787 94.293 116.48 41.387 55.467 76.375 109.653 104.535 160.427 18.345 32.853 33.705 64.425 45.653 94.293 23.467 58.027 35.413 110.933 35.413 156.587 0 171.945-139.52 311.466-311.465 311.466z" />
<glyph unicode="&#xe914;" glyph-name="Help" d="M512.004 874.668c-79.36 0-156.587-21.76-223.575-63.147-20.053-12.373-26.453-38.827-14.080-58.88 12.375-20.055 38.827-26.455 58.88-14.080 53.335 33.28 115.2 50.773 178.775 50.773 188.16 0 341.333-153.173 341.333-341.333s-153.173-341.335-341.333-341.335c-188.16 0-341.334 153.175-341.334 341.335 0 45.225 8.533 88.745 25.6 130.133 8.959 21.76-1.28 46.507-23.040 55.893-21.76 8.535-46.933-1.705-55.893-23.465-21.333-51.627-32-106.24-32-162.56 0-235.095 191.573-426.667 426.667-426.667 235.093 0 426.665 191.573 426.665 426.667s-191.573 426.666-426.665 426.666zM515.417 328.962c-23.467 0-42.667-17.92-42.667-41.387 0-23.893 19.627-41.385 42.667-41.385 22.613 0 41.387 17.493 41.387 41.385 0 23.467-18.347 41.387-41.387 41.387zM451.844 545.707c-5.975-6.825-14.935-11.52-24.747-11.52-18.347 0-33.28 13.655-33.28 32.427 0 8.107 2.987 14.933 8.107 20.48l-0.427 0.427 1.28 1.28c0.427 0.425 0.853 0.853 1.707 1.28 30.293 35.84 73.385 59.733 123.733 59.733 72.107 0 122.453-47.787 122.453-109.653 0-51.899-31.931-78.090-59.831-100.972-21.644-17.753-40.862-33.516-40.862-57.748h-0.427c-1.28-18.347-15.785-31.575-33.705-31.575-19.2 0-35.415 14.507-35.415 34.56 0 0.215 0.073 2.288 0.144 4.362 0.071 2.076 0.142 4.149 0.142 4.362l-0.286-7.444c0 42.789 27.459 66.647 52.606 88.495 21.242 18.454 40.834 35.476 40.834 61.265 0 28.16-22.613 46.080-51.2 46.080-21.76 0-44.8-13.225-64.853-32.425-1.707-1.28-3.84-2.56-5.973-3.415z" />
<glyph unicode="&#xe915;" glyph-name="Informacin" d="M469.337 273.924c0-23.467 19.2-42.667 42.667-42.667 23.465 0 42.665 19.2 42.665 42.667v213.333c0 23.467-19.2 42.667-42.665 42.667-23.467 0-42.667-19.2-42.667-42.667v-213.333zM512.004 576.004c23.564 0 42.665 19.102 42.665 42.665s-19.102 42.667-42.665 42.667c-23.566 0-42.667-19.104-42.667-42.667s19.102-42.665 42.667-42.665zM512.004 874.668c-79.36 0-156.587-21.76-223.575-63.147-20.053-12.373-26.453-38.827-14.080-58.88 12.375-20.055 38.827-26.455 58.88-14.080 53.76 33.28 115.627 50.773 178.775 50.773 188.16 0 341.333-153.173 341.333-341.333s-153.173-341.335-341.333-341.335c-188.16 0-341.334 153.175-341.334 341.335 0 45.225 8.533 88.745 25.6 130.133 8.959 21.76-1.28 46.507-23.040 55.893-21.76 8.96-46.933-1.28-55.893-23.040-21.333-52.053-32-106.665-32-162.985 0-235.095 191.573-426.667 426.667-426.667 235.093 0 426.665 191.573 426.665 426.667s-191.573 426.666-426.665 426.666z" />
<glyph unicode="&#xe916;" glyph-name="Laboratorio" d="M184.191 133.12l199.679 401.92v168.96c0 23.467 19.2 42.667 42.667 42.667s42.667-19.2 42.667-42.667v-179.2c0-6.4-1.707-13.225-4.267-19.2l-74.24-149.333h231.253l-73.813 149.333c-2.987 5.975-4.267 12.375-4.267 18.775v307.626h-200.105c-23.467 0-42.667 19.2-42.667 42.667s19.2 42.667 42.667 42.667h323.413c23.467 0 42.667-19.2 42.667-42.667s-19.2-42.667-42.667-42.667h-37.547v-296.961l196.267-398.505c20.053-32.427 20.907-71.255 2.56-104.96-18.773-32.855-52.48-52.907-90.88-52.907h-463.787c-37.545 0-72.105 20.48-90.453 53.333-17.92 32.855-17.067 72.96 0.853 101.12zM258.005 73.387c2.133-3.413 6.825-9.387 15.785-9.387h463.787c9.387 0 13.653 5.975 15.787 9.387 2.133 3.413 4.265 10.24-2.56 21.76l-86.615 176.213h-316.16l-89.6-179.625c-4.693-8.107-2.133-14.935-0.425-18.347z" />
<glyph unicode="&#xe917;" glyph-name="Lapiz" d="M918.611 855.038c-40.107 40.107-93.44 62.293-150.615 62.293-57.173 0-110.505-22.187-150.613-62.293l-562.347-560.64c-7.68-8.105-12.373-18.773-12.373-30.293v-242.773c0-23.467 19.2-42.667 42.667-42.667h242.773c11.52 0 22.187 4.693 30.293 12.373l560.215 561.92c40.533 40.535 62.72 93.867 62.72 151.040 0 57.175-22.187 110.507-62.72 151.040zM310.183 63.998h-182.187v182.615l473.174 471.893 181.333-181.333-472.32-473.175zM858.451 613.545l-15.787-15.787-180.907 180.907 15.787 15.787c48.213 48.213 132.693 48.213 180.907 0 24.32-24.32 37.545-56.319 37.545-90.454 0-34.133-13.225-66.56-37.545-90.453z" />
<glyph unicode="&#xe918;" glyph-name="Launch" d="M853.333 490.667c-23.465 0-42.665-19.2-42.665-42.667v-256c0-23.467-19.2-42.667-42.667-42.667h-512c-23.467 0-42.667 19.2-42.667 42.667v512c0 23.467 19.2 42.667 42.667 42.667h256c23.467 0 42.667 19.199 42.667 42.666s-19.2 42.667-42.667 42.667h-256c-70.4 0-128-57.6-128-128v-512c0-70.4 57.6-128 128-128h512c70.4 0 128 57.6 128 128v256c0 23.467-19.2 42.667-42.667 42.667zM853.331 832h-170.667c-23.465 0-42.665-19.2-42.665-42.667s19.2-42.666 42.665-42.666h67.84l-389.12-389.12c-16.64-16.64-16.64-43.52 0-60.16 8.535-8.535 19.2-12.375 30.295-12.375 11.093 0 21.76 4.267 30.293 12.375l388.693 389.12v-67.84c0-23.467 19.2-42.667 42.667-42.667s42.667 19.2 42.667 42.667v170.666c0 23.467-19.2 42.667-42.667 42.667z" />
<glyph unicode="&#xe919;" glyph-name="Menu" d="M306.349 533.333h-221.013v341.333h341.333v-221.013c0-66.56-53.76-120.32-120.32-120.32zM426.669 21.333h-341.333v341.333h221.013c66.56 0 120.32-53.76 120.32-120.32v-221.013zM938.669 533.333h-221.013c-66.56 0-120.32 53.76-120.32 120.32v221.013h341.333v-341.333zM938.669 21.333h-341.333v221.013c0 66.56 53.76 120.32 120.32 120.32h221.013v-341.333z" />
<glyph unicode="&#xe91a;" glyph-name="OpenEyes" d="M45.649 441.173c75.947-192.427 258.134-316.587 464.639-316.587 206.080 0 388.695 124.587 464.64 317.013 3.84 9.815 3.84 20.907 0 31.147-75.945 192.427-258.133 316.586-464.64 316.586-206.505 0-388.693-124.159-464.639-317.014-3.84-9.813-3.84-20.905 0-31.145zM509.863 209.918c-165.12 0-311.895 96.427-378.454 247.040 66.56 150.615 213.334 247.040 378.88 247.040 165.12 0 311.895-96.425 378.027-247.040-66.133-150.613-212.907-247.040-378.453-247.040zM654.929 456.958c0-79.882-64.756-144.64-144.64-144.64-79.882 0-144.64 64.758-144.64 144.64 0 79.884 64.758 144.64 144.64 144.64 79.884 0 144.64-64.756 144.64-144.64z" />
<glyph unicode="&#xe91b;" glyph-name="Pastillas" d="M925.444 627.627c-72.535 72.533-190.72 72.533-263.255 0l-165.12-165.12c-16.64-16.64-16.64-43.52 0-60.16l0.427-0.427c0.427-0.425 0.427-0.425 0.427-0.853l115.2-115.2c8.533-8.533 19.2-12.373 30.293-12.373s21.76 4.265 30.293 12.373c16.64 16.64 16.64 43.52 0 60.16l-86.185 86.187 135.253 135.253c39.253 39.253 103.253 39.253 142.507 0s39.253-103.253 0-142.507l-330.24-330.24c-26.88-26.88-64.855-37.12-99.84-26.453-15.36 4.693-28.587 12.8-40.107 24.32-8.107 8.107-18.773 12.373-29.44 12.373 54.613 32.427 92.16 91.307 92.16 159.575v466.773c-0.427 102.4-83.627 186.027-186.453 186.027-102.401 0-186.027-83.627-186.027-186.027v-467.2c0-102.4 83.627-186.027 186.027-186.027 21.76 0 42.24 4.267 61.44 11.095-14.080-16.64-14.080-41.815 1.705-57.6 21.335-21.335 47.787-37.12 76.375-45.655 17.065-4.693 34.56-7.253 51.625-7.253 48.64 0 96.427 19.627 132.695 55.467l330.24 330.24c72.533 72.533 72.533 190.72 0 263.253zM170.67 264.107v191.147h119.894c23.465 0 42.665 19.2 42.665 42.665 0 23.467-19.2 42.667-42.665 42.667h-119.894v190.72c0 55.467 45.227 100.693 100.694 100.693 55.465 0 100.693-45.227 100.693-100.693v-467.2c0-55.467-45.227-100.693-100.693-100.693s-100.694 45.225-100.694 100.693z" />
<glyph unicode="&#xe91c;" glyph-name="Persona" d="M384.004 474.88c-48.213 41.815-79.36 102.827-79.36 171.52 0 125.867 102.4 228.267 228.267 228.267 125.865 0 228.265-102.4 228.265-228.267 0-68.693-31.145-129.705-79.36-171.52 149.76-59.305 256-205.653 256-376.32 0-23.465-19.2-42.665-42.665-42.665h-490.24c-23.467 0-42.667 19.2-42.667 42.665 0 23.467 19.2 42.667 42.667 42.667h444.585c-20.905 156.16-154.453 276.907-316.585 276.907-176.215 0-319.575-143.36-319.575-319.575 0-23.465-19.199-42.665-42.666-42.665s-42.667 19.2-42.667 42.665c0 170.667 106.24 316.587 256 376.32zM675.844 646.4c0 78.935-64 142.934-142.933 142.934-78.935 0-142.935-63.999-142.935-142.934 0-78.933 64-142.933 142.935-142.933 78.933 0 142.933 64 142.933 142.933z" />
<glyph unicode="&#xe91d;" glyph-name="Resumen" d="M766.293 917.334h-373.76c-5.545 0-11.52-1.28-16.64-3.413-0.425-0.427-1.28-0.853-1.705-1.28-4.267-2.133-8.535-4.693-11.947-8.107 0 0-0.427 0-0.427-0.427l-221.866-232.533c-2.133-2.135-3.413-4.695-4.693-7.255-1.28-2.133-2.987-3.84-3.84-5.973-2.133-5.12-3.413-10.667-3.413-16.213v-194.135c0-23.465 19.2-42.665 42.667-42.665s42.666 19.2 42.666 42.665v151.467h179.2c23.467 0 42.667 19.2 42.667 42.667v189.866h331.093c23.467 0 42.667-19.2 42.667-42.667v-682.667c0-23.467-19.2-42.667-42.667-42.667h-510.293c-23.467 0-42.667 19.2-42.667 42.667v154.027c0 23.465-19.199 42.665-42.666 42.665s-42.667-19.2-42.667-42.665v-154.027c0-70.4 57.173-128 128-128h510.293c70.4 0 128 57.173 128 128v682.667c0 70.827-57.6 128-128 128zM270.507 684.8l79.36 83.201v-83.626h-79.36v0.425zM341.331 388.267h338.773c23.467 0 42.667 19.2 42.667 42.667 0 23.465-19.2 42.665-42.667 42.665h-338.773c-23.467 0-42.667-19.2-42.667-42.665 0-23.467 19.2-42.667 42.667-42.667zM341.331 234.667h338.773c23.467 0 42.667 19.2 42.667 42.665 0 23.467-19.2 42.667-42.667 42.667h-338.773c-23.467 0-42.667-19.2-42.667-42.667 0-23.465 19.2-42.665 42.667-42.665z" />
<glyph unicode="&#xe91e;" glyph-name="Siguiente" d="M591.754 447.783l-233.667-243.058c-21.595-22.463-21.595-58.75 0-81.213 21.595-22.461 56.478-22.461 78.072 0l272.981 283.953c21.597 22.463 21.597 58.748 0 81.211l-272.981 283.953c-11.073 11.519-24.917 16.703-39.312 16.703-14.397 0-28.241-5.76-39.314-16.703-21.597-22.463-21.597-58.748 0-81.211l234.22-243.635z" />
<glyph unicode="&#xe91f;" glyph-name="Tarjeta" d="M861.436 832h-698.879c-66.133 0-119.893-53.76-119.893-119.893v-81.495c0-66.133 53.76-119.893 119.893-119.893h632.747c23.467 0 42.667 19.2 42.667 42.667 0 23.465-19.2 42.665-42.667 42.665h-632.747c-18.773-0.425-34.56 14.935-34.56 34.135v81.92c0 18.773 15.787 34.56 34.56 34.56h698.454c19.2 0 34.985-15.787 34.985-34.56v-526.507c0-19.2-15.785-34.56-34.56-34.56h-698.879c-18.773-0.427-34.56 14.933-34.56 34.133v237.227c0 23.467-19.2 42.667-42.667 42.667s-42.667-19.2-42.667-42.667v-237.227c0-66.133 53.76-119.893 119.893-119.893h698.454c66.133 0 119.893 53.76 119.893 119.893v526.935c0.427 66.133-53.333 119.893-119.467 119.893zM838.4 260.265c0 23.467-19.2 42.667-42.665 42.667-23.467 0-42.667-19.2-42.667-42.667 0-23.465 19.2-42.665 42.667-42.665 23.465-0.427 42.665 18.773 42.665 42.665zM658.773 217.6c23.564 0 42.667 19.102 42.667 42.665 0 23.566-19.104 42.667-42.667 42.667s-42.667-19.102-42.667-42.667c0-23.564 19.104-42.665 42.667-42.665z" />
<glyph unicode="&#xe920;" glyph-name="Telfono" d="M746.667 20.905c-8.533 0-17.493 0.425-26.453 1.705-5.12 0.427-10.24 1.28-15.36 2.56-23.040 4.267-38.4 26.88-33.707 49.92s26.88 37.973 49.92 33.707c2.987-0.427 5.973-0.855 9.387-1.28 38.825-5.12 75.945 8.105 103.253 34.985l3.84 3.84c21.76 21.76 21.76 56.747 0 78.507l-52.053 52.053c-17.92 18.347-46.080 21.335-68.267 8.107-1.28-0.853-2.987-1.707-4.267-2.133-80.213-45.655-182.613-32-248.745 34.133l-82.347 82.347c-66.56 66.56-80.213 168.105-34.987 249.173 0.855 1.28 1.707 2.987 2.56 4.267 13.655 22.185 10.24 49.92-8.105 68.265l-52.055 52.054c-21.76 21.76-56.745 21.76-78.505 0l-3.84-3.84c-27.308-26.88-40.108-64.427-35.414-102.4 0 0 0-0.427 0-0.855 0.427-2.985 0.853-5.973 1.707-8.96 13.653-106.665 58.453-208.64 128.853-298.665 0.427-0.427 60.16-75.52 109.227-111.787 51.2-37.973 102.4-68.693 151.467-91.307 21.333-9.813 30.72-34.985 20.905-56.745-9.813-21.335-34.985-30.72-56.745-20.907-54.615 25.173-110.935 58.88-166.827 100.267-58.453 43.093-122.88 124.16-125.44 128-80.213 102.4-130.56 218.88-145.92 337.493-0.427 1.707-1.28 6.827-1.707 11.947v0.425c-8.107 64.427 13.653 128.001 59.307 173.654l3.84 3.84c55.040 55.040 144.213 55.040 199.253 0l52.055-52.053c45.225-45.226 54.185-114.774 22.185-170.241-0.425-0.853-0.853-2.133-1.705-2.985-27.307-47.787-19.627-108.8 19.625-148.055l82.775-83.2c39.253-39.253 100.265-47.36 148.053-19.2 1.28 0.855 2.56 1.28 4.267 2.135 52.48 32 123.305 23.465 168.96-22.615l52.053-52.053c55.040-55.040 55.040-144.213 0-199.253l-3.84-3.84c-39.253-39.68-92.16-61.013-147.2-61.013z" />
<glyph unicode="&#xe921;" glyph-name="Vector" d="M1001.623 29.985l-306.076 306.076c49.417 64.542 79.167 145.222 79.167 232.96 0 211.277-171.946 383.224-383.225 383.224-211.277 0-383.728-171.947-383.728-383.224 0-211.279 171.947-383.225 383.225-383.225 87.738 0 167.913 29.75 232.96 79.167l306.074-306.076c10.086-10.084 22.691-15.127 35.803-15.127 13.11 0 25.716 5.043 35.8 14.625 19.665 19.663 19.665 51.935 0 71.601zM390.986 286.141c-155.811 0-282.377 126.564-282.377 282.375s126.566 282.88 282.377 282.88c155.811 0 282.375-126.564 282.375-282.375s-126.564-282.88-282.375-282.88z" />
<glyph unicode="&#xe922;" glyph-name="Video" d="M960.851 682.778c-12.8 7.877-28.587 8.314-41.815 1.313l-151.040-80.957v56.013c0 48.136-38.4 87.52-85.333 87.52h-512c-70.827 0-128-58.638-128-131.281v-334.769c0-72.206 57.173-131.283 128-131.283h512c46.933 0 85.333 39.385 85.333 87.522v266.939l128 68.704v-249.437l-19.2 10.504c-20.905 11.376-46.505 3.062-57.6-18.381-11.093-21.443-2.985-47.699 17.92-59.077l81.92-43.76c6.4-3.501 12.8-4.813 19.627-4.813 7.68 0 15.36 2.188 22.187 6.126 12.8 7.877 20.48 22.317 20.48 37.634v393.846c0 15.317-7.68 29.757-20.48 37.634zM170.663 237.294c-23.467 0-42.667 19.692-42.667 43.76v334.332c0 24.068 19.2 43.76 42.667 43.76h512v-421.853h-512z" />
</font>
</defs>
</svg>
