<svg width="20" height="20" viewBox="0 0 20 20" fill="none" xmlns="http://www.w3.org/2000/svg">
<path d="M10 20C4.49 20 0 15.51 0 10C0 8.68 0.25 7.4 0.75 6.19C0.96 5.68 1.55 5.44 2.06 5.65C2.57 5.86 2.81 6.45 2.6 6.96C2.2 7.92 2 8.94 2 10C2 14.41 5.59 18 10 18C14.41 18 18 14.41 18 10C18 5.59 14.41 2 10 2C8.52 2 7.07 2.41 5.81 3.19C5.34 3.47 4.72 3.33 4.43 2.86C4.14 2.39 4.29 1.77 4.76 1.48C6.33 0.51 8.14 0 10 0C15.51 0 20 4.49 20 10C20 15.51 15.51 20 10 20Z" fill="#131336"/>
<path d="M14 10.9996H10C9.45 10.9996 9 10.5496 9 9.99957V4.05957C9 3.50957 9.45 3.05957 10 3.05957C10.55 3.05957 11 3.50957 11 4.05957V8.99957H14C14.55 8.99957 15 9.44957 15 9.99957C15 10.5496 14.55 10.9996 14 10.9996Z" fill="#131336"/>
</svg>
