<svg width="20" height="20" viewBox="0 0 20 20" fill="none" xmlns="http://www.w3.org/2000/svg">
<path d="M13.83 8.37C14.6 7.48 15.08 6.34 15.08 5.08C15.07 2.28 12.8 0 10 0C7.2 0 4.93 2.28 4.93 5.08C4.93 6.34 5.41 7.49 6.18 8.37C2.64 9.2 0 12.37 0 16.16V19C0 19.55 0.45 20 1 20H19C19.55 20 20 19.55 20 19V16.16C20 12.37 17.36 9.2 13.83 8.37ZM10 2C11.7 2 13.07 3.38 13.07 5.08C13.07 6.78 11.7 8.15 10 8.15C8.3 8.15 6.93 6.77 6.93 5.08C6.93 3.39 8.3 2 10 2ZM18 18H2V16.16C2 14.46 2.71 12.92 3.85 11.83C4.04 12.43 4.34 13.15 4.85 13.82C5.05 14.08 5.35 14.22 5.65 14.22C5.86 14.22 6.07 14.15 6.25 14.02C6.69 13.69 6.78 13.06 6.45 12.62C5.92 11.92 5.7 11.11 5.61 10.66C6.35 10.34 7.16 10.16 8.01 10.16H11.99C12.86 10.16 13.68 10.35 14.43 10.68C14.34 11.13 14.11 11.92 13.59 12.62C13.55 12.67 13.54 12.73 13.51 12.78C13.5 12.78 13.48 12.78 13.47 12.78C12.66 12.78 12.01 13.44 12.01 14.24C12.01 15.05 12.67 15.7 13.47 15.7C14.28 15.7 14.93 15.04 14.93 14.24C14.93 14.17 14.92 14.11 14.91 14.05C15.01 13.99 15.11 13.92 15.18 13.82C15.67 13.16 15.97 12.46 16.16 11.87C17.28 12.96 17.98 14.48 17.98 16.17V18H18Z" fill="#131336"/>
</svg>