<svg width="24" height="24" viewBox="0 0 24 24" fill="none" xmlns="http://www.w3.org/2000/svg">
<path d="M15.83 10.37C16.6 9.48 17.08 8.34 17.08 7.08C17.07 4.28 14.8 2 12 2C9.2 2 6.93 4.28 6.93 7.08C6.93 8.34 7.41 9.49 8.18 10.37C4.64 11.2 2 14.37 2 18.16V21C2 21.55 2.45 22 3 22H21C21.55 22 22 21.55 22 21V18.16C22 14.37 19.36 11.2 15.83 10.37ZM12 4C13.7 4 15.07 5.38 15.07 7.08C15.07 8.78 13.7 10.15 12 10.15C10.3 10.15 8.93 8.77 8.93 7.08C8.93 5.39 10.3 4 12 4ZM20 20H4V18.16C4 16.46 4.71 14.92 5.85 13.83C6.04 14.43 6.34 15.15 6.85 15.82C7.05 16.08 7.35 16.22 7.65 16.22C7.86 16.22 8.07 16.15 8.25 16.02C8.69 15.69 8.78 15.06 8.45 14.62C7.92 13.92 7.7 13.11 7.61 12.66C8.35 12.34 9.16 12.16 10.01 12.16H13.99C14.86 12.16 15.68 12.35 16.43 12.68C16.34 13.13 16.11 13.92 15.59 14.62C15.55 14.67 15.54 14.73 15.51 14.78C15.5 14.78 15.48 14.78 15.47 14.78C14.66 14.78 14.01 15.44 14.01 16.24C14.01 17.05 14.67 17.7 15.47 17.7C16.28 17.7 16.93 17.04 16.93 16.24C16.93 16.17 16.92 16.11 16.91 16.05C17.01 15.99 17.11 15.92 17.18 15.82C17.67 15.16 17.97 14.46 18.16 13.87C19.28 14.96 19.98 16.48 19.98 18.17V20H20Z" fill="#00B0CA"/>
</svg>
