<svg width="20" height="21" viewBox="0 0 20 21" fill="none" xmlns="http://www.w3.org/2000/svg">
<path d="M19.41 1.36039C18.83 0.590391 17.95 0.150391 16.99 0.150391H14.06C13.51 0.150391 13.06 0.600391 13.06 1.15039C13.06 1.70039 13.51 2.15039 14.06 2.15039H16.99C17.31 2.15039 17.61 2.30039 17.8 2.56039C17.99 2.81039 18.05 3.13039 17.96 3.43039C16.98 6.74039 13.66 9.15039 10.06 9.15039C8.25 9.15039 6.53 8.56039 5.11 7.44039C4.68 7.10039 4.05 7.17039 3.71 7.61039C3.37 8.05039 3.44 8.67039 3.88 9.01039C5.39 10.2004 7.17 10.9104 9.07 11.1004V15.6904C9.07 17.0504 7.96 18.1604 6.6 18.1604C5.39 18.1604 4.39 17.2804 4.18 16.1304C4.86 15.7304 5.33 15.0004 5.33 14.1604C5.33 12.9004 4.31 11.8704 3.04 11.8704C1.78 11.8704 0.75 12.8904 0.75 14.1604C0.75 15.1204 1.35 15.9504 2.19 16.2804C2.48 18.4604 4.34 20.1604 6.6 20.1604C9.06 20.1604 11.07 18.1604 11.07 15.6904V11.0904C15.14 10.6804 18.75 7.83039 19.89 4.00039C20.15 3.08039 19.97 2.12039 19.41 1.36039Z" fill="#131336"/>
</svg>