<svg width="18" height="22" viewBox="0 0 18 22" fill="none" xmlns="http://www.w3.org/2000/svg">
<path fill-rule="evenodd" clip-rule="evenodd" d="M8.75104 21.97C8.83104 21.99 8.91104 22 8.99104 22C9.07104 22 9.15104 21.99 9.24104 21.97C14.231 20.72 17.991 15.62 17.991 10.09V4.64C17.991 4.25 17.761 3.89 17.401 3.73L9.41104 0.09C9.15104 -0.03 8.84104 -0.03 8.58104 0.09L0.591038 3.73C0.0810376 3.95 -0.138962 4.55 0.0910376 5.05C0.311038 5.56 0.911038 5.78 1.41104 5.55L8.99104 2.1L15.981 5.28V10.09C15.981 14.63 12.991 18.83 8.99104 19.96C4.99104 18.83 2.00104 14.63 2.00104 10.09C2.00104 9.54 1.55104 9.09 1.00104 9.09C0.451038 9.09 0.00103756 9.54 0.00103756 10.09C0.00103756 15.62 3.76104 20.72 8.75104 21.97ZM6.84104 13.7C7.04104 13.89 7.29104 13.99 7.55104 13.99C7.81104 13.99 8.06104 13.89 8.26104 13.7L13.021 8.92999C13.411 8.53999 13.411 7.90999 13.021 7.51999C12.631 7.12999 12.001 7.12999 11.611 7.51999L7.54104 11.59L6.37104 10.42C5.98104 10.03 5.35104 10.03 4.96104 10.42C4.57104 10.81 4.57104 11.44 4.96104 11.83L6.84104 13.7Z" fill="#00B0CA"/>
</svg>