<svg width="18" height="22" viewBox="0 0 18 22" fill="none" xmlns="http://www.w3.org/2000/svg">
<path d="M17.4 3.73L9.41 0.09C9.15 -0.03 8.84 -0.03 8.58 0.09L0.59 3.73C0.09 3.96 -0.14 4.55 0.09 5.05C0.32 5.55 0.91 5.78 1.41 5.55L8.99 2.1L15.98 5.28V10.09C15.98 14.63 12.99 18.83 8.99 19.96C4.99 18.83 2 14.63 2 10.09C2 9.54 1.55 9.09 1 9.09C0.45 9.09 0 9.54 0 10.09C0 15.62 3.76 20.72 8.75 21.97C8.83 21.99 8.91 22 8.99 22C9.07 22 9.15 21.99 9.23 21.97C14.22 20.72 17.98 15.62 17.98 10.09V4.64C17.98 4.24 17.75 3.89 17.4 3.73Z" fill="#00B0CA"/>
<path d="M5.89002 14.0999C6.09002 14.2999 6.34002 14.3899 6.60002 14.3899C6.86002 14.3899 7.11002 14.2899 7.31002 14.0999L8.99002 12.4199L10.67 14.0999C10.87 14.2999 11.12 14.3899 11.38 14.3899C11.64 14.3899 11.89 14.2899 12.09 14.0999C12.48 13.7099 12.48 13.0799 12.09 12.6899L10.41 10.9999L12.09 9.31992C12.48 8.92992 12.48 8.29992 12.09 7.90992C11.7 7.51992 11.07 7.51992 10.68 7.90992L8.99002 9.58992L7.31002 7.89992C6.92002 7.50992 6.29002 7.50992 5.90002 7.89992C5.51002 8.28992 5.51002 8.91992 5.90002 9.30992L7.58002 10.9999L5.90002 12.6799C5.50002 13.0699 5.50002 13.7099 5.89002 14.0999Z" fill="#00B0CA"/>
</svg>
