<?xml version="1.0" encoding="utf-8"?>
<!-- Generator: Adobe Illustrator 24.0.1, SVG Export Plug-In . SVG Version: 6.00 Build 0)  -->
<svg version="1.1" id="Capa_1" xmlns="http://www.w3.org/2000/svg" xmlns:xlink="http://www.w3.org/1999/xlink" x="0px" y="0px"
	 viewBox="0 0 577 703" style="enable-background:new 0 0 577 703;" xml:space="preserve">
<style type="text/css">
	.st0{fill:#FFFFFF;}
	.st1{fill-rule:evenodd;clip-rule:evenodd;fill:#FFFFFF;}
	.st2{fill-rule:evenodd;clip-rule:evenodd;fill:#C2DF0A;}
</style>
<path class="st0" d="M61.3,412.5c7,0,12.9-3.4,16.2-8l-3.4-2.8c-2.9,3.9-7.4,6.4-12.6,6.4c-8.2,0-14.4-6-14.4-14.4
	c0-8.6,6.5-14.8,14.5-14.8c5.2,0,9.6,2.6,12.4,6.5l3.5-2.9c-3.1-4.8-9.1-8.1-16-8.1c-10.3,0-19.2,7.9-19.2,19.2
	C42.3,405,50.9,412.5,61.3,412.5z"/>
<path class="st0" d="M93.7,412.6c7.1,0,11.4-4.4,11.4-11.4v-16h-4.5v15.9c0,4.5-2.5,7.4-6.9,7.4s-6.9-2.9-6.9-7.4v-15.9h-4.4v16
	C82.4,408.2,86.8,412.6,93.7,412.6z"/>
<path class="st0" d="M114.6,381.4c1.8,0,3.2-1.4,3.2-3.3c0-1.8-1.5-3.2-3.2-3.2c-1.9,0-3.4,1.4-3.4,3.2
	C111.3,380,112.7,381.4,114.6,381.4z M116.8,412v-26.8h-4.4V412H116.8z"/>
<path class="st0" d="M145.6,374.1v15.1c-2.4-3-5.7-4.6-9.6-4.6c-7.7,0-13.4,6.3-13.4,14c0,7.8,5.6,14,13.5,14c3.7,0,7.1-1.4,9.4-4.4
	v3.8h4.4v-37.9H145.6z M136.6,408.5c-5.8,0-9.4-4.5-9.4-9.9c0-5.4,3.6-9.9,9.4-9.9s9.4,4.5,9.4,9.9C146,404,142.3,408.5,136.6,408.5
	z"/>
<path class="st0" d="M178.9,385.2v4c-2.4-3-5.7-4.6-9.6-4.6c-7.7,0-13.4,5.9-13.4,13.9s5.7,14.2,13.4,14.2c3.8,0,7.1-1.5,9.6-4.5
	v3.9h4.3v-26.8H178.9z M169.8,408.5c-5.8,0-9.4-4.5-9.4-9.9s3.6-9.9,9.4-9.9s9.4,4.5,9.4,9.9C179.3,404,175.6,408.5,169.8,408.5z"/>
<path class="st0" d="M190.8,412h4.4v-14.4c0-6.1,3.4-8.8,7.4-8.8c0.9,0,1.8,0.1,2.8,0.4l0.4-4.3c-1.2-0.3-2.2-0.4-3.1-0.4
	c-3.6,0-6.1,1.5-7.8,4.7v-4h-4.2V412z"/>
<path class="st0" d="M245.5,398.1c0-8.5-5.4-13.5-12.8-13.5c-8.1,0-13.5,6-13.5,13.9c0,7,4.1,14.1,14.2,14.1c4.8,0,9.1-1.9,11.4-3.8
	l-1.9-3.5c-2.5,1.8-6.2,3.1-9.4,3.1c-6.1,0-8.9-3.7-9.6-8h21.4C245.4,399.9,245.5,399.2,245.5,398.1z M232.7,388.6
	c4.3,0,7.9,3,8.1,7.9h-16.9C224.7,392,228,388.6,232.7,388.6z"/>
<path class="st0" d="M258.6,412.6c5.6,0,9.4-3.6,9.4-8.1c0-3.2-1.8-5.3-4.5-6.8c-2.1-1.1-4.8-2.1-6.6-3c-1.6-0.8-2.2-2.1-2.2-3.2
	c0-1.8,1.3-3.4,3.9-3.4c2.1,0,4.2,0.9,5.7,3.1l3-2.6c-1.7-2.9-5.1-4.3-8.4-4.3c-5.2,0-8.5,3.2-8.5,7.4c0,2.4,1.1,4.9,4,6.4
	c1.7,1,4.9,2.1,6.6,3.1c1.4,0.8,2.5,1.9,2.5,3.6c0,2-1.9,3.9-4.9,3.9c-2.2,0-4.9-1.2-6.5-4.3l-3.4,2.4
	C251,410.9,254.9,412.6,258.6,412.6z"/>
<path class="st0" d="M307.4,385.2v4c-2.4-3-5.7-4.6-9.5-4.6c-7.7,0-13.4,5.9-13.4,13.9s5.7,14.2,13.4,14.2c3.8,0,7.1-1.5,9.5-4.5
	v3.9h4.3v-26.8H307.4z M298.3,408.5c-5.8,0-9.4-4.5-9.4-9.9s3.6-9.9,9.4-9.9s9.5,4.5,9.5,9.9C307.7,404,304,408.5,298.3,408.5z"/>
<path class="st0" d="M349.9,384.5c-4.3,0-8,2.1-9.8,5c-1.5-3.2-4.9-5-8.5-5c-3.6,0-6.5,1.9-8,4.7v-4h-4.4V412h4.5v-15
	c0-5,3.1-8.3,7.4-8.3c4.1,0,6.6,3,6.6,8.2V412h4.4v-15.1c0-4.9,3-8.2,7.3-8.2c4,0,6.6,2.8,6.6,8.1V412h4.4v-15.9
	C360.5,389.1,356.5,384.5,349.9,384.5z"/>
<path class="st0" d="M389,385.2v4c-2.4-3-5.7-4.6-9.5-4.6c-7.7,0-13.4,5.9-13.4,13.9s5.7,14.2,13.4,14.2c3.9,0,7.1-1.5,9.5-4.5v3.9
	h4.3v-26.8H389z M379.9,408.5c-5.8,0-9.4-4.5-9.4-9.9s3.6-9.9,9.4-9.9s9.4,4.5,9.4,9.9C389.4,404,385.7,408.5,379.9,408.5z"/>
<path class="st0" d="M400.9,412h4.4v-14.4c0-6.1,3.4-8.8,7.5-8.8c0.9,0,1.8,0.1,2.8,0.4l0.4-4.3c-1.1-0.3-2.1-0.4-3.1-0.4
	c-3.6,0-6.1,1.5-7.8,4.7v-4h-4.2V412z"/>
<path class="st0" d="M54.8,456.7H44.5V490h2.7v-12.9h7.1c7.5,0,11-5,11-10.2C65.4,461.9,62.1,456.7,54.8,456.7z M54.4,474.5h-7.2
	v-15.2h7.6c4.9,0,7.7,3.3,7.7,7.5C62.6,471.1,59.7,474.5,54.4,474.5z"/>
<path class="st0" d="M81,490.6c7.2,0,12.5-5.6,12.5-12.6c0-7-5.3-12.6-12.5-12.6s-12.5,5.6-12.5,12.6C68.5,485,73.8,490.6,81,490.6z
	 M81,488.1c-5.6,0-9.8-4.5-9.8-10.2c0-5.6,4.2-10.1,9.8-10.1c5.7,0,9.8,4.5,9.8,10.1C90.8,483.6,86.7,488.1,81,488.1z"/>
<path class="st0" d="M99.2,490h2.7v-13.7c0-4.8,2.4-8.4,6.9-8.4c0.9,0,1.7,0.1,2.6,0.4l0.3-2.6c-1-0.3-2.1-0.4-3-0.4
	c-3.2,0-5.6,1.4-7,4.5v-3.9h-2.6V490z"/>
<path class="st0" d="M134.1,465.9v4.8c-2-3.4-5.4-5.4-9.6-5.4c-6.9,0-12,5.6-12,12.6s5.1,12.6,12,12.6c4.1,0,7.6-2,9.6-5.3v14.6h2.7
	v-34H134.1z M124.7,488.1c-5.6,0-9.4-4.5-9.4-10.1c0-5.6,3.8-10.1,9.4-10.1c5.7,0,9.6,4.6,9.6,10.2
	C134.2,483.5,130.3,488.1,124.7,488.1z"/>
<path class="st0" d="M153.6,490.6c6.1,0,9.9-3.9,9.9-10v-14.7h-2.7v14.6c0,4.7-2.7,7.6-7.2,7.6c-4.4,0-7.1-2.9-7.1-7.5v-14.6h-2.7
	v14.7C143.8,486.6,147.7,490.6,153.6,490.6z"/>
<path class="st0" d="M192.1,476.9c0-7.3-4.9-11.6-11.2-11.6c-7.3,0-12,5.4-12,12.6c0,6.3,3.6,12.6,12.5,12.6c4.2,0,8-1.6,10.1-3.3
	l-1.3-2.1c-2.2,1.7-5.7,2.9-8.8,2.9c-6.1,0-9.4-3.9-9.8-9h20.2C192,478.5,192.1,477.9,192.1,476.9z M180.9,467.8
	c4.9,0,8.3,3.3,8.4,8.7h-17.6C172.2,471.3,175.8,467.8,180.9,467.8z"/>
<path class="st0" d="M49.9,544.5c4.9,0,8.2-3.2,8.2-7.2c0-3-1.8-4.5-4.2-5.8c-1.9-1-4.3-1.8-5.9-2.6c-1.6-0.8-2.6-2-2.6-3.6
	c0-2.2,1.6-3.9,4.7-3.9c2.3,0,4.2,0.9,5.4,2.9l1.9-1.5c-1.5-2.5-4.3-3.8-7.2-3.8c-4.6,0-7.4,2.9-7.4,6.4c0,2.3,1.3,4.3,3.8,5.6
	c1.6,0.9,4.1,1.7,5.8,2.5c1.7,0.9,3.1,1.9,3.1,3.9c0,2.4-2.1,4.5-5.5,4.5c-2.6,0-5-1.4-6.3-4.2l-2.2,1.4
	C43.2,543,46.6,544.5,49.9,544.5z"/>
<path class="st0" d="M83.4,519.9v4.6c-2-3.2-5.4-5.2-9.5-5.2c-6.9,0-12,5.4-12,12.5c0,7.2,5.1,12.7,12,12.7c4.1,0,7.5-2,9.5-5.3v4.7
	H86v-24.1H83.4z M74,542.1c-5.6,0-9.4-4.5-9.4-10.2s3.8-10.1,9.4-10.1c5.7,0,9.6,4.5,9.6,10C83.6,537.5,79.7,542.1,74,542.1z"/>
<path class="st0" d="M105.7,519.4c-4.2,0-7.6,2-9.6,5.4V510h-2.7v34H96v-4.8c2,3.4,5.4,5.4,9.6,5.4c6.9,0,12-5.6,12-12.6
	C117.6,525,112.5,519.4,105.7,519.4z M105.5,542.1c-5.7,0-9.5-4.6-9.5-10.2c0-5.5,3.9-10,9.5-10c5.6,0,9.4,4.5,9.4,10.1
	C114.9,537.6,111.1,542.1,105.5,542.1z"/>
<path class="st0" d="M144.9,530.9c0-7.3-4.9-11.6-11.2-11.6c-7.3,0-12,5.4-12,12.6c0,6.3,3.6,12.6,12.5,12.6c4.2,0,8-1.6,10.1-3.3
	l-1.3-2.1c-2.2,1.7-5.7,2.9-8.8,2.9c-6.1,0-9.4-3.9-9.8-9h20.3C144.8,532.5,144.9,531.9,144.9,530.9z M133.7,521.8
	c4.9,0,8.3,3.3,8.4,8.7h-17.6C125,525.3,128.6,521.8,133.7,521.8z"/>
<path class="st0" d="M177.2,519.3c-3.5,0-7.1,1.7-8.6,5.2c-1.4-3.5-4.5-5.2-7.8-5.2c-3.4,0-6.3,1.7-7.6,4.7v-4h-2.7V544h2.7v-13.5
	c0-6.4,4.1-8.6,7.4-8.6c4,0,6.6,3,6.6,7.7V544h2.7v-14.4c0-5.6,4.1-7.8,7.3-7.8c4,0,6.6,2.7,6.6,7.4V544h2.7v-15
	C186.4,522.7,182.3,519.3,177.2,519.3z"/>
<path class="st0" d="M204.3,544.6c7.2,0,12.5-5.6,12.5-12.6c0-7-5.3-12.6-12.5-12.6c-7.2,0-12.5,5.6-12.5,12.6
	C191.7,539,197,544.6,204.3,544.6z M204.3,542.1c-5.6,0-9.8-4.5-9.8-10.2c0-5.6,4.2-10.1,9.8-10.1c5.7,0,9.8,4.5,9.8,10.1
	C214.1,537.6,209.9,542.1,204.3,542.1z"/>
<path class="st0" d="M228.7,544.5c4.9,0,8.2-3.2,8.2-7.2c0-3-1.8-4.5-4.2-5.8c-1.9-1-4.3-1.8-5.9-2.6c-1.6-0.8-2.6-2-2.6-3.6
	c0-2.2,1.6-3.9,4.7-3.9c2.3,0,4.2,0.9,5.4,2.9l1.9-1.5c-1.5-2.5-4.3-3.8-7.2-3.8c-4.6,0-7.4,2.9-7.4,6.4c0,2.3,1.3,4.3,3.8,5.6
	c1.6,0.9,4.1,1.7,5.8,2.5c1.7,0.9,3.1,1.9,3.1,3.9c0,2.4-2.1,4.5-5.5,4.5c-2.6,0-4.9-1.4-6.3-4.2l-2.2,1.4
	C222,543,225.4,544.5,228.7,544.5z"/>
<path class="st0" d="M268.1,519.9v4.8c-2-3.4-5.4-5.4-9.6-5.4c-6.9,0-12,5.6-12,12.6s5.1,12.6,12,12.6c4.1,0,7.6-2,9.6-5.3v14.6h2.7
	v-34H268.1z M258.7,542.1c-5.6,0-9.4-4.5-9.4-10.1c0-5.6,3.8-10.1,9.4-10.1c5.7,0,9.6,4.6,9.6,10.2
	C268.3,537.5,264.4,542.1,258.7,542.1z"/>
<path class="st0" d="M287.7,544.6c6.1,0,9.9-3.9,9.9-10v-14.7h-2.7v14.6c0,4.7-2.7,7.6-7.2,7.6c-4.4,0-7.1-2.9-7.1-7.5v-14.6h-2.7
	v14.7C277.9,540.6,281.7,544.6,287.7,544.6z"/>
<path class="st0" d="M326.1,530.9c0-7.3-4.9-11.6-11.2-11.6c-7.3,0-12,5.4-12,12.6c0,6.3,3.6,12.6,12.5,12.6c4.2,0,8-1.6,10.1-3.3
	l-1.3-2.1c-2.2,1.7-5.7,2.9-8.8,2.9c-6.1,0-9.4-3.9-9.8-9H326C326,532.5,326.1,531.9,326.1,530.9z M314.9,521.8
	c4.9,0,8.3,3.3,8.4,8.7h-17.6C306.3,525.3,309.8,521.8,314.9,521.8z"/>
<path class="st0" d="M63.6,573.9v4.8c-2-3.4-5.4-5.4-9.6-5.4c-6.9,0-12,5.6-12,12.6s5.1,12.6,12,12.6c4.1,0,7.6-2,9.6-5.3v14.6h2.7
	v-34H63.6z M54.1,596.1c-5.6,0-9.4-4.5-9.4-10.1c0-5.6,3.8-10.1,9.4-10.1c5.7,0,9.6,4.6,9.6,10.2C63.7,591.5,59.8,596.1,54.1,596.1z
	"/>
<path class="st0" d="M83.1,598.6c6.1,0,9.9-3.9,9.9-10v-14.7h-2.7v14.6c0,4.7-2.7,7.6-7.2,7.6c-4.4,0-7.1-2.9-7.1-7.5v-14.6h-2.7
	v14.7C73.3,594.6,77.1,598.6,83.1,598.6z"/>
<path class="st0" d="M101.2,570.1c1.3,0,2.3-1,2.3-2.3c0-1.3-1-2.3-2.3-2.3c-1.3,0-2.3,1-2.3,2.3C98.9,569.2,99.9,570.1,101.2,570.1
	z M102.5,598v-24.1h-2.7V598H102.5z"/>
<path class="st0" d="M131.6,584.9c0-7.3-4.9-11.6-11.2-11.6c-7.3,0-12,5.4-12,12.6c0,6.3,3.6,12.6,12.5,12.6c4.2,0,8-1.6,10.1-3.3
	l-1.3-2.1c-2.2,1.7-5.7,2.9-8.8,2.9c-6.1,0-9.4-3.9-9.8-9h20.3C131.5,586.5,131.6,585.9,131.6,584.9z M120.4,575.8
	c4.9,0,8.3,3.3,8.4,8.7h-17.6C111.7,579.3,115.3,575.8,120.4,575.8z"/>
<path class="st0" d="M137.1,598h2.7v-13.7c0-4.8,2.4-8.4,6.9-8.4c0.9,0,1.7,0.1,2.6,0.4l0.3-2.6c-1-0.3-2.1-0.4-3-0.4
	c-3.2,0-5.6,1.4-7,4.5v-3.9h-2.6V598z"/>
<path class="st0" d="M173.7,584.9c0-7.3-4.9-11.6-11.2-11.6c-7.3,0-12,5.4-12,12.6c0,6.3,3.6,12.6,12.5,12.6c4.2,0,8-1.6,10.1-3.3
	l-1.3-2.1c-2.2,1.7-5.7,2.9-8.8,2.9c-6.1,0-9.4-3.9-9.8-9h20.2C173.6,586.5,173.7,585.9,173.7,584.9z M162.5,575.8
	c4.9,0,8.3,3.3,8.4,8.7h-17.6C153.8,579.3,157.4,575.8,162.5,575.8z"/>
<path class="st0" d="M185.5,598.5c4.9,0,8.2-3.2,8.2-7.2c0-3-1.8-4.5-4.2-5.8c-1.9-1-4.3-1.8-5.9-2.6c-1.6-0.8-2.6-2-2.6-3.6
	c0-2.2,1.6-3.9,4.7-3.9c2.3,0,4.2,0.9,5.4,2.9l1.9-1.5c-1.5-2.5-4.3-3.8-7.2-3.8c-4.6,0-7.4,2.9-7.4,6.4c0,2.3,1.3,4.3,3.8,5.6
	c1.6,0.9,4.1,1.7,5.8,2.5c1.7,0.9,3.1,1.9,3.1,3.9c0,2.4-2.1,4.5-5.5,4.5c-2.6,0-4.9-1.4-6.3-4.2l-2.2,1.4
	C178.8,597,182.1,598.5,185.5,598.5z"/>
<path class="st0" d="M224.9,564v14.6c-2-3.3-5.4-5.3-9.5-5.3c-6.9,0-12,5.6-12,12.6c0,7,5,12.6,12,12.6c4.1,0,7.5-1.9,9.5-5.3v4.7
	h2.7v-34H224.9z M215.5,596.1c-5.6,0-9.4-4.5-9.4-10.1s3.8-10.1,9.4-10.1c5.7,0,9.6,4.5,9.6,10C225,591.5,221.1,596.1,215.5,596.1z"
	/>
<path class="st0" d="M236.2,570.1c1.3,0,2.3-1,2.3-2.3c0-1.3-1-2.3-2.3-2.3c-1.3,0-2.3,1-2.3,2.3
	C233.8,569.2,234.9,570.1,236.2,570.1z M237.5,598v-24.1h-2.7V598H237.5z"/>
<path class="st0" d="M251.2,598.5c4.9,0,8.2-3.2,8.2-7.2c0-3-1.8-4.5-4.2-5.8c-1.9-1-4.3-1.8-5.9-2.6c-1.6-0.8-2.6-2-2.6-3.6
	c0-2.2,1.6-3.9,4.7-3.9c2.3,0,4.2,0.9,5.4,2.9l1.9-1.5c-1.5-2.5-4.3-3.8-7.2-3.8c-4.6,0-7.4,2.9-7.4,6.4c0,2.3,1.3,4.3,3.8,5.6
	c1.6,0.9,4.1,1.7,5.8,2.5c1.7,0.9,3.1,1.9,3.1,3.9c0,2.4-2.1,4.5-5.5,4.5c-2.6,0-5-1.4-6.3-4.2l-2.2,1.4
	C244.5,597,247.8,598.5,251.2,598.5z"/>
<path class="st0" d="M275,566c1.4,0,2.7,0.3,4,1l0.9-2.2c-1.5-0.8-3.3-1.3-5.2-1.3c-4.9,0-8.3,3-8.3,8.5v1.9h-4.2v2.4h4.2V598h2.7
	v-21.7h9v-2.4h-9V572C269.2,568.1,271.3,566,275,566z"/>
<path class="st0" d="M282,598h2.7v-13.7c0-4.8,2.4-8.4,6.9-8.4c0.9,0,1.7,0.1,2.6,0.4l0.3-2.6c-1-0.3-2.1-0.4-3-0.4
	c-3.2,0-5.6,1.4-7,4.5v-3.9H282V598z"/>
<path class="st0" d="M308,598.6c6.1,0,9.9-3.9,9.9-10v-14.7h-2.7v14.6c0,4.7-2.7,7.6-7.2,7.6c-4.4,0-7.1-2.9-7.1-7.5v-14.6h-2.7
	v14.7C298.2,594.6,302,598.6,308,598.6z"/>
<path class="st0" d="M338.5,594.4c-1.4,1-3.2,1.7-5,1.7c-3.2,0-4.8-2.1-4.8-5.8v-13.9h9.9v-2.4h-9.9v-8.5h-2.7v8.5h-4.3v2.4h4.3
	v13.8c0,5.1,2.3,8.4,7.2,8.4c2.3,0,4.6-0.7,6.4-2.1L338.5,594.4z"/>
<path class="st0" d="M363,573.9v4.6c-2-3.2-5.4-5.2-9.5-5.2c-6.9,0-12,5.4-12,12.5c0,7.2,5.1,12.7,12,12.7c4.1,0,7.5-2,9.5-5.3v4.7
	h2.6v-24.1H363z M353.6,596.1c-5.6,0-9.4-4.5-9.4-10.2s3.8-10.1,9.4-10.1c5.7,0,9.6,4.5,9.6,10C363.2,591.5,359.3,596.1,353.6,596.1
	z"/>
<path class="st0" d="M372.9,598h2.7v-13.7c0-4.8,2.4-8.4,6.9-8.4c0.9,0,1.7,0.1,2.6,0.4l0.3-2.6c-1-0.3-2.1-0.4-3-0.4
	c-3.2,0-5.6,1.4-7,4.5v-3.9h-2.6V598z"/>
<path class="st0" d="M419,573.9v4.6c-2-3.2-5.4-5.2-9.5-5.2c-6.9,0-12,5.4-12,12.5c0,7.2,5.1,12.7,12,12.7c4.1,0,7.5-2,9.5-5.3v4.7
	h2.6v-24.1H419z M409.6,596.1c-5.6,0-9.4-4.5-9.4-10.2s3.8-10.1,9.4-10.1c5.7,0,9.6,4.5,9.6,10C419.2,591.5,415.3,596.1,409.6,596.1
	z"/>
<path class="st0" d="M46.3,652v-34h-2.7v34H46.3z"/>
<path class="st0" d="M64.6,652.6c7.2,0,12.5-5.6,12.5-12.6c0-7-5.3-12.6-12.5-12.6S52,632.9,52,639.9C52,647,57.3,652.6,64.6,652.6z
	 M64.6,650.1c-5.6,0-9.8-4.5-9.8-10.2c0-5.6,4.2-10.1,9.8-10.1c5.7,0,9.8,4.5,9.8,10.1C74.4,645.6,70.2,650.1,64.6,650.1z"/>
<path class="st0" d="M89,652.5c4.9,0,8.2-3.2,8.2-7.2c0-3-1.8-4.5-4.2-5.8c-1.9-1-4.3-1.8-5.9-2.6c-1.6-0.8-2.6-2-2.6-3.6
	c0-2.2,1.6-3.9,4.7-3.9c2.3,0,4.2,0.9,5.4,2.9l1.9-1.5c-1.5-2.5-4.3-3.8-7.2-3.8c-4.6,0-7.4,2.9-7.4,6.4c0,2.3,1.3,4.3,3.8,5.6
	c1.6,0.9,4.1,1.7,5.8,2.5c1.7,0.9,3.1,1.9,3.1,3.9c0,2.4-2.1,4.5-5.5,4.5c-2.6,0-5-1.4-6.3-4.2l-2.2,1.4
	C82.3,651,85.7,652.5,89,652.5z"/>
<path class="st0" d="M128.4,627.9v4.8c-2-3.4-5.4-5.4-9.6-5.4c-6.9,0-12,5.6-12,12.6s5.1,12.6,12,12.6c4.1,0,7.6-2,9.6-5.3v14.6h2.7
	v-34H128.4z M119,650.1c-5.6,0-9.4-4.5-9.4-10.1c0-5.6,3.8-10.1,9.4-10.1c5.7,0,9.6,4.6,9.6,10.2C128.6,645.5,124.7,650.1,119,650.1
	z"/>
<path class="st0" d="M148,652.6c6.1,0,9.9-3.9,9.9-10v-14.7h-2.7v14.6c0,4.7-2.7,7.6-7.2,7.6c-4.4,0-7.1-2.9-7.1-7.5v-14.6h-2.7
	v14.7C138.2,648.6,142,652.6,148,652.6z"/>
<path class="st0" d="M186.4,638.9c0-7.3-4.9-11.6-11.2-11.6c-7.3,0-12,5.4-12,12.6c0,6.3,3.6,12.6,12.5,12.6c4.2,0,8-1.6,10.1-3.3
	l-1.3-2.1c-2.2,1.7-5.7,2.9-8.8,2.9c-6.1,0-9.4-3.9-9.8-9h20.2C186.3,640.5,186.4,639.9,186.4,638.9z M175.2,629.8
	c4.9,0,8.3,3.3,8.4,8.7H166C166.6,633.3,170.1,629.8,175.2,629.8z"/>
<path class="st0" d="M222.9,627.9v4.6c-2-3.2-5.4-5.2-9.5-5.2c-6.9,0-12,5.4-12,12.5c0,7.2,5.1,12.7,12,12.7c4.1,0,7.5-2,9.5-5.3
	v4.7h2.6v-24.1H222.9z M213.6,650.1c-5.6,0-9.4-4.5-9.4-10.2s3.8-10.1,9.4-10.1c5.7,0,9.6,4.5,9.6,10
	C223.1,645.5,219.2,650.1,213.6,650.1z"/>
<path class="st0" d="M259.6,627.3c-3.5,0-7.1,1.7-8.6,5.2c-1.3-3.5-4.5-5.2-7.8-5.2c-3.4,0-6.3,1.7-7.6,4.7v-4h-2.7V652h2.7v-13.5
	c0-6.4,4.1-8.6,7.4-8.6c4,0,6.6,3,6.6,7.7V652h2.7v-14.4c0-5.6,4.1-7.8,7.3-7.8c4,0,6.6,2.7,6.6,7.4V652h2.7v-15
	C268.8,630.7,264.8,627.3,259.6,627.3z"/>
<path class="st0" d="M295.7,627.9v4.6c-2-3.2-5.4-5.2-9.5-5.2c-6.9,0-12,5.4-12,12.5c0,7.2,5.1,12.7,12,12.7c4.1,0,7.5-2,9.5-5.3
	v4.7h2.6v-24.1H295.7z M286.3,650.1c-5.6,0-9.4-4.5-9.4-10.2s3.8-10.1,9.4-10.1c5.7,0,9.6,4.5,9.6,10
	C295.9,645.5,292,650.1,286.3,650.1z"/>
<path class="st0" d="M311.9,652.5c4.9,0,8.2-3.2,8.2-7.2c0-3-1.8-4.5-4.2-5.8c-1.9-1-4.3-1.8-5.9-2.6c-1.6-0.8-2.6-2-2.6-3.6
	c0-2.2,1.6-3.9,4.7-3.9c2.3,0,4.2,0.9,5.4,2.9l1.9-1.5c-1.5-2.5-4.3-3.8-7.2-3.8c-4.6,0-7.4,2.9-7.4,6.4c0,2.3,1.3,4.3,3.8,5.6
	c1.6,0.9,4.1,1.7,5.8,2.5c1.7,0.9,3.1,1.9,3.1,3.9c0,2.4-2.1,4.5-5.5,4.5c-2.6,0-5-1.4-6.3-4.2l-2.2,1.4
	C305.2,651,308.5,652.5,311.9,652.5z"/>
<path class="st0" d="M326.8,652.7c1.2,0,2.2-0.9,2.2-2.2c0-1.2-1-2.1-2.2-2.1c-1.3,0-2.2,0.9-2.2,2.1S325.6,652.7,326.8,652.7z"/>
<path class="st1" d="M3,381v280c0,21.3,17.2,38.5,38.5,38.5h436v3h-436C18.6,702.5,0,683.9,0,661V381H3z"/>
<path class="st2" d="M290.4,16c13.7-10,33.1-19.1,55.7-15.1c21.1,3.7,35.9,13.1,45.7,25.6c9.8,12.5,14.5,27.9,15.6,43.3
	c1.1,15.5-1.4,31.1-6,44.2c-4.7,13-11.6,23.7-19.6,29.1c-18,12.1-36,10.9-50,6.7c-7-2.1-13-5.1-17.6-7.5c-1.8-1-3.3-1.8-4.6-2.6
	c-0.4-0.2-0.7-0.4-1.1-0.6c-0.7-0.4-1.4-0.8-1.9-1c-0.5-0.3-0.8-0.4-1-0.4c-0.3-0.1-1,0-2.2,1.3c-1.1,1.2-2.2,2.9-3.3,4.9
	c-0.8,1.5-1.6,3.1-2.4,4.6c-0.2,0.5-0.5,0.9-0.7,1.4c-0.9,1.8-1.8,3.5-2.6,4.4c-0.2,0.2-0.5,0.5-0.9,0.6c-0.4,0.2-0.8,0.2-1.2,0
	c-0.7-0.2-1.1-0.7-1.3-1.1c-0.5-0.7-1-1.9-1.4-3.1c-0.9-2.5-1.8-6.2-2.7-10.1c-0.2-0.7-0.3-1.5-0.5-2.2c-0.8-3.2-1.5-6.4-2.2-9.1
	c-0.5-1.7-0.9-3.2-1.3-4.4c0-0.1-0.1-0.2-0.1-0.3c-0.6,1.9-1.3,4.8-2.1,8.5c-1.4,6.3-2.9,14.6-4.6,23.5c-0.4,1.9-0.7,3.8-1.1,5.7
	c-2.1,11-4.3,22.5-6.5,31.7c-1.1,4.6-2.2,8.7-3.2,11.9c-0.5,1.6-1,3-1.6,4.2c-0.5,1.1-1.1,2.1-1.7,2.8c-2,2.2-4,3.3-6,3.1
	c-2-0.2-3.4-1.6-4.3-3c-1-1.4-1.6-3-2-4.3c-0.2-0.6-0.4-1.2-0.5-1.6c-0.1-0.2-0.1-0.4-0.1-0.5c0-0.1,0-0.1,0-0.1l0,0l0,0l0,0
	c0,0,0,0,1.5-0.3c-1.5,0.3-1.5,0.3-1.5,0.3v0l0,0l-0.1-0.3c0-0.2-0.1-0.5-0.2-0.8c-0.1-0.7-0.3-1.8-0.6-3.2
	c-0.5-2.7-1.3-6.6-2.3-11.3c-1.9-9.3-4.6-21.6-7.5-33.7c-3-12.1-6.3-24-9.4-32.5c-1.6-4.2-3.1-7.5-4.5-9.5c-0.7-1-1.3-1.6-1.7-1.8
	c-0.3-0.2-0.4-0.1-0.5-0.1l0,0c-2.3,1.4-5.6,4.5-9.4,8.5c-3.7,4-7.9,8.7-11.9,13.4c-0.4,0.5-0.8,0.9-1.2,1.4
	c-3.6,4.2-7.1,8.2-10.1,11.5c-1.7,1.8-3.2,3.4-4.6,4.6c-1.3,1.2-2.5,2.2-3.6,2.7c-2,0.9-4,1-6.5,0.6c-1.4-0.2-3.1-0.6-5.1-1
	c-1.6-0.3-3.3-0.7-5.4-1.1c-4.8-1-11.2-2.1-20.2-3.1c11.4,18.8,31,43.8,53,67.2c13.4,14.2,27.7,27.8,41.6,38.9
	c13.7,11,27,19.5,38.6,24c0.1-0.1,0.2-0.1,0.4-0.2c0.5-0.3,1.3-0.9,2.2-1.6c1.9-1.5,4.4-3.7,7.5-6.5c6.2-5.7,14.5-14,23.8-24.1
	c18.5-20.2,40.8-47.8,57.8-77c1-2.1,1.8-4.1,2.7-5.9c2.2-4.9,4-9,5.8-12.2c2.5-4.6,5.1-7.9,8.8-9.6c0.7-0.3,1.7-0.4,2.6-0.5
	c1,0,2.2,0,3.7,0.1c2.8,0.2,6.6,0.7,11,1.3c1.7,0.2,3.5,0.5,5.4,0.7c8,1.1,17.7,2.4,28.3,3.5c26.4,2.7,58.5,3.8,85.1-3.4
	c7.7-2.5,28.8-6,52.9,0c0.8,0.2,1.3,1,1.1,1.8c-0.2,0.8-1,1.3-1.8,1.1c-23.6-5.8-44.1-2.4-51.3,0c0,0-0.1,0-0.1,0
	c-27.2,7.4-59.7,6.2-86.2,3.5c-10.7-1.1-20.4-2.4-28.5-3.5c-1.9-0.3-3.7-0.5-5.4-0.7c-4.4-0.6-8.1-1-10.8-1.2
	c-1.4-0.1-2.5-0.1-3.3-0.1c-0.9,0-1.3,0.1-1.4,0.2c-2.8,1.3-5.1,3.9-7.5,8.3c-1.7,3.2-3.5,7.1-5.6,11.9c-0.9,1.9-1.8,4-2.8,6.2
	c0,0,0,0.1-0.1,0.1c-17.1,29.4-39.6,57.2-58.2,77.5c-9.3,10.2-17.7,18.5-23.9,24.3c-3.1,2.9-5.8,5.1-7.7,6.7c-1,0.8-1.8,1.4-2.5,1.8
	c-0.3,0.2-0.7,0.4-1,0.5c-0.2,0.1-0.7,0.3-1.2,0.2c-0.1,0-0.2,0-0.3-0.1c-12.1-4.6-25.8-13.4-39.9-24.6
	c-14-11.2-28.4-24.9-41.9-39.2c-22.9-24.2-43.2-50.4-54.6-69.6c-8.4-0.9-18.9-1.6-31.9-2.1c-18.2-0.5-65.2,0.3-107.2,7.4
	c-0.8,0.1-1.6-0.4-1.7-1.2c-0.1-0.8,0.4-1.6,1.2-1.7c42.3-7.1,89.5-7.9,107.8-7.4h0c12,0.4,21.9,1.1,30,1.9
	c-1.3-2.2-2.4-4.4-3.4-6.4c-9.5-19.5-14.7-48.1-8.9-73.9c5.8-25.9,22.7-49.1,57.1-57.3c31.6-7.6,53.5-0.9,67.4,7.9
	c7,4.4,11.9,9.2,15.1,13c1.6,1.9,2.8,3.5,3.6,4.7c0,0,0,0,0,0c0.1-0.1,0.1-0.1,0.2-0.2c1-1.2,2.4-2.9,4.3-4.9
	C278.2,26.2,283.6,21,290.4,16z M268.6,38.6L268.6,38.6L268.6,38.6C268.6,38.6,268.5,38.5,268.6,38.6c-0.1-0.2-0.2-0.3-0.2-0.4
	c-0.2-0.3-0.4-0.7-0.8-1.2c-0.7-1.1-1.8-2.6-3.4-4.4c-3.1-3.6-7.8-8.2-14.5-12.4c-13.3-8.3-34.3-14.9-65.1-7.5
	c-33.1,8-49.2,30.1-54.8,55.1c-5.6,25.1-0.6,52.9,8.6,71.9c1.2,2.5,2.7,5.2,4.3,8.1c10.2,1.1,17.4,2.3,22.7,3.4
	c2.2,0.4,4,0.8,5.6,1.2c2,0.4,3.5,0.8,4.8,1c2.3,0.4,3.5,0.3,4.7-0.3c0.6-0.3,1.5-1,2.8-2.2c1.3-1.2,2.7-2.7,4.4-4.5
	c3-3.2,6.5-7.2,10.1-11.4c0.4-0.5,0.8-0.9,1.2-1.4c4-4.7,8.2-9.5,12-13.5c3.8-4,7.3-7.3,10-9l0,0c1.2-0.7,2.4-0.6,3.5,0
	c1,0.6,1.8,1.5,2.6,2.7c1.6,2.3,3.2,5.9,4.8,10.2c3.2,8.6,6.5,20.6,9.5,32.8c3,12.2,5.7,24.5,7.6,33.8c1,4.7,1.7,8.6,2.3,11.3
	c0.3,1.4,0.5,2.4,0.6,3.2c0.1,0.4,0.1,0.6,0.2,0.8l0.1,0.3l0,0c0,0,0,0.1,0,0.1c0,0,0,0.1,0,0.2c0,0.1,0,0.1,0.1,0.2
	c0.1,0.3,0.2,0.8,0.4,1.4c0.4,1.1,0.9,2.5,1.7,3.5c0.8,1.1,1.5,1.6,2.2,1.7c0.6,0.1,1.8-0.2,3.5-2.1c0.3-0.3,0.7-1,1.2-2.1
	c0.5-1,0.9-2.3,1.4-3.9c1-3.1,2.1-7.1,3.1-11.6c2.1-9.1,4.3-20.5,6.4-31.6c0.4-1.9,0.7-3.8,1.1-5.7c1.7-8.9,3.3-17.3,4.6-23.6
	c0.8-3.8,1.6-6.9,2.2-8.9c0.3-1,0.7-1.9,1.1-2.4c0.2-0.2,0.5-0.8,1.2-0.9c0.4-0.1,0.8-0.1,1.2,0.1c0.4,0.2,0.6,0.4,0.7,0.6
	c0.6,0.7,1.1,1.9,1.5,3.1c0.5,1.3,0.9,2.9,1.4,4.6c0.8,2.8,1.5,6,2.3,9.2c0.2,0.7,0.3,1.5,0.5,2.2c0.9,3.9,1.8,7.4,2.6,9.8
	c0.2,0.5,0.3,1,0.5,1.3c0.4-0.7,0.9-1.6,1.4-2.7c0.2-0.4,0.4-0.9,0.7-1.3c0.8-1.5,1.6-3.2,2.5-4.8c1.1-2,2.4-4.1,3.7-5.5
	c1.3-1.4,3-2.7,5.1-2.1h0c0.5,0.1,1,0.4,1.5,0.6c0.6,0.3,1.2,0.7,2,1.1c0.3,0.2,0.7,0.4,1.1,0.6c1.3,0.7,2.8,1.6,4.5,2.5
	c4.5,2.4,10.3,5.2,17,7.3c13.5,4.1,30.5,5.1,47.5-6.3c7.2-4.8,13.8-14.9,18.4-27.6c4.6-12.7,7-28,5.9-43c-1.1-15-5.6-29.8-15-41.7
	c-9.3-11.9-23.4-20.9-43.9-24.5c-21.5-3.8-40.2,4.9-53.5,14.6c-6.6,4.8-11.9,9.9-15.6,13.8c-1.8,1.9-3.2,3.6-4.1,4.7
	c-0.5,0.6-0.8,1-1.1,1.3c-0.1,0.2-0.2,0.3-0.3,0.3c0,0-0.1,0.1-0.1,0.1l0,0l0,0c-0.3,0.4-0.8,0.6-1.3,0.6
	C269.3,39.3,268.8,39,268.6,38.6L268.6,38.6z M277.6,281C277.6,281,277.6,281,277.6,281C277.6,281,277.6,281,277.6,281z
	 M250.6,206.3l-1.5,0.3c0,0,0,0,0,0L250.6,206.3z M283.7,122.9C283.7,122.9,283.7,122.9,283.7,122.9
	C283.7,122.9,283.7,122.9,283.7,122.9z"/>
</svg>
