<svg width="24" height="24" viewBox="0 0 24 24" fill="none" xmlns="http://www.w3.org/2000/svg">
<g clip-path="url(#clip0)">
<path d="M19.96 4H17.15V3C17.15 2.45 16.7 2 16.15 2C15.6 2 15.15 2.45 15.15 3V4H9.15V3C9.15 2.45 8.7 2 8.15 2C7.6 2 7.15 2.45 7.15 3V4H3.78C2.3 4 1 5.23 1 6.63C1 7.18 1.45 7.63 2 7.63C2.55 7.63 3 7.18 3 6.63C3 6.43 3.29 6 3.78 6H7.15V7.13C7.15 7.68 7.6 8.13 8.15 8.13C8.7 8.13 9.15 7.68 9.15 7.13V6H15.15V7.13C15.15 7.68 15.6 8.13 16.15 8.13C16.7 8.13 17.15 7.68 17.15 7.13V6H19.96C20.56 6 21 6.33 21 6.63V19.36C21 19.66 20.56 19.99 19.96 19.99H4.04C3.44 19.99 3 19.66 3 19.36V11.76H17.61C18.16 11.76 18.61 11.31 18.61 10.76C18.61 10.21 18.16 9.76 17.61 9.76H2C1.45 9.76 1 10.21 1 10.76V19.37C1 20.82 2.36 22 4.04 22H19.97C21.64 22 23.01 20.82 23.01 19.37V6.63C23 5.18 21.64 4 19.96 4Z" fill="#131336"/>
</g>
<defs>
<clipPath id="clip0">
<rect x="1" y="2" width="22" height="19.99" fill="white"/>
</clipPath>
</defs>
</svg>
