<svg width="15" height="15" viewBox="0 0 15 15" fill="none" xmlns="http://www.w3.org/2000/svg">
<path d="M8.7025 7.2925L14.2925 1.7025C14.6825 1.3125 14.6825 0.6825 14.2925 0.2925C13.9025 -0.0975 13.2725 -0.0975 12.8825 0.2925L7.2925 5.8825L1.7025 0.2925C1.3125 -0.0975 0.6825 -0.0975 0.2925 0.2925C-0.0975 0.6825 -0.0975 1.3125 0.2925 1.7025L5.8825 7.2925L0.2925 12.8825C-0.0975 13.2725 -0.0975 13.9025 0.2925 14.2925C0.4925 14.4925 0.7425 14.5825 1.0025 14.5825C1.2625 14.5825 1.5125 14.4825 1.7125 14.2925L7.2925 8.7125L12.8825 14.3025C13.0825 14.5025 13.3325 14.5925 13.5925 14.5925C13.8525 14.5925 14.1025 14.4925 14.3025 14.3025C14.6925 13.9125 14.6925 13.2825 14.3025 12.8925L8.7025 7.2925Z" fill="#9194A7"/>
</svg>
