<svg width="24" height="24" viewBox="0 0 24 24" fill="none" xmlns="http://www.w3.org/2000/svg">
<g clip-path="url(#clip0)">
<path d="M14.84 2.13176C13.94 1.8472 13 2.01997 12.23 2.58907C11.46 3.16834 11 4.09314 11 5.06875V10.8309H8C7.45 10.8309 7 11.2883 7 11.8472C7 12.4061 7.45 12.8635 8 12.8635H11V15.9122C11 16.4712 11.45 16.9285 12 16.9285C12.55 16.9285 13 16.4712 13 15.9122V12.8635H16C16.55 12.8635 17 12.4061 17 11.8472C17 11.2883 16.55 10.8309 16 10.8309H13V5.06875C13 4.73338 13.15 4.42851 13.42 4.22525C13.56 4.11346 13.86 3.95086 14.25 4.07281C17.03 4.9468 20 7.4468 20 11.8675C20 16.3391 16.41 19.9773 12 19.9773C8.15 19.9773 4 16.8777 4 11.8675C4 8.6968 5.86 6.55249 6.43 5.97322C6.82 5.57688 6.82 4.93664 6.43 4.54029C6.03 4.13379 5.4 4.13379 5.01 4.53013C3.12 6.46103 2 9.20493 2 11.8675C2 18.1277 7.19 22.0098 12 22.0098C17.51 22.0098 22 17.457 22 11.8675C22 6.34924 18.3 3.21916 14.84 2.13176Z" fill="#131336"/>
</g>
<defs>
<clipPath id="clip0">
<rect x="2" y="2" width="20" height="20" fill="white"/>
</clipPath>
</defs>
</svg>
