<svg width="24" height="24" viewBox="0 0 24 24" fill="none" xmlns="http://www.w3.org/2000/svg">
<path fill-rule="evenodd" clip-rule="evenodd" d="M1.07043 12.16C2.85043 16.67 7.12043 19.58 11.9604 19.58C16.7904 19.58 21.0704 16.66 22.8504 12.15C22.9404 11.92 22.9404 11.66 22.8504 11.42C21.0704 6.91 16.8004 4 11.9604 4C7.12043 4 2.85043 6.91 1.07043 11.43C0.98043 11.66 0.98043 11.92 1.07043 12.16ZM11.9504 17.58C8.08043 17.58 4.64043 15.32 3.08043 11.79C4.64043 8.26 8.08043 6 11.9604 6C15.8304 6 19.2704 8.26 20.8204 11.79C19.2704 15.32 15.8304 17.58 11.9504 17.58ZM15.3504 11.79C15.3504 13.6622 13.8327 15.18 11.9604 15.18C10.0882 15.18 8.57043 13.6622 8.57043 11.79C8.57043 9.91775 10.0882 8.39999 11.9604 8.39999C13.8327 8.39999 15.3504 9.91775 15.3504 11.79Z" fill="#00B0CA"/>
</svg>
