<svg width="149" height="148" viewBox="0 0 149 148" fill="none" xmlns="http://www.w3.org/2000/svg">
<path d="M0.00628036 79.3186C0.00628036 79.3186 -1.14997 67.8618 27.9149 60.6997C56.9797 53.5375 84.6372 42.0807 91.9843 37.0659C99.3315 32.0511 136.404 24.1886 146.255 63.8579C156.761 106.17 116.933 130.398 104.941 133.735C74.1054 142.331 -0.0994339 117.627 0.00628036 79.3186Z" fill="#E5F6F9"/>
<path fill-rule="evenodd" clip-rule="evenodd" d="M73.0882 12.3952C43.3575 12.3952 19.2598 36.4929 19.2598 66.2236C19.2598 95.9541 43.3641 120.052 73.0882 120.052C102.819 120.052 126.917 95.9476 126.917 66.2236C126.917 65.8587 127.212 65.5628 127.577 65.5628C127.942 65.5628 128.238 65.8587 128.238 66.2236C128.238 96.6773 103.549 121.373 73.0882 121.373C42.6344 121.373 17.9384 96.684 17.9384 66.2236C17.9384 35.7631 42.6277 11.0737 73.0882 11.0737C82.0952 11.0737 90.5997 13.2312 98.1105 17.064C98.1462 17.0754 98.1815 17.0899 98.2159 17.1078L98.2116 17.1161C98.2117 17.1162 98.2115 17.1161 98.2116 17.1161C98.216 17.1079 98.2164 17.1081 98.2165 17.1081L98.2219 17.111L98.2375 17.1191L98.2968 17.1504C98.3485 17.1778 98.4244 17.2183 98.5226 17.2715C98.719 17.3779 99.0048 17.5349 99.3651 17.7392C100.086 18.1477 101.105 18.7454 102.305 19.5046C104.703 21.0214 107.833 23.1905 110.743 25.7907C111.441 26.4145 112.129 27.0652 112.792 27.7398C115.458 25.1137 119.513 22.8818 125.385 21.5041C125.74 21.4207 126.096 21.6411 126.179 21.9964C126.262 22.3516 126.042 22.7072 125.687 22.7905C119.976 24.1304 116.157 26.2731 113.703 28.6982C115.419 30.5721 116.911 32.6084 117.905 34.7476C119.451 38.0748 119.803 41.6849 117.886 45.2732C117.222 46.5138 116.325 47.2748 115.267 47.4797C114.22 47.6823 113.176 47.3094 112.276 46.6332C110.487 45.2897 109.012 42.5825 108.599 39.446C108.182 36.2812 108.833 32.6066 111.396 29.3067C111.553 29.1045 111.717 28.904 111.888 28.7053C111.238 28.0419 110.558 27.3977 109.863 26.776C107.026 24.2409 103.96 22.1153 101.599 20.6213C100.419 19.8751 99.4184 19.2884 98.7135 18.8888C98.3611 18.689 98.0828 18.5361 97.8934 18.4335C97.8036 18.3849 97.7339 18.3477 97.6856 18.322C97.6533 18.3114 97.6213 18.2981 97.5901 18.2821C90.2417 14.5165 81.914 12.3952 73.0882 12.3952ZM112.801 29.6711C112.676 29.8191 112.556 29.9678 112.44 30.1172C110.117 33.1088 109.533 36.42 109.909 39.2734C110.289 42.1552 111.634 44.4988 113.07 45.5766C113.781 46.1111 114.451 46.2915 115.015 46.1823C115.568 46.0754 116.18 45.6592 116.72 44.6504C118.397 41.5126 118.123 38.3512 116.707 35.3045C115.796 33.3454 114.418 31.4482 112.801 29.6711ZM76.6927 46.7312C77.0474 46.8172 77.2652 47.1744 77.1792 47.529C76.3912 50.7803 75.2881 55.7681 75.503 59.9242C75.6106 62.0039 76.0452 63.786 76.9348 65.0335C77.7949 66.2396 79.1295 67.0164 81.2414 67.0164C85.5596 67.0164 89.2872 64.0257 92.382 60.2327C94.7933 57.2774 96.7278 53.9554 98.2019 51.4239C98.6134 50.7173 98.989 50.0722 99.3291 49.5139C99.519 49.2023 99.9255 49.1036 100.237 49.2934C100.549 49.4833 100.647 49.8898 100.458 50.2014C100.137 50.7277 99.7758 51.3483 99.3751 52.0366C97.9005 54.5701 95.8914 58.0218 93.4058 61.0681C90.2552 64.9296 86.1864 68.3378 81.2414 68.3378C78.7448 68.3378 76.9906 67.3877 75.8589 65.8007C74.7566 64.255 74.2964 62.1776 74.1834 59.9924C73.9572 55.6187 75.1105 50.4547 75.895 47.2177C75.9809 46.8631 76.3381 46.6453 76.6927 46.7312ZM62.0486 47.3843C62.3965 47.4943 62.5894 47.8655 62.4794 48.2134C60.2264 55.3398 57.5229 59.0433 55.1359 60.9249C52.7425 62.8115 50.6972 62.8392 49.8653 62.661C49.8649 62.661 49.8645 62.6609 49.8642 62.6608L50.0028 62.0148L49.8664 62.6613C49.866 62.6612 49.8656 62.6611 49.8653 62.661C48.5515 62.3833 47.32 61.3008 46.6825 59.1044C46.0523 56.9331 45.9758 53.6154 46.936 48.668C47.0055 48.3098 47.3523 48.0758 47.7105 48.1453C48.0687 48.2148 48.3027 48.5616 48.2332 48.9198C47.2905 53.7774 47.4057 56.8554 47.9515 58.736C48.4899 60.5908 49.4185 61.2162 50.1393 61.3683L50.1415 61.3688C50.5723 61.4613 52.2196 61.541 54.3179 59.8871C56.4238 58.2271 59.0127 54.795 61.2194 47.8151C61.3294 47.4672 61.7007 47.2743 62.0486 47.3843ZM34.2117 70.3794C34.5766 70.3794 34.8725 70.6753 34.8725 71.0402C34.8725 75.4216 37.2549 84.729 43.4867 92.3478C49.6811 99.9208 59.6748 105.826 74.9852 103.522L74.9882 103.521C77.9879 103.084 84.0863 101.803 90.6571 97.3552C97.2206 92.9127 104.293 85.2862 109.211 72.0977C109.339 71.7558 109.719 71.582 110.061 71.7095C110.403 71.837 110.577 72.2175 110.45 72.5594C105.438 85.9977 98.1955 93.8485 91.3977 98.4495C84.6087 103.045 78.3003 104.374 75.181 104.828C59.3657 107.208 48.9237 101.082 42.4639 93.1844C36.0414 85.3326 33.551 75.7304 33.551 71.0402C33.551 70.6753 33.8468 70.3794 34.2117 70.3794Z" fill="#00ABC9"/>
</svg>
