<svg width="16" height="16" viewBox="0 0 16 16" fill="none" xmlns="http://www.w3.org/2000/svg">
<path fill-rule="evenodd" clip-rule="evenodd" d="M8 16C12.4183 16 16 12.4183 16 8C16 3.58172 12.4183 0 8 0C3.58172 0 0 3.58172 0 8C0 12.4183 3.58172 16 8 16ZM5.85503 12.1203V6.56369H4.02477V12.1203H5.85503ZM4.93989 5.80503C5.57814 5.80503 5.9754 5.37834 5.9754 4.8451C5.96351 4.29987 5.57814 3.88502 4.952 3.88502C4.32592 3.88502 3.91658 4.29987 3.91658 4.8451C3.91658 5.37834 4.31375 5.80503 4.92796 5.80503H4.93989ZM7.00481 12.1203H8.85954V9.03104C8.85954 8.8657 8.8716 8.70053 8.92058 8.58234C9.05466 8.252 9.35985 7.90988 9.87224 7.90988C10.5434 7.90988 10.8119 8.41717 10.8119 9.16085V12.1203H12.6665V8.94837C12.6665 7.2492 11.7515 6.45855 10.5312 6.45855C9.54725 6.45855 9.10609 6.99463 8.85959 7.37158V6.58836H7.00481C7.02915 7.10744 7.00481 12.1203 7.00481 12.1203ZM8.85959 7.37158V7.39063H8.84721L8.85959 7.37158Z" fill="#B8BCD5"/>
</svg>
