<svg width="20" height="20" viewBox="0 0 20 20" fill="none" xmlns="http://www.w3.org/2000/svg">
<path fill-rule="evenodd" clip-rule="evenodd" d="M10 20C15.5228 20 20 15.5228 20 10C20 4.47715 15.5228 0 10 0C4.47715 0 0 4.47715 0 10C0 15.5228 4.47715 20 10 20ZM4.00128 9.20662C4.00102 9.47092 4.00076 9.73524 4.00076 9.99957L4.00059 10.7803C4.00039 11.4049 4.00019 12.0295 4.00116 12.654C4.00253 13.46 4.24899 14.1841 4.76906 14.7996C5.43408 15.5867 6.29325 15.9909 7.32492 15.9954C9.04514 16.0026 10.7654 15.9998 12.4856 15.9969L12.6735 15.9966C13.472 15.9952 14.1892 15.7444 14.7992 15.2294C15.5867 14.5643 15.9909 13.7051 15.9953 12.6733C16.0025 10.9798 15.9997 9.28652 15.9969 7.59305L15.9964 7.32504C15.9951 6.52637 15.7445 5.80876 15.2291 5.19914C14.5588 4.40618 13.6929 4.00567 12.6534 4.00272C11.3185 3.99886 9.98352 3.99982 8.6485 4.00077C8.21374 4.00109 7.77897 4.0014 7.3442 4.00154C7.06803 4.00174 6.79522 4.03184 6.52653 4.09852C5.80997 4.27675 5.21536 4.65227 4.74939 5.22176C4.23424 5.85164 3.99663 6.58165 3.99998 7.39428C4.00244 7.99844 4.00186 8.60251 4.00128 9.20662ZM10.7482 14.9332L9.99427 14.9332L9.11916 14.9331C8.53578 14.933 7.95244 14.9329 7.36918 14.9332C6.91324 14.9334 6.48523 14.8301 6.10305 14.5757C5.48424 14.1638 5.13334 13.589 5.07689 12.8429C5.06744 12.719 5.06567 12.594 5.06567 12.4697C5.06538 11.6209 5.06538 10.7721 5.06538 9.92324C5.06538 9.07442 5.06538 8.2256 5.06508 7.37677C5.06469 6.6806 5.30938 6.09105 5.83259 5.62641C6.26257 5.24478 6.7724 5.06656 7.34439 5.06616C7.75922 5.06579 8.17405 5.0651 8.58888 5.06441H8.58889H8.58891C9.94392 5.06214 11.2989 5.05988 12.6538 5.06892C13.6139 5.07521 14.311 5.53061 14.7338 6.39379C14.8818 6.69594 14.9327 7.02269 14.9329 7.3569C14.9331 7.82259 14.9336 8.28828 14.9341 8.75396L14.9341 8.75764V8.75766V8.75767C14.9355 10.0507 14.937 11.3438 14.9307 12.6367C14.9262 13.5922 14.485 14.2921 13.6294 14.7223C13.3163 14.8797 12.9774 14.9328 12.6294 14.933C12.0035 14.9334 11.3777 14.9333 10.7518 14.9332H10.7518H10.7482ZM9.99981 6.90902C11.6987 6.91 13.0871 8.29782 13.0897 9.99763C13.0923 11.6974 11.69 13.098 9.99351 13.0898C8.28973 13.0817 6.90401 11.6921 6.90854 9.99625C6.91306 8.29507 8.30193 6.90804 9.99981 6.90902ZM12.025 10.0026C12.0297 8.89052 11.1202 7.97816 10.0024 7.97344C8.89044 7.96872 7.97797 8.87813 7.97325 9.99606C7.96853 11.1081 8.87766 12.0202 9.99587 12.0252C11.1076 12.0301 12.0203 11.1203 12.025 10.0026ZM12.4394 6.78273C12.4353 7.20802 12.7919 7.56467 13.2213 7.56427C13.6459 7.56368 13.9957 7.21668 14.0012 6.7904C14.0067 6.36785 13.6452 6.0059 13.2191 6.00787C12.7939 6.00983 12.4435 6.35782 12.4394 6.78273Z" fill="#B8BCD5"/>
</svg>
