
<svg width="340" height="128" viewBox="0 0 340 128" fill="none" xmlns="http://www.w3.org/2000/svg">
	<rect width="340" height="128" rx="16" fill="#E6F6F9"/>
	<mask id="mask0" mask-type="alpha" maskUnits="userSpaceOnUse" x="0" y="0" width="312" height="128">
	<rect width="312" height="128" rx="16" fill="#E6F6F9"/>
	</mask>
	<g mask="url(#mask0)">
	<g clip-path="url(#clip0)">
	<path d="M19.0595 128.333C21.3188 126.875 66.9954 113.433 68.4996 113.005C74.0127 111.422 79.6291 110.909 85.3424 111.207C88.1506 111.357 90.9459 111.584 93.7089 112.161C96.6333 112.771 99.3963 113.829 102.069 115.133C107.259 117.677 112.269 120.571 117.453 123.134C123.134 125.943 129.118 127.183 135.419 126.981C139.169 126.865 142.778 126.151 146.2 124.529C150.654 122.413 152.952 118.793 153.669 114.011C154.25 110.13 154.25 106.218 154.437 102.311C154.715 96.543 154.753 90.7616 155.515 85.0256C155.773 83.092 156.303 81.2232 157.142 79.4583C158.401 76.8174 160.583 75.2796 163.249 74.2998C166.096 73.2551 169.098 72.8204 172.022 72.0872C173.352 71.7498 174.663 71.3734 175.889 70.757C176.838 70.2768 177.309 69.5177 177.29 68.4535C177.277 67.8306 177.277 67.2077 177.29 66.5913C177.335 64.3397 176.916 62.2633 175.573 60.3621C174.521 58.8697 173.688 57.2151 172.803 55.6059C171.125 52.5498 171.022 49.2535 171.532 45.9248C172.403 40.2862 175.25 36.0036 180.447 33.4796C182.3 32.5776 184.314 32.2013 186.36 32.091C188.917 31.9482 191.467 31.9742 193.984 32.4998C195.895 32.8956 197.58 33.7521 198.942 35.1926C199.149 35.4067 199.355 35.5494 199.672 35.5689C202.138 35.7441 204.352 39.0663 202.854 42.2912C202.751 42.5183 202.609 42.8232 202.286 42.6221C202.028 42.4599 202.189 42.2198 202.293 42.0057C203.261 39.8709 202.493 37.4506 200.537 36.4514C200.427 36.393 200.292 36.38 200.175 36.3475C200.111 36.3346 200.04 36.3281 199.975 36.3151C199.982 36.38 199.988 36.4514 199.988 36.5163C200.44 37.6907 200.718 38.8911 200.395 40.1564C200.363 40.2927 200.401 40.4743 200.472 40.5976C202.17 43.5305 202.351 46.6905 201.822 49.9348C201.66 50.9146 201.847 51.7582 202.306 52.6082C202.822 53.562 203.268 54.5548 203.745 55.5346C204.158 56.3781 203.958 56.9751 203.113 57.3579C202.854 57.4747 202.577 57.5525 202.299 57.598C201.086 57.8056 201.105 57.7991 200.969 58.993C200.821 60.3297 200.782 61.6858 200.214 62.9446C198.762 66.1565 195.585 67.9863 191.919 67.7203C191.686 67.7008 191.454 67.6749 191.221 67.6684C189.698 67.597 189.749 67.2661 189.788 69.1154C189.827 70.8219 190.079 71.1463 191.499 71.5421C191.699 71.6005 191.893 71.646 192.106 71.5876C195.792 70.6272 199.523 70.8414 203.255 71.1723C206.786 71.4837 210.214 72.3727 213.668 73.1189C215.456 73.5017 217.27 73.7742 219.071 74.0922C219.278 74.1311 219.478 74.1506 219.633 73.9494C220.162 73.2681 220.769 72.7101 220.911 71.7238C221.143 70.0952 222.254 69.044 223.7 68.3302C225.314 67.5386 227.044 67.3699 228.767 67.6424C231.808 68.1161 234.797 68.8234 237.463 70.491C238.412 71.0879 239.258 71.8017 239.987 72.6452C240.31 73.0216 240.639 73.1319 241.13 73.0605C245.565 72.3986 250.007 71.7563 254.448 71.1139C254.79 71.062 255.016 70.9776 254.809 70.5818C254.629 70.2314 254.667 69.628 253.957 69.9329C252.518 70.5494 250.981 70.783 249.445 70.9582C245.384 71.4188 241.659 68.752 240.749 64.7485C240.594 64.0672 240.484 63.3729 240.342 62.6916C240.207 62.0492 240.187 61.3874 239.387 61.0629C238.903 60.8683 238.799 60.3167 239 59.7782C239.677 57.9613 240.349 56.138 241.027 54.3212C241.111 54.0941 241.162 53.7177 241.504 53.8345C241.898 53.9708 241.685 54.3082 241.595 54.5613C240.975 56.2613 240.349 57.9613 239.723 59.6614C239.445 60.4141 239.568 60.6347 240.336 60.8099C241.059 60.9786 241.769 60.8358 242.492 60.7644C242.763 60.7385 243.196 60.5049 243.247 60.9721C243.293 61.3938 242.821 61.3419 242.544 61.3938C242.085 61.4782 241.621 61.5106 241.162 61.5431C240.904 61.5625 240.768 61.6534 240.833 61.9259C241.214 63.5805 241.278 65.3325 242.227 66.8249C243.835 69.3619 246.23 70.452 249.129 70.3158C252.266 70.1665 255.139 69.1543 257.566 67.0649C257.753 66.9027 257.953 66.6107 258.205 66.9027C258.438 67.1753 258.166 67.3764 257.973 67.5386C257.269 68.1486 256.533 68.7325 255.687 69.1154C255.126 69.3684 255.068 69.6669 255.326 70.1925C255.597 70.7505 255.784 71.3475 255.991 71.9315C256.107 72.2559 256.126 72.5933 256.049 72.9242C256.004 73.1124 255.888 73.2681 255.675 73.2551C255.442 73.2422 255.397 73.067 255.41 72.8658C255.423 72.7101 255.468 72.5479 255.429 72.4051C255.371 72.1456 255.423 71.7433 255.081 71.6979C254.629 71.6395 254.145 71.6849 253.731 71.9185C253.576 72.0028 253.699 72.204 253.757 72.3402C254.79 74.9811 256.352 77.2716 258.283 79.3285C258.599 79.6595 258.812 79.6205 259.083 79.2831C261.026 76.8564 263.26 74.7021 265.526 72.5803C266.488 71.6784 267.475 70.8089 268.457 69.9329C268.76 69.6669 268.922 69.4593 268.444 69.1997C265.829 67.7657 265.1 65.4038 265.319 62.6267C265.364 62.0168 265.229 61.7832 264.648 61.5885C262.769 60.9526 261.071 59.9858 259.683 58.5258C259.399 58.2274 259.128 58.0457 258.676 58.1495C258.418 58.2079 257.953 58.3507 257.895 57.9224C257.831 57.4552 258.302 57.5785 258.58 57.5396C260.239 57.293 261.543 55.9174 261.866 54.0616C262.162 52.3292 261.452 50.7329 260.039 49.9543C258.915 49.3379 257.676 49.4741 256.772 50.3955C256.449 50.72 256.114 50.8433 255.687 50.8822C254.054 51.0444 252.44 50.8887 250.846 50.5578C250.174 50.415 249.568 50.1555 249.103 49.6299C248.967 49.4741 248.844 49.3119 248.593 49.3509C246.934 49.578 245.675 48.6695 244.403 47.839C242.905 46.8527 241.588 45.6523 240.549 44.1729C240.187 43.6538 240.058 43.8549 239.858 44.2767C238.748 46.5867 238.373 49.007 238.825 51.5375C239.084 52.991 239.38 54.438 239.645 55.8914C239.697 56.151 239.845 56.5338 239.458 56.6117C239.058 56.6896 239.077 56.2743 239.032 56.0147C238.632 53.8021 238.038 51.6154 238.044 49.3379C238.057 47.281 238.528 45.3344 239.542 43.537C240.149 42.4664 240.149 41.1816 240.736 40.111C240.788 40.0331 240.846 39.9488 240.749 39.8839C240.717 39.8644 240.633 39.9163 240.575 39.9358C238.593 40.8831 237.166 43.6668 237.392 46.1325C237.405 46.2622 237.424 46.392 237.444 46.5153C237.476 46.7489 237.541 47.0279 237.211 47.0733C236.889 47.1123 236.869 46.8073 236.843 46.5867C236.617 45.0294 236.811 43.524 237.605 42.1549C238.464 40.6755 239.471 39.3388 241.304 38.982C241.44 38.956 241.575 38.8327 241.672 38.7159C243.79 36.2308 246.611 35.1017 249.71 34.628C254.545 33.8818 259.199 34.4918 263.441 37.0808C266.514 38.9625 268.515 41.6748 269.038 45.3344C269.244 46.8008 268.799 48.2153 268.605 49.6493C268.36 51.4856 268.644 52.1085 270.213 53.0234C272.098 54.1265 272.459 55.288 271.555 57.3125C271.4 57.6629 271.265 58.0327 271.162 58.4026C270.974 59.0709 271.168 59.6289 271.697 60.0702C271.994 60.3167 272.317 60.5373 272.614 60.7839C273.673 61.6469 273.938 62.724 273.363 63.9634C273.169 64.3851 272.924 64.7874 272.705 65.1962C272.046 66.4226 272.291 67.5127 273.421 68.3237C273.905 68.6676 274.422 68.9596 275.016 69.0829C275.235 69.1283 275.422 69.2646 275.351 69.5177C275.274 69.7837 275.035 69.7577 274.835 69.6993C272.543 69.044 270.729 67.0909 272.291 64.6512C272.459 64.3916 272.588 64.1061 272.73 63.8271C273.279 62.7435 273.118 61.9973 272.162 61.2381C271.923 61.0435 271.652 60.8812 271.413 60.6866C270.535 59.9858 270.258 59.0579 270.619 57.9808C270.787 57.4942 271.007 57.0205 271.187 56.5338C271.614 55.4178 271.355 54.5678 270.387 53.8994C270.193 53.7696 269.993 53.6528 269.793 53.5361C268.198 52.6211 267.708 51.6414 267.953 49.8116C268.037 49.1951 268.108 48.5787 268.231 47.9688C268.967 44.426 267.572 41.6228 265.164 39.2155C263.008 37.0613 260.277 35.9907 257.34 35.4002C253.208 34.5696 249.167 34.7903 245.32 36.659C243.009 37.7815 241.349 39.501 240.685 42.0706C240.523 42.7 240.588 43.232 240.975 43.7511C242.473 45.7626 244.345 47.3069 246.598 48.3905C246.876 48.5268 247.172 48.6241 247.476 48.6955C248.444 48.9291 248.593 48.8058 248.748 47.813C248.909 46.7424 249.258 45.7432 250.097 45.0034C250.807 44.374 251.801 44.3156 252.369 44.8218C252.95 45.3473 252.95 46.2687 252.35 47.0798C252.227 47.242 252.079 47.3913 251.937 47.5405C251.407 48.0921 250.736 48.4295 250.097 48.8188C249.916 48.9291 249.58 48.9291 249.632 49.247C249.671 49.5001 249.948 49.5585 250.155 49.6623C250.813 49.9867 251.536 50.1035 252.247 50.1814C253.066 50.2658 253.893 50.2982 254.719 50.3177C255.416 50.3306 256.017 50.1879 256.624 49.6948C258.67 48.0531 261.749 49.3444 262.369 52.1085C262.853 54.2628 262.259 56.125 260.458 57.4747C259.974 57.838 260.019 58.0327 260.407 58.4026C261.827 59.7522 263.512 60.6217 265.358 61.1797C265.887 61.3419 266.075 61.5496 265.978 62.1076C265.894 62.6137 265.874 63.1393 265.887 63.6584C265.933 66.1436 267.049 67.9215 269.315 69.0116C271.265 69.9524 273.311 70.6986 275.171 71.8341C279.36 74.3907 281.704 78.1736 282.595 82.9622C283.608 88.4127 283.97 93.8956 283.776 99.437C283.602 104.381 283.744 109.319 284.047 114.27C284.357 119.357 287.217 122.206 291.516 124.068C295.37 125.742 299.45 126.521 303.588 126.962C310.263 127.676 316.932 127.598 323.588 126.676C329.953 125.794 336.099 124.042 342.135 121.875C347.99 119.779 353.749 117.411 359.733 115.704C364.187 114.439 368.719 113.569 373.342 113.245C373.555 113.232 373.897 113.05 373.961 113.465C374.026 113.881 373.703 113.829 373.458 113.848C365.362 114.406 357.706 116.749 350.166 119.578C344.394 121.745 338.63 123.945 332.645 125.495C326.519 127.085 320.302 127.935 313.975 128.026C308.417 128.104 302.885 127.792 297.436 126.586C294.247 125.878 291.155 124.892 288.392 123.082C285.713 121.323 284.002 118.974 283.615 115.659C282.95 110.001 282.988 104.336 283.156 98.6583C283.324 93.0132 282.937 87.4264 281.697 81.9046C280.542 76.772 277.359 73.3849 272.698 71.2501C271.807 70.8414 270.897 70.465 270.019 70.0303C269.651 69.8486 269.419 69.907 269.128 70.1665C265.836 73.1189 262.576 76.0972 259.709 79.4778C258.683 80.6847 258.657 80.7041 257.547 79.4908C255.662 77.4339 254.112 75.1498 253.144 72.5154C252.983 72.0742 252.802 71.9963 252.363 72.0677C248.819 72.5998 245.268 73.1189 241.717 73.6185C241.091 73.7094 240.93 73.8456 241.317 74.462C243.073 77.2457 243.609 80.3083 243.267 83.5527C243.209 84.0718 243.293 84.234 243.861 84.1626C245.675 83.9225 247.495 83.7279 249.322 83.5527C249.781 83.5073 250.019 83.3385 250.11 82.8843C250.291 81.9954 250.51 81.1194 250.71 80.237C250.762 79.9969 250.71 79.6205 251.072 79.666C251.478 79.7179 251.349 80.0877 251.311 80.3602C251.059 82.1381 250.471 83.8317 249.935 85.5317C249.567 86.6932 249.161 87.8417 248.999 89.0551C248.593 92.1242 249.671 93.7334 252.679 94.3888C253.409 94.551 253.609 94.8365 253.635 95.5632C253.822 100.696 253.757 105.822 253.493 110.948C253.46 111.597 253.647 111.642 254.17 111.428C256.372 110.533 258.483 109.436 260.574 108.313C262.737 107.152 264.848 105.919 266.836 104.466C267.869 103.707 268.334 102.811 268.334 101.52C268.315 96.822 267.908 92.1502 267.217 87.5108C266.965 85.8237 266.61 84.1496 266.307 82.4691C266.262 82.229 266.107 81.8851 266.443 81.7942C266.849 81.6839 266.856 82.0927 266.914 82.3523C267.463 84.8569 267.94 87.381 268.16 89.9375C268.218 90.6253 268.444 90.8589 269.154 90.82C272.175 90.6578 275.074 90.0154 277.85 88.789C278.314 88.5814 278.502 88.3478 278.469 87.8092C278.289 84.8569 278.108 81.911 277.437 79.0236C277.378 78.777 277.256 78.4396 277.585 78.3552C277.921 78.2709 277.959 78.6278 278.037 78.8679C278.437 80.1137 278.54 81.4114 278.663 82.6962C279.36 89.8532 279.444 97.0232 278.857 104.2C278.689 106.27 277.94 107.911 276.352 109.313C272.614 112.622 268.528 115.393 264.086 117.651C260.626 119.409 257.037 120.85 253.305 121.907C252.892 122.024 252.737 122.232 252.705 122.666C252.602 124.036 252.453 125.398 252.318 126.767C252.292 127.007 252.337 127.384 251.988 127.364C251.556 127.338 251.711 126.942 251.73 126.689C251.833 125.45 251.924 124.211 252.079 122.978C252.156 122.361 251.982 122.264 251.42 122.433C250.51 122.712 249.574 122.932 248.625 123.036C248.212 123.082 248.057 123.263 248.044 123.685C248.012 124.723 247.941 125.755 247.863 126.787C247.844 127.027 247.883 127.39 247.521 127.371C247.153 127.351 247.243 127.007 247.256 126.754C247.302 125.794 247.34 124.84 247.398 123.88C247.431 123.419 247.302 123.231 246.792 123.283C243.887 123.575 240.975 123.731 238.064 123.361C237.644 123.309 237.592 123.542 237.56 123.854C237.45 124.834 237.341 125.813 237.218 126.787C237.186 127.033 237.218 127.403 236.863 127.364C236.443 127.325 236.585 126.942 236.611 126.676C236.714 125.697 236.818 124.717 236.947 123.744C237.005 123.328 236.934 123.101 236.514 122.907C235.733 122.55 235.572 122.082 235.882 121.271C235.998 120.96 235.953 120.869 235.656 120.798C235.333 120.713 235.01 120.61 234.707 120.467C233.745 120.006 233.609 119.065 234.423 118.358C234.668 118.144 234.745 118.066 234.481 117.787C233.712 116.963 233.925 116.061 235.01 115.698C235.565 115.509 235.597 115.38 235.288 114.899C234.894 114.277 235.268 113.478 235.991 113.219C236.514 113.031 237.063 113.05 237.599 113.083C238.044 113.109 238.251 112.953 238.296 112.486C238.38 111.506 238.503 110.526 238.625 109.553C238.657 109.3 238.599 108.891 239.038 108.956C239.413 109.014 239.271 109.358 239.245 109.598C239.142 110.552 239.032 111.506 238.903 112.453C238.845 112.888 238.974 113.05 239.432 113.063C240.555 113.096 241.55 112.998 242.421 112.057C243.473 110.915 244.939 110.572 246.469 110.682C247.16 110.727 247.211 110.5 247.101 109.897C246.708 107.775 245.294 106.399 243.738 105.121C241.995 103.694 239.903 102.915 237.889 101.981C237.424 101.766 237.166 102.013 236.856 102.24C235.023 103.577 232.989 104.42 230.743 104.686C227.289 105.089 224.345 103.966 221.821 101.63C221.615 101.435 221.453 101.215 221.105 101.286C218.535 101.805 216.024 102.493 213.855 104.057C211.944 105.439 210.969 107.457 210.22 109.611C210.117 109.916 210.227 110.033 210.485 110.124C212.318 110.74 214.191 111.24 216.082 111.655C216.502 111.746 216.618 111.571 216.689 111.201C216.876 110.208 217.083 109.222 217.302 108.236C217.36 107.983 217.334 107.548 217.728 107.639C218.109 107.723 217.935 108.112 217.877 108.372C216.818 113.212 216.224 118.124 215.74 123.049C215.617 124.289 215.533 125.528 215.424 126.767C215.398 127.027 215.469 127.436 215.043 127.384C214.636 127.338 214.759 126.962 214.784 126.689C215.191 122.199 215.611 117.709 216.34 113.264C216.457 112.57 216.289 112.343 215.598 112.187C213.913 111.804 212.241 111.344 210.601 110.818C210.001 110.623 209.82 110.708 209.665 111.292C208.878 114.303 208.355 117.365 207.89 120.441C207.574 122.517 207.367 124.607 207.283 126.702C207.27 126.968 207.38 127.384 206.98 127.377C206.528 127.371 206.644 126.923 206.657 126.644C206.889 122.05 207.612 117.527 208.6 113.044C208.897 111.701 209.226 110.37 209.743 109.092C209.852 108.813 209.943 108.56 209.568 108.385C207.36 107.36 205.94 105.452 204.41 103.674C202.887 101.909 201.654 99.9301 200.466 97.9186C200.343 97.7175 200.279 97.3346 199.969 97.432C199.717 97.5098 199.865 97.8407 199.872 98.0549C200.214 107.301 200.64 116.541 200.647 125.794C200.647 126.209 200.634 126.625 200.621 127.04C200.614 127.202 200.55 127.358 200.363 127.377C200.137 127.403 200.033 127.254 200.007 127.059C199.988 126.904 199.995 126.748 199.995 126.592C199.988 115.496 199.614 104.414 198.923 93.3441C198.723 90.1127 198.503 86.8814 198.142 83.663C198.135 83.5851 198.122 83.5073 198.116 83.4294C198.097 83.2218 198.071 82.9622 198.329 82.9103C198.645 82.8454 198.703 83.1309 198.723 83.3645C198.878 84.8309 199.046 86.3039 199.162 87.7703C199.343 90.0673 199.491 92.3708 199.64 94.6678C199.665 95.0376 199.73 95.375 199.911 95.706C202.177 99.7679 204.707 103.629 208.193 106.769C208.619 107.158 209.103 107.438 209.601 107.717C210.02 107.95 210.22 107.846 210.42 107.418C211.034 106.12 211.796 104.92 212.906 103.986C214.688 102.487 216.799 101.682 219.006 101.079C219.297 101.001 219.633 101.04 219.91 100.748C218.658 100.183 217.405 99.6576 216.192 99.0606C215.611 98.7751 215.178 98.3858 214.797 97.8797C211.124 93.0521 208.548 87.66 206.625 81.924C206.082 80.3083 205.611 78.6667 204.539 77.2716C203.642 76.1037 202.551 75.2861 201.15 74.8189C198.452 73.917 195.656 73.3849 192.926 72.6257C192.306 72.4506 191.68 72.2818 191.066 72.0807C190.66 71.9509 190.556 72.0742 190.621 72.47C191.092 75.5846 190.13 78.4007 188.871 81.1713C188.568 81.8397 188.239 81.937 187.638 81.5477C187.096 81.1973 186.489 80.9572 185.934 80.6263C185.469 80.3473 185.353 80.5095 185.218 80.9702C184.895 82.0733 184.985 83.1698 185.063 84.2859C185.463 89.7883 185.863 95.2972 186.251 100.8C186.476 103.953 186.683 107.107 186.922 110.26C186.967 110.844 186.825 111.292 186.412 111.72C185.405 112.758 184.43 113.829 183.462 114.906C183.126 115.282 182.894 115.302 182.539 114.906C181.493 113.725 180.415 112.57 179.337 111.428C179.046 111.123 179.059 110.786 179.085 110.416C179.472 104.965 179.859 99.5083 180.253 94.0578C180.524 90.2879 180.795 86.5115 181.06 82.7416C181.105 82.0538 180.821 81.4244 180.692 80.7625C180.608 80.3408 180.363 80.477 180.124 80.6068C179.53 80.9248 178.923 81.2103 178.355 81.5606C177.787 81.911 177.471 81.8397 177.167 81.1973C175.76 78.219 174.856 75.1563 175.534 71.7043C173.901 72.2818 172.319 72.6971 170.725 73.0605C168.517 73.5666 166.296 74.0208 164.114 74.6697C159.615 76.0063 157.316 79.1534 156.419 83.5981C155.689 87.2253 155.599 90.9043 155.412 94.5769C155.121 100.268 155.037 105.971 154.598 111.655C154.379 114.517 153.85 117.32 152.397 119.844C150.622 122.913 147.846 124.756 144.612 125.904C137.485 128.422 130.312 128.059 123.14 126.073C119.68 125.113 116.542 123.413 113.379 121.771C109.622 119.824 105.891 117.819 102.14 115.866C97.3628 113.381 92.2499 112.194 86.8982 111.915C81.7789 111.649 76.6853 111.733 71.6564 112.875C69.0612 113.465 21.6932 128 19.0725 129.125C19.0595 128.846 19.0595 128.593 19.0595 128.333ZM193.255 45.8794C195.288 45.1657 197.942 43.1671 199.091 41.5255C200.253 39.8579 200.195 37.7037 198.936 36.101C198.122 35.0628 197.122 34.2257 195.895 33.7715C191.589 32.1753 187.161 32.2143 182.797 33.3238C178.103 34.5177 174.966 37.6777 173.197 42.1614C171.687 45.9832 171.332 49.9283 172.719 53.8605C173.488 56.0342 174.863 57.9289 176.025 59.9144C176.845 61.316 177.781 62.6332 177.807 64.3851C177.826 65.6764 177.923 66.9676 177.929 68.2654C177.929 69.2646 177.716 70.173 176.909 70.8349C176.619 71.0749 176.599 71.3085 176.767 71.6395C178.091 74.2998 179.969 76.4411 182.493 78.0113C182.913 78.2709 183.223 78.2255 183.61 77.9789C185.024 77.0575 186.367 76.0193 187.354 74.6502C188.458 73.1189 189.937 71.6914 189.22 69.4658C189.026 68.8623 189.465 68.0253 189.052 67.597C188.646 67.1753 187.839 67.3245 187.206 67.2012C186.967 67.1558 186.612 67.1688 186.677 66.7924C186.748 66.4096 187.064 66.5718 187.309 66.6043C189.201 66.8378 191.099 67.1882 193.01 67.0779C196.082 66.9027 198.439 65.5206 199.704 62.6072C200.33 61.1602 200.279 59.5705 200.453 58.0262C200.472 57.8316 200.44 57.6564 200.208 57.6109C199.975 57.5655 199.685 57.5331 199.782 57.2086C199.865 56.9231 200.156 57.001 200.382 57.014C201.157 57.0399 201.931 57.1113 202.687 56.8583C203.364 56.6312 203.474 56.3457 203.158 55.6968C202.77 54.9052 202.435 54.0876 201.989 53.3284C201.247 52.0696 201.04 50.7849 201.286 49.3314C201.583 47.6184 201.641 45.8729 201.208 44.1599C200.956 43.1477 200.685 42.1419 200.059 41.2335C198.361 43.829 195.992 45.4187 193.294 46.5932C193.074 46.6905 192.842 46.9371 192.583 46.7489C192.28 46.5218 192.512 46.2233 192.551 45.9573C192.661 45.2695 193.042 44.6336 192.951 43.803C192.771 43.9458 192.667 44.0107 192.577 44.095C190.337 46.2363 187.671 47.5794 184.714 48.3905C184.391 48.4814 184.107 48.5657 183.797 48.2672C182.151 46.6905 179.685 47.9039 179.085 49.7532C178.258 52.3032 180.014 55.4502 182.797 55.3983C183.358 55.3853 183.449 55.6059 183.126 56.0472C182.713 56.6182 182.229 57.1178 181.712 57.585C180.602 58.6037 179.408 59.4991 178.084 60.2129C177.884 60.3167 177.639 60.5114 177.471 60.2453C177.271 59.9209 177.619 59.8171 177.813 59.6679C177.89 59.603 177.994 59.577 178.084 59.5186C179.479 58.6686 180.783 57.7083 181.925 56.5273C182.248 56.1899 182.274 56.0342 181.757 55.872C179.362 55.0998 178.013 53.004 178.297 50.4994C178.665 47.2291 182.151 45.9767 184.03 47.6249C184.288 47.852 184.533 47.8195 184.817 47.7352C188.013 46.7684 190.86 45.2305 193.1 42.6805C193.255 42.4988 193.384 42.1549 193.694 42.2977C194.017 42.4469 193.907 42.7973 193.855 43.0633C193.662 43.9653 193.468 44.8672 193.255 45.8794ZM242.828 81.7878C242.686 77.4533 241.117 73.8261 237.521 71.2566C235.417 69.7513 232.964 69.1089 230.485 68.5703C228.942 68.2329 227.399 67.9928 225.811 68.2978C223.19 68.8039 220.737 70.7116 221.627 73.7353C221.679 73.917 221.686 74.1116 221.466 74.196C221.292 74.2674 221.143 74.1636 221.092 74.0143C220.866 73.3135 220.646 73.7223 220.414 74.0078C219.155 75.5327 218.451 77.3106 218.251 79.2442C218.045 81.2946 217.38 83.0011 215.585 84.1821C214.881 84.6428 215.017 85.2138 215.779 85.5966C216.269 85.8432 216.805 85.934 217.334 86.0508C217.515 86.0897 217.702 86.1352 217.728 86.3623C217.754 86.5894 217.606 86.7127 217.405 86.6997C216.992 86.6737 216.966 86.9657 216.915 87.2512C216.844 87.66 216.786 88.0688 216.702 88.4776C216.276 90.528 216.902 92.2345 218.445 93.5712C220.64 95.4724 223.216 95.8747 225.998 95.3231C226.269 95.2712 226.682 95.0052 226.766 95.4724C226.844 95.8941 226.372 95.9006 226.095 95.9201C225.559 95.959 225.475 96.2445 225.514 96.6987C225.565 97.3476 225.494 97.9835 225.204 98.5934C224.707 99.6381 223.868 100.3 222.828 100.696C222.17 100.949 222.241 101.163 222.712 101.539C223.642 102.292 224.623 102.947 225.746 103.376C229.529 104.816 232.983 103.992 236.269 101.89C236.798 101.552 236.785 101.325 236.191 101.105C235.339 100.78 234.539 100.313 234.416 99.3396C234.197 97.6266 234.584 96.0239 235.785 94.7327C236.734 93.7139 237.721 92.7147 238.761 91.7933C241.75 89.1135 242.654 85.6161 242.828 81.7878ZM242.46 112.894C243.473 112.894 244.429 112.901 245.378 112.888C245.61 112.888 245.894 112.804 245.939 113.122C245.991 113.498 245.662 113.498 245.41 113.511C245.074 113.537 244.739 113.543 244.403 113.55C241.905 113.589 239.4 113.615 236.902 113.66C236.43 113.667 235.882 113.673 235.817 114.283C235.759 114.861 236.327 114.938 236.721 115.068C237.457 115.315 238.231 115.399 239.006 115.412C240.168 115.425 241.33 115.425 242.486 115.432C242.712 115.432 243.015 115.38 243.041 115.698C243.073 116.093 242.731 116.016 242.486 116.041C242.408 116.048 242.331 116.041 242.253 116.048C240.065 116.197 237.87 116.139 235.681 116.184C235.255 116.191 234.803 116.282 234.72 116.781C234.629 117.32 235.107 117.469 235.488 117.592C236.327 117.858 237.205 117.969 238.083 117.975C239.452 117.988 240.814 117.962 242.182 117.956C242.389 117.956 242.634 117.93 242.666 118.209C242.705 118.501 242.46 118.52 242.253 118.546C241.969 118.572 241.685 118.605 241.408 118.605C239.6 118.617 237.799 118.617 235.991 118.624C235.733 118.624 235.475 118.637 235.223 118.663C234.887 118.702 234.629 118.897 234.571 119.234C234.506 119.61 234.771 119.805 235.081 119.909C235.494 120.045 235.914 120.188 236.346 120.253C238.348 120.558 240.362 120.415 242.369 120.382C242.615 120.376 243.034 120.214 243.034 120.655C243.034 121.07 242.621 120.953 242.363 120.96C240.839 121.012 239.322 121.038 237.799 121.083C237.489 121.09 237.186 121.122 236.882 121.181C236.605 121.232 236.424 121.44 236.379 121.713C236.327 122.011 236.54 122.186 236.779 122.316C237.263 122.589 237.799 122.686 238.335 122.738C241.872 123.095 245.41 122.991 248.89 122.329C253.725 121.408 258.334 119.74 262.763 117.586C267.779 115.146 272.427 112.148 276.488 108.281C277.43 107.379 278.03 106.367 278.134 105.063C278.179 104.524 278.289 103.986 278.327 103.447C278.657 98.9244 278.715 94.3953 278.534 89.8597C278.508 89.2692 278.353 89.2303 277.863 89.4444C275.009 90.6578 272.033 91.3521 268.928 91.4105C268.36 91.4234 268.392 91.696 268.437 92.0983C268.76 95.1609 268.967 98.2365 269.018 101.319C269.044 102.96 268.399 104.089 267.101 105.037C264.415 106.99 261.504 108.547 258.56 110.039C256.746 110.961 254.939 111.902 252.95 112.447C251.407 112.869 250.032 112.68 248.677 111.804C246.85 110.636 243.919 111.181 242.46 112.894ZM240.562 100.657C241.608 100.657 242.621 100.858 243.615 101.131C247.592 102.227 249.406 105.88 247.889 109.728C247.682 110.254 247.715 110.721 248.393 110.961C248.825 111.11 249.219 111.383 249.613 111.629C250.484 112.168 251.414 112.187 252.376 111.973C252.763 111.889 252.912 111.72 252.931 111.298C253.163 106.172 253.196 101.046 253.079 95.9136C253.066 95.2712 252.847 95.0441 252.247 94.8819C249.148 94.0384 248.05 92.3578 248.412 89.1394C248.58 87.66 249.064 86.2649 249.522 84.8634C249.768 84.1172 249.722 84.0718 248.935 84.1626C247.243 84.3573 245.559 84.5909 243.861 84.7466C243.293 84.7985 243.08 84.9997 242.957 85.5577C242.46 87.8222 241.556 89.8791 239.858 91.5273C238.728 92.6238 237.663 93.7918 236.501 94.8559C235.378 95.8876 235.055 97.2049 234.952 98.6259C234.907 99.2488 235.107 99.8457 235.681 100.157C236.643 100.676 237.573 101.293 238.793 100.851C239.342 100.657 239.968 100.715 240.562 100.657ZM183.042 82.5923C182.913 82.5923 182.784 82.6118 182.655 82.5923C181.899 82.4561 181.628 82.7481 181.609 83.5397C181.57 85.0386 181.422 86.5375 181.312 88.0299C180.776 95.4918 180.24 102.954 179.698 110.409C179.672 110.727 179.775 110.948 179.982 111.168C180.867 112.109 181.757 113.044 182.603 114.017C182.932 114.4 183.139 114.367 183.449 114.011C184.217 113.135 184.992 112.265 185.805 111.441C186.225 111.019 186.354 110.585 186.309 109.994C185.999 106.127 185.715 102.253 185.444 98.3793C185.101 93.5517 184.779 88.7242 184.443 83.8966C184.346 82.5924 184.333 82.5923 183.042 82.5923ZM193.565 71.9444C193.739 72.217 193.939 72.204 194.107 72.2494C195.708 72.6582 197.296 73.1319 198.91 73.4498C202.796 74.222 205.585 76.2205 206.702 80.185C206.812 80.5614 207.083 80.6393 207.399 80.6847C210.065 81.074 212.635 81.8591 215.191 82.6507C215.908 82.8714 216.353 82.7091 216.824 82.2225C217.121 81.9175 217.186 81.5542 217.263 81.1778C217.677 79.1274 217.812 77.0056 218.903 75.1433C219.2 74.6372 218.781 74.6697 218.484 74.6243C215.882 74.222 213.3 73.7158 210.743 73.0929C205.901 71.912 201.002 71.328 196.018 71.5746C195.217 71.62 194.398 71.6654 193.565 71.9444ZM223.706 96.1407C222.615 96.1148 221.55 95.946 220.536 95.5373C217.702 94.4017 215.088 92.0399 216.282 87.381C216.444 86.7581 216.379 86.4272 215.669 86.1936C214.423 85.7848 214.171 84.7012 215.062 83.7992C215.475 83.3775 215.294 83.2996 214.868 83.1763C212.59 82.5145 210.33 81.8137 207.987 81.4049C207.135 81.2557 207.102 81.2751 207.373 82.0733C209.149 87.381 211.544 92.3643 214.868 96.8869C215.482 97.7175 216.147 98.4247 217.121 98.8076C218.225 99.2423 219.297 99.7484 220.401 100.183C222.144 100.877 224.565 99.4824 224.894 97.6136C225.114 96.3094 225.004 96.1667 223.706 96.1407ZM189.872 72.0807C189.788 72.1002 189.749 72.1002 189.743 72.1131C188.387 74.6697 186.58 76.8174 184.114 78.3617C183.642 78.6537 183.894 78.8224 184.204 78.9911C185.366 79.6076 186.528 80.211 187.684 80.8469C188.129 81.0935 188.303 80.8988 188.491 80.5095C189.227 78.9846 189.724 77.3884 190.001 75.7208C190.208 74.501 190.285 73.2811 189.872 72.0807ZM176.206 71.912C176.122 72.204 176.083 72.2948 176.063 72.3857C175.56 75.3834 176.425 78.1152 177.665 80.7755C177.807 81.0805 177.994 81.0351 178.226 80.9118C179.453 80.2564 180.679 79.5946 181.906 78.9457C182.293 78.7381 182.235 78.5629 181.906 78.3488C181.473 78.0633 181.054 77.7713 180.641 77.4598C178.775 76.0128 177.38 74.1765 176.206 71.912ZM238.78 101.546C242.376 103.187 245.823 104.952 247.56 108.82C248.283 107.269 247.799 104.874 246.443 103.525C244.287 101.371 241.627 101.111 238.78 101.546ZM182.9 81.9824C184.411 81.9824 184.714 81.7034 184.772 80.3343C184.785 79.9904 183.462 79.095 182.977 79.1209C182.551 79.1469 181.196 79.9969 181.241 80.2434C181.351 80.795 181.409 81.4179 181.706 81.8591C181.938 82.19 182.539 81.924 182.9 81.9824ZM249.329 48.4684C250.387 47.9623 251.285 47.4951 251.904 46.6321C252.221 46.1909 252.427 45.6458 251.943 45.2435C251.498 44.8802 250.93 45.0489 250.542 45.4252C249.729 46.2168 249.438 47.2291 249.329 48.4684Z" fill="#00B0CA"/>
	<path d="M166.683 105.478C166.535 112.472 166.386 119.461 166.244 126.456C166.244 126.559 166.251 126.663 166.238 126.767C166.212 127.007 166.315 127.37 165.922 127.344C165.567 127.319 165.638 126.968 165.638 126.722C165.67 124.47 165.702 122.212 165.747 119.96C165.967 108.8 166.232 97.6393 166.748 86.4853C166.787 85.6547 166.819 84.8307 166.858 84.0001C166.871 83.7665 166.877 83.4616 167.168 83.4551C167.542 83.4551 167.484 83.7925 167.477 84.0455C167.4 86.2193 167.335 88.393 167.226 90.5667C166.961 95.537 166.871 100.507 166.683 105.478Z" fill="#00B0CA"/>
	<path d="M246.882 64.5732C246.83 64.5797 246.779 64.5927 246.727 64.5862C246.417 64.5473 245.907 64.7549 245.881 64.3137C245.843 63.7232 246.411 63.9893 246.708 63.9763C250.168 63.8465 252.853 61.1018 252.924 57.6109C252.924 57.533 252.918 57.4552 252.924 57.3773C252.937 57.1502 252.899 56.8452 253.234 56.8712C253.544 56.8906 253.512 57.1956 253.512 57.4162C253.525 58.2727 253.454 59.1292 253.137 59.9338C252.027 62.7953 249.897 64.2942 246.882 64.5732Z" fill="#00B0CA"/>
	<path d="M195.463 61.1083C192.164 61.0694 189.407 58.8632 188.633 55.7227C188.568 55.4502 188.407 55.1128 188.794 55.0089C189.169 54.9051 189.149 55.288 189.22 55.5151C190.337 59.2461 193.19 60.9785 197.038 60.2648C197.283 60.2194 197.613 60.0766 197.696 60.4205C197.78 60.7709 197.432 60.7968 197.193 60.8617C196.593 61.0369 195.979 61.1278 195.463 61.1083Z" fill="#00B0CA"/>
	<path d="M236.811 85.2721C236.824 87.4653 235.139 89.3535 232.925 89.5417C232.325 89.5936 232.363 89.8012 232.589 90.197C233.183 91.2352 233.913 92.1631 234.726 93.0391C234.881 93.2078 235.049 93.37 235.21 93.5387C235.365 93.7009 235.488 93.8761 235.288 94.0708C235.075 94.2784 234.913 94.0967 234.765 93.954C233.687 92.9028 232.751 91.7413 232.015 90.4176C231.84 90.0997 231.679 89.7753 231.531 89.4443C231.447 89.2627 231.317 89.0615 231.485 88.8669C231.653 88.6592 231.853 88.789 232.053 88.8279C234.565 89.3081 236.785 86.8619 236.069 84.4156C235.636 82.9232 234.197 82.19 232.783 82.7999C232.221 83.04 232.112 82.8454 232.053 82.3522C231.873 80.8533 231.272 79.5232 230.433 78.2838C230.298 78.0892 229.981 77.875 230.278 77.6285C230.614 77.3559 230.788 77.7323 230.937 77.9399C231.692 79.0041 232.26 80.159 232.538 81.4438C232.634 81.885 232.712 82.0797 233.261 82.0148C235.249 81.7747 236.798 83.2282 236.811 85.2721Z" fill="#00B0CA"/>
	<path d="M223.603 90.8655C221.982 90.8525 220.724 90.1193 219.904 88.6139C219.613 88.0818 219.658 87.7963 220.285 87.5952C222.757 86.7971 225.223 85.973 227.683 85.123C228.257 84.9218 228.412 85.1424 228.496 85.6486C228.942 88.244 227.069 90.567 224.294 90.833C224.093 90.8525 223.887 90.8525 223.603 90.8655ZM223.835 90.249C226.088 90.2425 227.799 88.7502 227.954 86.5505C227.999 85.947 227.883 85.681 227.199 85.9211C225.139 86.6413 223.067 87.3421 220.988 88.0104C220.388 88.2051 220.478 88.4711 220.756 88.8345C221.492 89.8078 222.473 90.2815 223.835 90.249Z" fill="#00B0CA"/>
	<path d="M222.686 73.0085C222.88 73.0475 222.957 73.1837 222.99 73.3395C223.119 73.9689 223.422 74.4815 223.9 74.9032C224.048 75.033 224.126 75.2017 223.99 75.3769C223.848 75.5586 223.674 75.5002 223.519 75.3769C222.925 74.8903 222.531 74.2738 222.402 73.5082C222.357 73.2616 222.37 73.0345 222.686 73.0085Z" fill="#00B0CA"/>
	<path d="M224.352 73.9428C224.352 73.7481 224.339 73.5535 224.591 73.5275C224.81 73.5081 224.926 73.6638 224.952 73.852C225.042 74.4943 225.359 75.0005 225.83 75.4287C225.978 75.565 226.05 75.7337 225.92 75.9024C225.778 76.0971 225.598 76.0127 225.449 75.8959C224.829 75.3898 224.461 74.7344 224.352 73.9428Z" fill="#00B0CA"/>
	<path d="M226.288 74.5072C226.262 74.3126 226.301 74.1244 226.508 74.0725C226.734 74.0206 226.818 74.1958 226.869 74.3839C227.018 74.9939 227.276 75.5454 227.78 75.9477C227.934 76.071 228.038 76.2332 227.902 76.4084C227.741 76.616 227.547 76.5382 227.36 76.4149C226.927 76.1294 226.301 75.0263 226.288 74.5072Z" fill="#00B0CA"/>
	<path d="M228.219 75.0395C228.199 74.8189 228.238 74.6437 228.451 74.5982C228.677 74.5463 228.806 74.7021 228.826 74.8902C228.91 75.5391 229.258 76.0387 229.691 76.4864C229.826 76.6227 229.949 76.7719 229.781 76.9471C229.626 77.1094 229.458 77.0185 229.297 76.9212C228.838 76.6292 228.225 75.5586 228.219 75.0395Z" fill="#00B0CA"/>
	</g>
	</g>
	<path d="M27.822 67.622C27.458 67.622 27.15 67.902 27.15 68.294C27.15 68.672 27.458 68.952 27.822 68.952C28.2 68.952 28.508 68.672 28.508 68.294C28.508 67.916 28.2 67.622 27.822 67.622ZM28.214 70.044H27.43V71.122C27.43 72.69 24.574 73.39 24.574 75.63C24.574 77.31 25.988 78.346 27.556 78.346C28.662 78.346 29.754 77.8 30.454 76.932L29.908 76.386C29.32 77.072 28.494 77.562 27.584 77.562C26.324 77.562 25.414 76.736 25.414 75.63C25.414 73.698 28.214 73.138 28.214 71.094V70.044ZM36.5738 75.154C38.5198 75.154 40.1438 74.216 41.0958 72.928L40.4798 72.424C39.5978 73.614 38.1698 74.342 36.5878 74.342C34.0538 74.342 32.1358 72.466 32.1358 69.848C32.1358 67.188 34.0958 65.298 36.6018 65.298C38.2398 65.298 39.6818 66.096 40.4378 67.258L41.0958 66.768C40.2558 65.438 38.5338 64.472 36.6018 64.472C33.7178 64.472 31.2678 66.67 31.2678 69.862C31.2678 73.026 33.6618 75.154 36.5738 75.154ZM45.8299 66.306H46.5439L47.7339 64.066H46.6699L45.8299 66.306ZM46.2779 75.182C48.5319 75.182 50.1699 73.446 50.1699 71.248C50.1699 69.064 48.5319 67.328 46.2779 67.328C44.0239 67.328 42.3859 69.064 42.3859 71.248C42.3859 73.446 44.0239 75.182 46.2779 75.182ZM46.2779 74.412C44.5279 74.412 43.2259 73.012 43.2259 71.248C43.2259 69.498 44.5279 68.098 46.2779 68.098C48.0419 68.098 49.3299 69.498 49.3299 71.248C49.3299 73.012 48.0419 74.412 46.2779 74.412ZM60.4667 67.314C59.3747 67.314 58.2687 67.846 57.7787 68.938C57.3587 67.846 56.3787 67.314 55.3427 67.314C54.2927 67.314 53.3967 67.846 52.9767 68.77V67.51H52.1507V75H52.9907V70.786C52.9907 68.784 54.2647 68.098 55.2867 68.098C56.5327 68.098 57.3307 69.022 57.3307 70.506V75H58.1707V70.52C58.1707 68.784 59.4307 68.098 60.4387 68.098C61.6847 68.098 62.4967 68.952 62.4967 70.408V75H63.3367V70.338C63.3367 68.378 62.0767 67.314 60.4667 67.314ZM69.1061 75.182C71.3601 75.182 72.9981 73.446 72.9981 71.248C72.9981 69.064 71.3601 67.328 69.1061 67.328C66.8521 67.328 65.2141 69.064 65.2141 71.248C65.2141 73.446 66.8521 75.182 69.1061 75.182ZM69.1061 74.412C67.3561 74.412 66.0541 73.012 66.0541 71.248C66.0541 69.498 67.3561 68.098 69.1061 68.098C70.8701 68.098 72.1581 69.498 72.1581 71.248C72.1581 73.012 70.8701 74.412 69.1061 74.412ZM82.4839 67.314C81.1819 67.314 80.1179 67.958 79.4879 69.036V67.51H78.6479V78.08H79.4879V73.502C80.1179 74.538 81.1819 75.168 82.4839 75.168C84.6259 75.168 86.2079 73.432 86.2079 71.248C86.2079 69.064 84.6259 67.314 82.4839 67.314ZM82.4419 74.398C80.6639 74.398 79.4599 72.984 79.4599 71.276C79.4599 69.54 80.6639 68.098 82.4419 68.098C84.1779 68.098 85.3679 69.498 85.3679 71.248C85.3679 72.998 84.1779 74.398 82.4419 74.398ZM91.5701 75.182C93.8241 75.182 95.4621 73.446 95.4621 71.248C95.4621 69.064 93.8241 67.328 91.5701 67.328C89.3161 67.328 87.6781 69.064 87.6781 71.248C87.6781 73.446 89.3161 75.182 91.5701 75.182ZM91.5701 74.412C89.8201 74.412 88.5181 73.012 88.5181 71.248C88.5181 69.498 89.8201 68.098 91.5701 68.098C93.3341 68.098 94.6221 69.498 94.6221 71.248C94.6221 73.012 93.3341 74.412 91.5701 74.412ZM103.631 64.43V68.98C103.001 67.958 101.951 67.342 100.663 67.342C98.5209 67.342 96.9389 69.078 96.9389 71.262C96.9389 73.446 98.5069 75.196 100.663 75.196C101.937 75.196 103.001 74.594 103.631 73.544V75H104.471V64.43H103.631ZM100.705 74.412C98.9689 74.412 97.7789 73.012 97.7789 71.262C97.7789 69.512 98.9689 68.112 100.705 68.112C102.469 68.112 103.687 69.526 103.687 71.234C103.687 72.984 102.469 74.412 100.705 74.412ZM113.683 70.926C113.683 68.658 112.157 67.328 110.197 67.328C107.929 67.328 106.473 69.008 106.473 71.234C106.473 73.18 107.607 75.168 110.365 75.168C111.681 75.168 112.857 74.664 113.515 74.132L113.123 73.488C112.451 74.02 111.359 74.384 110.379 74.384C108.475 74.384 107.467 73.18 107.341 71.584H113.641C113.655 71.416 113.683 71.234 113.683 70.926ZM110.197 68.098C111.709 68.098 112.787 69.134 112.815 70.814H107.341C107.509 69.19 108.615 68.098 110.197 68.098ZM123.939 67.314C122.847 67.314 121.741 67.846 121.251 68.938C120.831 67.846 119.851 67.314 118.815 67.314C117.765 67.314 116.869 67.846 116.449 68.77V67.51H115.623V75H116.463V70.786C116.463 68.784 117.737 68.098 118.759 68.098C120.005 68.098 120.803 69.022 120.803 70.506V75H121.643V70.52C121.643 68.784 122.903 68.098 123.911 68.098C125.157 68.098 125.969 68.952 125.969 70.408V75H126.809V70.338C126.809 68.378 125.549 67.314 123.939 67.314ZM132.578 75.182C134.832 75.182 136.47 73.446 136.47 71.248C136.47 69.064 134.832 67.328 132.578 67.328C130.324 67.328 128.686 69.064 128.686 71.248C128.686 73.446 130.324 75.182 132.578 75.182ZM132.578 74.412C130.828 74.412 129.526 73.012 129.526 71.248C129.526 69.498 130.828 68.098 132.578 68.098C134.342 68.098 135.63 69.498 135.63 71.248C135.63 73.012 134.342 74.412 132.578 74.412ZM140.397 75.168C141.909 75.168 142.945 74.16 142.945 72.942C142.945 72.018 142.399 71.528 141.629 71.15C141.027 70.842 140.299 70.59 139.795 70.352C139.291 70.1 138.983 69.736 138.983 69.218C138.983 68.546 139.487 68 140.453 68C141.167 68 141.769 68.294 142.133 68.91L142.721 68.434C142.245 67.65 141.391 67.258 140.467 67.258C139.025 67.258 138.171 68.154 138.171 69.246C138.171 69.974 138.577 70.59 139.361 70.996C139.865 71.262 140.635 71.514 141.153 71.78C141.685 72.046 142.105 72.382 142.105 72.998C142.105 73.74 141.447 74.412 140.397 74.412C139.599 74.412 138.857 73.978 138.423 73.11L137.751 73.53C138.311 74.678 139.361 75.168 140.397 75.168ZM31.308 88.51V89.952C30.678 88.944 29.628 88.328 28.354 88.328C26.212 88.328 24.63 89.994 24.63 92.22C24.63 94.446 26.212 96.182 28.354 96.182C29.628 96.182 30.678 95.566 31.308 94.544V96H32.12V88.51H31.308ZM28.396 95.412C26.646 95.412 25.47 93.998 25.47 92.248C25.47 90.498 26.646 89.098 28.396 89.098C30.16 89.098 31.378 90.512 31.378 92.22C31.378 93.97 30.16 95.412 28.396 95.412ZM39.7655 88.51L37.3155 94.908L34.6415 88.51H33.7175L36.9095 96L36.7275 96.476C36.2655 97.68 35.7475 98.394 34.9355 98.394C34.5715 98.394 34.2915 98.296 34.0115 98.17L33.8855 98.912C34.1655 99.066 34.5435 99.178 34.9635 99.178C36.1255 99.178 36.7975 98.436 37.5255 96.56L40.6895 88.51H39.7655ZM45.215 96.182C47.119 96.182 48.281 94.978 48.281 93.074V88.51H47.441V93.046C47.441 94.502 46.615 95.398 45.215 95.398C43.843 95.398 43.003 94.502 43.003 93.06V88.51H42.163V93.074C42.163 94.95 43.353 96.182 45.215 96.182ZM56.8485 85.43V89.98C56.2185 88.958 55.1685 88.342 53.8805 88.342C51.7385 88.342 50.1565 90.078 50.1565 92.262C50.1565 94.446 51.7245 96.196 53.8805 96.196C55.1545 96.196 56.2185 95.594 56.8485 94.544V96H57.6885V85.43H56.8485ZM53.9225 95.412C52.1865 95.412 50.9965 94.012 50.9965 92.262C50.9965 90.512 52.1865 89.112 53.9225 89.112C55.6865 89.112 56.9045 90.526 56.9045 92.234C56.9045 93.984 55.6865 95.412 53.9225 95.412ZM66.355 88.51V89.952C65.725 88.944 64.675 88.328 63.401 88.328C61.259 88.328 59.677 89.994 59.677 92.22C59.677 94.446 61.259 96.182 63.401 96.182C64.675 96.182 65.725 95.566 66.355 94.544V96H67.167V88.51H66.355ZM63.443 95.412C61.693 95.412 60.517 93.998 60.517 92.248C60.517 90.498 61.693 89.098 63.443 89.098C65.207 89.098 66.425 90.512 66.425 92.22C66.425 93.97 65.207 95.412 63.443 95.412ZM69.6606 96H70.5006V91.73C70.5006 90.246 71.2426 89.112 72.6566 89.112C72.9226 89.112 73.1886 89.154 73.4546 89.238L73.5526 88.44C73.2306 88.356 72.9086 88.314 72.6286 88.314C71.6346 88.314 70.8786 88.748 70.4586 89.714V88.51H69.6606V96ZM79.4863 94.88C79.0383 95.202 78.4923 95.398 77.9183 95.398C76.9103 95.398 76.4343 94.74 76.4343 93.578V89.252H79.5143V88.51H76.4343V85.864H75.6083V88.51H74.2643V89.252H75.5943V93.55C75.5943 95.132 76.3083 96.168 77.8483 96.168C78.5623 96.168 79.2903 95.958 79.8363 95.524L79.4863 94.88ZM87.8474 91.926C87.8474 89.658 86.3214 88.328 84.3614 88.328C82.0934 88.328 80.6374 90.008 80.6374 92.234C80.6374 94.18 81.7714 96.168 84.5294 96.168C85.8454 96.168 87.0214 95.664 87.6794 95.132L87.2874 94.488C86.6154 95.02 85.5234 95.384 84.5434 95.384C82.6394 95.384 81.6314 94.18 81.5054 92.584H87.8054C87.8194 92.416 87.8474 92.234 87.8474 91.926ZM84.3614 89.098C85.8734 89.098 86.9514 90.134 86.9794 91.814H81.5054C81.6734 90.19 82.7794 89.098 84.3614 89.098ZM91.2987 93.746H92.0827V92.668C92.0827 91.1 94.9387 90.4 94.9387 88.16C94.9387 86.48 93.5247 85.444 91.9567 85.444C90.8507 85.444 89.7587 85.99 89.0587 86.858L89.6047 87.404C90.1927 86.718 91.0327 86.228 91.9287 86.228C93.1887 86.228 94.0987 87.054 94.0987 88.16C94.0987 90.092 91.2987 90.652 91.2987 92.696V93.746ZM91.7047 96.168C92.0547 96.168 92.3627 95.888 92.3627 95.496C92.3627 95.118 92.0547 94.838 91.7047 94.838C91.3127 94.838 91.0047 95.118 91.0047 95.496C91.0047 95.874 91.3127 96.168 91.7047 96.168Z" fill="#00B0CA"/>
	<path d="M26.8 36.48C26.1 36.48 25.56 37 25.56 37.72C25.56 38.4 26.1 38.92 26.8 38.92C27.48 38.92 28.02 38.4 28.02 37.72C28.02 37 27.48 36.48 26.8 36.48ZM25.86 40.24L25.78 51.5H27.78L27.68 40.24H25.86ZM31.0563 47H32.9163V40.3H40.5363V47H42.3763V32.22H40.5363V38.52H32.9163V32.22H31.0563V47ZM50.6158 47.26C53.8958 47.26 56.2158 44.76 56.2158 41.64C56.2158 38.56 53.8958 36.04 50.6158 36.04C47.3358 36.04 45.0158 38.56 45.0158 41.64C45.0158 44.76 47.3358 47.26 50.6158 47.26ZM50.6158 45.62C48.4758 45.62 46.8158 43.82 46.8158 41.64C46.8158 39.5 48.4758 37.68 50.6158 37.68C52.7558 37.68 54.4158 39.5 54.4158 41.64C54.4158 43.82 52.7558 45.62 50.6158 45.62ZM60.3469 47V31.86H58.5669V47H60.3469ZM71.8911 36.3V37.88C70.9311 36.68 69.6111 36.04 68.0711 36.04C64.9911 36.04 62.7111 38.38 62.7111 41.58C62.7111 44.78 64.9911 47.26 68.0711 47.26C69.6111 47.26 70.9311 46.64 71.8911 45.46V47H73.6111V36.3H71.8911ZM68.2511 45.62C65.9511 45.62 64.5111 43.82 64.5111 41.66C64.5111 39.5 65.9511 37.68 68.2511 37.68C70.5511 37.68 72.0311 39.5 72.0311 41.64C72.0311 43.82 70.5511 45.62 68.2511 45.62ZM91.2342 47H93.5342L87.0742 39.2L92.9742 32.22H90.7742L83.8142 40.42V32.22H81.9742V47H83.8142V42.86L85.8542 40.44L91.2342 47ZM102.711 36.3V37.88C101.751 36.68 100.431 36.04 98.8914 36.04C95.8114 36.04 93.5314 38.38 93.5314 41.58C93.5314 44.78 95.8114 47.26 98.8914 47.26C100.431 47.26 101.751 46.64 102.711 45.46V47H104.431V36.3H102.711ZM99.0714 45.62C96.7714 45.62 95.3314 43.82 95.3314 41.66C95.3314 39.5 96.7714 37.68 99.0714 37.68C101.371 37.68 102.851 39.5 102.851 41.64C102.851 43.82 101.371 45.62 99.0714 45.62ZM107.473 47H109.253V41.24C109.253 38.82 110.613 37.74 112.233 37.74C112.593 37.74 112.953 37.8 113.333 37.92L113.493 36.18C113.033 36.06 112.633 36.02 112.253 36.02C110.813 36.02 109.793 36.62 109.153 37.9V36.3H107.473V47ZM124.482 41.46C124.482 38.06 122.302 36.04 119.342 36.04C116.122 36.04 113.962 38.44 113.962 41.62C113.962 44.4 115.602 47.24 119.642 47.24C121.542 47.24 123.282 46.5 124.222 45.74L123.462 44.36C122.462 45.08 120.962 45.58 119.682 45.58C117.222 45.58 116.102 44.1 115.842 42.4H124.422C124.442 42.16 124.482 41.9 124.482 41.46ZM119.342 37.66C121.082 37.66 122.502 38.84 122.602 40.8H115.842C116.142 38.98 117.482 37.66 119.342 37.66ZM126.809 47H128.589V41.04C128.589 39.08 129.829 37.68 131.609 37.68C133.209 37.68 134.409 38.82 134.409 41.04V47H136.189V40.52C136.189 37.46 134.169 36.02 131.949 36.02C130.449 36.02 129.209 36.66 128.549 37.82V36.3H126.809V47ZM139.574 43.48H141.394L141.494 32.22H139.494L139.574 43.48ZM140.514 47.24C141.194 47.24 141.734 46.72 141.734 46C141.734 45.32 141.194 44.8 140.514 44.8C139.814 44.8 139.274 45.32 139.274 46C139.274 46.72 139.814 47.24 140.514 47.24Z" fill="#00B0CA"/>
	<defs>
	<clipPath id="clip0">
	<path d="M64 32H374V128H64V32Z" fill="white"/>
	</clipPath>
	</defs>
</svg>