<svg width="632" height="136" viewBox="0 0 632 136" fill="none" xmlns="http://www.w3.org/2000/svg">
<rect width="632" height="136" rx="16" fill="#E6F6F9"/>
<g clip-path="url(#clip0)">
<path d="M187.752 136.416C190.58 134.593 247.749 117.791 249.632 117.256C256.532 115.277 263.562 114.636 270.712 115.009C274.227 115.196 277.726 115.479 281.184 116.201C284.844 116.964 288.302 118.286 291.648 119.916C298.144 123.096 304.414 126.713 310.902 129.917C318.012 133.429 325.503 134.978 333.389 134.727C338.083 134.581 342.6 133.688 346.882 131.661C352.457 129.016 355.334 124.491 356.231 118.513C356.958 113.663 356.958 108.772 357.192 103.889C357.54 96.6785 357.588 89.4518 358.542 82.2818C358.865 79.8647 359.527 77.5288 360.578 75.3227C362.153 72.0215 364.884 70.0993 368.221 68.8745C371.785 67.5687 375.542 67.0253 379.202 66.1087C380.867 65.687 382.507 65.2165 384.042 64.446C385.23 63.8458 385.82 62.8968 385.795 61.5667C385.779 60.788 385.779 60.0094 385.795 59.2389C385.852 56.4244 385.327 53.8289 383.646 51.4524C382.329 49.5869 381.287 47.5187 380.18 45.5072C378.079 41.687 377.95 37.5667 378.588 33.4058C379.679 26.3575 383.242 21.0043 389.746 17.8492C392.065 16.7218 394.586 16.2514 397.148 16.1135C400.347 15.935 403.539 15.9675 406.69 16.6245C409.082 17.1192 411.191 18.1899 412.896 19.9905C413.154 20.2581 413.413 20.4366 413.809 20.4609C416.895 20.6799 419.667 24.8326 417.792 28.8637C417.663 29.1476 417.485 29.5288 417.081 29.2774C416.758 29.0746 416.96 28.7745 417.089 28.5068C418.301 25.8384 417.34 22.813 414.891 21.564C414.754 21.491 414.584 21.4747 414.439 21.4342C414.358 21.418 414.269 21.4099 414.188 21.3936C414.196 21.4747 414.204 21.564 414.204 21.6451C414.77 23.1131 415.118 24.6136 414.714 26.1953C414.673 26.3656 414.722 26.5927 414.81 26.7468C416.936 30.4129 417.162 34.3629 416.499 38.4183C416.297 39.643 416.532 40.6975 417.105 41.76C417.752 42.9523 418.309 44.1932 418.907 45.418C419.424 46.4724 419.174 47.2186 418.115 47.6971C417.792 47.8431 417.445 47.9404 417.097 47.9972C415.578 48.2568 415.602 48.2486 415.433 49.741C415.247 51.4119 415.198 53.107 414.487 54.6806C412.669 58.6954 408.694 60.9827 404.105 60.6501C403.814 60.6258 403.523 60.5934 403.232 60.5853C401.325 60.496 401.39 60.0824 401.438 62.394C401.487 64.5271 401.802 64.9327 403.579 65.4274C403.83 65.5004 404.072 65.5572 404.339 65.4842C408.952 64.2838 413.623 64.5515 418.293 64.9651C422.713 65.3544 427.003 66.4656 431.326 67.3984C433.564 67.8769 435.835 68.2176 438.089 68.615C438.347 68.6637 438.598 68.688 438.792 68.4366C439.454 67.5849 440.214 66.8874 440.392 65.6545C440.683 63.6187 442.072 62.3048 443.882 61.4126C445.902 60.423 448.068 60.2122 450.225 60.5528C454.031 61.1449 457.772 62.029 461.109 64.1135C462.297 64.8597 463.355 65.7519 464.268 66.8063C464.672 67.2767 465.084 67.4146 465.698 67.3254C471.249 66.4981 476.808 65.6951 482.367 64.8921C482.795 64.8272 483.078 64.7218 482.82 64.227C482.593 63.789 482.642 63.0347 481.753 63.4159C479.951 64.1865 478.028 64.4785 476.105 64.6975C471.023 65.2733 466.361 61.9398 465.221 56.9354C465.028 56.0837 464.89 55.2159 464.712 54.3642C464.543 53.5613 464.518 52.734 463.517 52.3284C462.911 52.0851 462.781 51.3957 463.032 50.7225C463.88 48.4514 464.72 46.1723 465.569 43.9012C465.674 43.6174 465.739 43.1469 466.167 43.2929C466.66 43.4633 466.393 43.885 466.28 44.2013C465.504 46.3264 464.72 48.4514 463.937 50.5765C463.589 51.5173 463.743 51.7931 464.704 52.0121C465.609 52.223 466.498 52.0445 467.403 51.9553C467.742 51.9229 468.284 51.6309 468.348 52.2149C468.405 52.7421 467.815 52.6772 467.468 52.7421C466.894 52.8475 466.312 52.8881 465.739 52.9286C465.415 52.9529 465.246 53.0665 465.326 53.4072C465.803 55.4754 465.884 57.6653 467.072 59.5308C469.084 62.7022 472.081 64.0648 475.709 63.8945C479.636 63.7079 483.232 62.4426 486.27 59.8309C486.504 59.6282 486.755 59.2632 487.07 59.6282C487.361 59.9688 487.021 60.2203 486.779 60.423C485.898 61.1855 484.977 61.9154 483.918 62.394C483.216 62.7103 483.143 63.0834 483.466 63.7404C483.805 64.4379 484.04 65.1841 484.298 65.9141C484.444 66.3196 484.468 66.7414 484.371 67.155C484.314 67.3903 484.169 67.5849 483.902 67.5687C483.611 67.5525 483.555 67.3335 483.571 67.082C483.587 66.8874 483.644 66.6846 483.595 66.5062C483.523 66.1817 483.587 65.6789 483.159 65.6221C482.593 65.5491 481.987 65.6059 481.47 65.8979C481.276 66.0033 481.43 66.2547 481.503 66.4251C482.795 69.7262 484.751 72.5893 487.167 75.1604C487.563 75.5741 487.829 75.5254 488.169 75.1037C490.601 72.0702 493.396 69.3774 496.232 66.7252C497.436 65.5978 498.672 64.5109 499.901 63.4159C500.28 63.0834 500.482 62.8238 499.884 62.4994C496.612 60.7069 495.699 57.7546 495.974 54.2831C496.03 53.5207 495.861 53.2287 495.133 52.9854C492.782 52.1905 490.657 50.982 488.92 49.1571C488.564 48.784 488.225 48.5569 487.66 48.6866C487.336 48.7596 486.755 48.9381 486.682 48.4028C486.601 47.8188 487.191 47.9729 487.538 47.9242C489.615 47.616 491.247 45.8965 491.651 43.5768C492.023 41.4112 491.134 39.4159 489.364 38.4426C487.958 37.6721 486.407 37.8424 485.276 38.9942C484.872 39.3997 484.452 39.5538 483.918 39.6025C481.874 39.8053 479.854 39.6106 477.858 39.1969C477.018 39.0185 476.259 38.6941 475.677 38.0371C475.507 37.8424 475.354 37.6397 475.039 37.6883C472.962 37.9722 471.386 36.8367 469.795 35.7985C467.92 34.5657 466.272 33.0651 464.971 31.2159C464.518 30.567 464.357 30.8184 464.106 31.3456C462.717 34.2331 462.248 37.2585 462.814 40.4217C463.137 42.2385 463.508 44.0472 463.84 45.8641C463.904 46.1885 464.09 46.667 463.605 46.7644C463.104 46.8617 463.129 46.3426 463.072 46.0182C462.571 43.2524 461.828 40.519 461.836 37.6721C461.852 35.101 462.442 32.6677 463.711 30.421C464.47 29.0827 464.47 27.4768 465.205 26.1385C465.27 26.0412 465.343 25.9357 465.221 25.8546C465.181 25.8303 465.076 25.8952 465.003 25.9195C462.523 27.1037 460.737 30.5832 461.02 33.6653C461.036 33.8276 461.06 33.9898 461.085 34.1439C461.125 34.4359 461.206 34.7846 460.794 34.8414C460.39 34.8901 460.365 34.5089 460.333 34.2331C460.05 32.2865 460.293 30.4048 461.286 28.6934C462.361 26.8441 463.622 25.1733 465.916 24.7272C466.086 24.6948 466.256 24.5406 466.377 24.3946C469.027 21.2882 472.558 19.8769 476.436 19.2848C482.488 18.3521 488.314 19.1145 493.622 22.3507C497.469 24.7029 499.973 28.0932 500.628 32.6677C500.886 34.5008 500.329 36.2689 500.086 38.0614C499.779 40.3568 500.135 41.1354 502.098 42.2791C504.458 43.6579 504.91 45.1098 503.779 47.6403C503.585 48.0783 503.415 48.5406 503.286 49.003C503.052 49.8384 503.294 50.5359 503.957 51.0874C504.328 51.3957 504.732 51.6714 505.104 51.9796C506.429 53.0584 506.761 54.4048 506.041 55.954C505.799 56.4812 505.492 56.984 505.217 57.495C504.393 59.028 504.7 60.3906 506.114 61.4044C506.72 61.8343 507.367 62.1993 508.11 62.3534C508.385 62.4102 508.619 62.5805 508.53 62.8968C508.433 63.2294 508.134 63.1969 507.884 63.1239C505.015 62.3048 502.745 59.8634 504.7 56.8137C504.91 56.4893 505.072 56.1324 505.25 55.7836C505.936 54.4291 505.734 53.4964 504.539 52.5474C504.24 52.3041 503.9 52.1013 503.601 51.858C502.502 50.982 502.155 49.8222 502.607 48.4758C502.818 47.8674 503.092 47.2754 503.318 46.667C503.852 45.272 503.529 44.2094 502.317 43.374C502.074 43.2118 501.824 43.0658 501.573 42.9198C499.577 41.7762 498.963 40.5515 499.27 38.2642C499.375 37.4937 499.464 36.7231 499.618 35.9607C500.539 31.5322 498.794 28.0283 495.78 25.0192C493.081 22.3264 489.663 20.9881 485.987 20.25C480.816 19.2118 475.758 19.4876 470.942 21.8235C468.049 23.2267 465.973 25.3761 465.141 28.588C464.939 29.3747 465.019 30.0398 465.504 30.6887C467.379 33.203 469.722 35.1334 472.542 36.4879C472.889 36.6583 473.261 36.7799 473.641 36.8691C474.853 37.1611 475.039 37.007 475.233 35.7661C475.435 34.4278 475.871 33.1787 476.921 32.2541C477.81 31.4673 479.054 31.3943 479.765 32.027C480.493 32.6839 480.493 33.8357 479.741 34.8495C479.588 35.0523 479.402 35.2389 479.224 35.4254C478.561 36.1148 477.721 36.5366 476.921 37.0232C476.695 37.1611 476.275 37.1611 476.339 37.5586C476.388 37.8749 476.735 37.9479 476.994 38.0776C477.818 38.4832 478.723 38.6292 479.612 38.7265C480.638 38.832 481.672 38.8725 482.706 38.8968C483.579 38.9131 484.331 38.7346 485.09 38.1182C487.651 36.0662 491.506 37.6802 492.281 41.1354C492.887 43.8282 492.144 46.1561 489.89 47.8431C489.284 48.2973 489.34 48.5406 489.825 49.003C491.603 50.69 493.711 51.7769 496.022 52.4744C496.685 52.6772 496.919 52.9367 496.798 53.6343C496.693 54.2669 496.669 54.9239 496.685 55.5727C496.741 58.6792 498.139 60.9016 500.975 62.2642C503.415 63.4403 505.977 64.373 508.304 65.7924C513.548 68.9881 516.481 73.7167 517.596 79.7025C518.864 86.5156 519.317 93.3693 519.074 100.296C518.856 106.476 519.034 112.649 519.414 118.837C519.802 125.196 523.381 128.757 528.762 131.085C533.586 133.177 538.693 134.151 543.872 134.702C552.227 135.594 560.573 135.497 568.904 134.345C576.87 133.242 584.563 131.052 592.117 128.343C599.446 125.723 606.653 122.763 614.143 120.63C619.718 119.048 625.391 117.961 631.176 117.556C631.443 117.54 631.871 117.313 631.952 117.832C632.032 118.351 631.628 118.286 631.321 118.31C621.189 119.008 611.606 121.936 602.169 125.472C594.945 128.181 587.73 130.931 580.24 132.869C572.572 134.856 564.791 135.919 556.873 136.032C549.916 136.13 542.991 135.74 536.172 134.232C532.18 133.348 528.31 132.115 524.852 129.852C521.498 127.654 519.357 124.718 518.872 120.573C518.04 113.5 518.089 106.42 518.299 99.3227C518.509 92.2662 518.024 85.2828 516.473 78.3805C515.026 71.9648 511.043 67.7309 505.209 65.0624C504.094 64.5515 502.955 64.081 501.856 63.5376C501.395 63.3105 501.105 63.3835 500.741 63.7079C496.62 67.3984 492.54 71.1212 488.952 75.347C487.668 76.8556 487.635 76.8799 486.246 75.3632C483.886 72.7921 481.947 69.9371 480.735 66.6441C480.533 66.0925 480.307 65.9952 479.757 66.0844C475.321 66.7495 470.877 67.3984 466.433 68.0229C465.65 68.1364 465.448 68.3068 465.932 69.0773C468.13 72.5569 468.801 76.3852 468.373 80.4406C468.3 81.0895 468.405 81.2922 469.116 81.203C471.386 80.9029 473.665 80.6596 475.952 80.4406C476.525 80.3838 476.824 80.1729 476.937 79.6052C477.164 78.494 477.438 77.399 477.689 76.296C477.753 75.9959 477.689 75.5254 478.141 75.5822C478.65 75.6471 478.489 76.1094 478.44 76.4501C478.125 78.6724 477.39 80.7894 476.719 82.9144C476.259 84.3663 475.75 85.8019 475.548 87.3186C475.039 91.155 476.388 93.1665 480.153 93.9857C481.066 94.1885 481.317 94.5454 481.349 95.4538C481.583 101.869 481.503 108.277 481.171 114.685C481.131 115.496 481.365 115.552 482.02 115.285C484.775 114.166 487.417 112.795 490.035 111.392C492.742 109.94 495.384 108.399 497.873 106.582C499.165 105.633 499.747 104.514 499.747 102.9C499.723 97.0273 499.214 91.1875 498.349 85.3882C498.034 83.2794 497.59 81.1868 497.21 79.0861C497.153 78.786 496.96 78.3561 497.38 78.2426C497.889 78.1047 497.897 78.6157 497.97 78.9401C498.656 82.0709 499.254 85.226 499.529 88.4217C499.602 89.2814 499.885 89.5734 500.773 89.5247C504.555 89.322 508.183 88.519 511.657 86.9861C512.239 86.7265 512.473 86.4345 512.433 85.7613C512.206 82.0709 511.98 78.3886 511.14 74.7792C511.067 74.471 510.914 74.0493 511.326 73.9438C511.746 73.8384 511.794 74.2845 511.891 74.5846C512.392 76.1419 512.522 77.764 512.675 79.37C513.548 88.3162 513.653 97.2787 512.918 106.249C512.707 108.837 511.77 110.889 509.782 112.641C505.104 116.777 499.99 120.241 494.431 123.063C490.1 125.261 485.607 127.062 480.937 128.384C480.42 128.53 480.226 128.789 480.186 129.333C480.056 131.044 479.87 132.747 479.701 134.459C479.668 134.759 479.725 135.229 479.289 135.205C478.747 135.173 478.941 134.678 478.965 134.362C479.095 132.812 479.208 131.263 479.402 129.722C479.499 128.952 479.281 128.83 478.578 129.041C477.438 129.39 476.267 129.665 475.079 129.795C474.562 129.852 474.368 130.079 474.352 130.606C474.311 131.904 474.223 133.194 474.126 134.483C474.101 134.783 474.15 135.237 473.697 135.213C473.237 135.189 473.35 134.759 473.366 134.443C473.423 133.242 473.471 132.05 473.544 130.85C473.584 130.274 473.423 130.038 472.784 130.103C469.148 130.468 465.504 130.663 461.86 130.201C461.335 130.136 461.27 130.428 461.23 130.817C461.093 132.042 460.955 133.267 460.802 134.483C460.761 134.791 460.802 135.254 460.357 135.205C459.832 135.156 460.01 134.678 460.042 134.345C460.171 133.121 460.301 131.896 460.462 130.679C460.535 130.16 460.446 129.876 459.921 129.633C458.943 129.187 458.741 128.603 459.129 127.589C459.275 127.2 459.218 127.086 458.846 126.997C458.442 126.891 458.038 126.762 457.659 126.583C456.455 126.007 456.285 124.831 457.303 123.947C457.61 123.68 457.707 123.582 457.376 123.233C456.414 122.203 456.681 121.076 458.038 120.622C458.733 120.387 458.774 120.224 458.386 119.624C457.893 118.845 458.362 117.848 459.267 117.523C459.921 117.288 460.608 117.313 461.278 117.353C461.836 117.386 462.094 117.191 462.151 116.607C462.256 115.382 462.41 114.157 462.563 112.941C462.604 112.624 462.531 112.113 463.08 112.195C463.549 112.268 463.371 112.697 463.339 112.998C463.21 114.19 463.072 115.382 462.911 116.566C462.838 117.11 462.999 117.313 463.573 117.329C464.979 117.369 466.223 117.248 467.314 116.072C468.631 114.644 470.465 114.214 472.38 114.352C473.245 114.409 473.309 114.125 473.172 113.371C472.679 110.718 470.91 108.999 468.962 107.401C466.781 105.617 464.163 104.643 461.642 103.475C461.06 103.208 460.737 103.516 460.349 103.8C458.055 105.471 455.509 106.525 452.697 106.858C448.375 107.361 444.69 105.957 441.531 103.037C441.272 102.794 441.07 102.518 440.634 102.608C437.418 103.256 434.275 104.116 431.56 106.071C429.169 107.798 427.949 110.321 427.011 113.014C426.882 113.395 427.019 113.541 427.343 113.655C429.637 114.425 431.98 115.05 434.348 115.569C434.873 115.682 435.019 115.463 435.107 115.001C435.342 113.76 435.6 112.527 435.875 111.294C435.948 110.978 435.915 110.435 436.408 110.548C436.885 110.654 436.667 111.14 436.594 111.465C435.269 117.515 434.526 123.655 433.92 129.811C433.766 131.361 433.661 132.91 433.524 134.459C433.491 134.783 433.58 135.294 433.047 135.229C432.538 135.173 432.691 134.702 432.724 134.362C433.233 128.749 433.758 123.136 434.671 117.58C434.817 116.712 434.606 116.428 433.742 116.234C431.633 115.755 429.54 115.179 427.488 114.522C426.737 114.279 426.51 114.384 426.316 115.114C425.331 118.878 424.676 122.706 424.094 126.551C423.698 129.146 423.44 131.758 423.335 134.378C423.319 134.71 423.456 135.229 422.955 135.221C422.389 135.213 422.535 134.654 422.551 134.305C422.842 128.562 423.747 122.909 424.983 117.304C425.355 115.625 425.767 113.963 426.413 112.365C426.551 112.016 426.664 111.7 426.195 111.481C423.432 110.199 421.654 107.815 419.739 105.592C417.832 103.386 416.289 100.912 414.802 98.398C414.649 98.1466 414.568 97.668 414.18 97.7897C413.865 97.887 414.051 98.3007 414.059 98.5684C414.487 110.126 415.021 121.676 415.029 133.242C415.029 133.761 415.012 134.28 414.996 134.8C414.988 135.002 414.907 135.197 414.673 135.221C414.39 135.254 414.261 135.067 414.229 134.824C414.204 134.629 414.213 134.435 414.213 134.24C414.204 120.37 413.736 106.517 412.871 92.6799C412.621 88.6407 412.346 84.6015 411.894 80.5785C411.886 80.4812 411.869 80.3838 411.861 80.2865C411.837 80.027 411.805 79.7025 412.128 79.6376C412.524 79.5565 412.597 79.9134 412.621 80.2054C412.815 82.0384 413.025 83.8796 413.17 85.7127C413.396 88.5839 413.582 91.4632 413.768 94.3345C413.8 94.7968 413.881 95.2186 414.108 95.6322C416.944 100.71 420.111 105.536 424.474 109.461C425.007 109.948 425.613 110.297 426.236 110.645C426.761 110.937 427.011 110.808 427.262 110.272C428.029 108.65 428.983 107.15 430.373 105.982C432.603 104.108 435.245 103.102 438.008 102.348C438.372 102.251 438.792 102.299 439.139 101.934C437.572 101.229 436.004 100.572 434.485 99.8255C433.758 99.4687 433.217 98.982 432.74 98.3494C428.142 92.3149 424.919 85.5748 422.511 78.4048C421.832 76.3852 421.242 74.3331 419.901 72.5893C418.778 71.1293 417.412 70.1074 415.659 69.5234C412.281 68.396 408.783 67.7309 405.365 66.7819C404.589 66.5629 403.806 66.3521 403.038 66.1006C402.529 65.9384 402.4 66.0925 402.48 66.5873C403.07 70.4805 401.866 74.0006 400.291 77.4639C399.911 78.2993 399.499 78.421 398.747 77.9344C398.069 77.4964 397.309 77.1963 396.614 76.7826C396.033 76.4338 395.887 76.6366 395.718 77.2125C395.314 78.5913 395.427 79.9621 395.524 81.3571C396.025 88.2351 396.525 95.1212 397.01 101.999C397.293 105.941 397.552 109.883 397.851 113.825C397.907 114.555 397.729 115.114 397.212 115.65C395.952 116.948 394.732 118.286 393.52 119.632C393.1 120.103 392.809 120.127 392.364 119.632C391.055 118.156 389.706 116.712 388.357 115.285C387.993 114.904 388.009 114.482 388.042 114.02C388.526 107.206 389.011 100.385 389.504 93.5721C389.843 88.8597 390.183 84.1391 390.514 79.4267C390.571 78.567 390.215 77.7803 390.053 76.9529C389.948 76.4257 389.641 76.5961 389.342 76.7583C388.599 77.1557 387.84 77.5126 387.129 77.9506C386.417 78.3886 386.022 78.2993 385.642 77.4964C383.88 73.7735 382.749 69.9452 383.598 65.6302C381.553 66.3521 379.574 66.8712 377.578 67.3254C374.815 67.958 372.035 68.5258 369.304 69.3369C363.672 71.0077 360.796 74.9414 359.673 80.4974C358.76 85.0313 358.647 89.6302 358.412 94.2209C358.049 101.334 357.944 108.464 357.394 115.569C357.119 119.146 356.457 122.649 354.639 125.805C352.417 129.641 348.943 131.944 344.895 133.38C335.974 136.527 326.997 136.073 318.021 133.591C313.69 132.391 309.763 130.266 305.804 128.214C301.101 125.78 296.431 123.274 291.736 120.833C285.757 117.726 279.358 116.242 272.66 115.893C266.252 115.561 259.877 115.666 253.583 117.094C250.335 117.832 191.048 135.999 187.768 137.406C187.752 137.057 187.752 136.741 187.752 136.416ZM405.777 33.349C408.322 32.4568 411.643 29.9587 413.081 27.9066C414.536 25.8222 414.463 23.1294 412.887 21.126C411.869 19.8282 410.617 18.7819 409.082 18.2142C403.692 16.2189 398.15 16.2676 392.688 17.6545C386.813 19.1469 382.887 23.0969 380.673 28.7015C378.782 33.4788 378.337 38.4102 380.075 43.3254C381.036 46.0425 382.757 48.4109 384.212 50.8928C385.238 52.6447 386.409 54.2912 386.442 56.4812C386.466 58.0952 386.587 59.7093 386.595 61.3315C386.595 62.5805 386.329 63.716 385.319 64.5433C384.955 64.8434 384.931 65.1354 385.141 65.5491C386.797 68.8745 389.148 71.5511 392.308 73.5139C392.833 73.8384 393.221 73.7816 393.706 73.4734C395.475 72.3216 397.156 71.0239 398.392 69.3125C399.774 67.3984 401.624 65.614 400.727 62.832C400.485 62.0776 401.034 61.0313 400.517 60.496C400.008 59.9688 398.998 60.1554 398.206 60.0013C397.907 59.9445 397.463 59.9607 397.544 59.4903C397.632 59.0117 398.028 59.2145 398.335 59.2551C400.703 59.5471 403.078 59.9851 405.47 59.8472C409.316 59.6282 412.265 57.9006 413.849 54.2588C414.633 52.4501 414.568 50.4629 414.786 48.5325C414.81 48.2892 414.77 48.0702 414.479 48.0134C414.188 47.9567 413.825 47.9161 413.946 47.5106C414.051 47.1537 414.415 47.251 414.697 47.2672C415.667 47.2997 416.637 47.3889 417.582 47.0726C418.43 46.7887 418.568 46.4318 418.172 45.6207C417.687 44.6312 417.267 43.6092 416.709 42.6603C415.78 41.0868 415.522 39.4808 415.829 37.664C416.2 35.5227 416.273 33.3409 415.732 31.1996C415.416 29.9344 415.077 28.6772 414.293 27.5417C412.168 30.786 409.203 32.7732 405.826 34.2412C405.551 34.3629 405.26 34.6711 404.937 34.4359C404.557 34.152 404.848 33.7789 404.896 33.4464C405.034 32.5866 405.51 31.7917 405.397 30.7536C405.171 30.932 405.042 31.0131 404.929 31.1185C402.125 33.7951 398.788 35.4741 395.087 36.4879C394.683 36.6015 394.328 36.7069 393.94 36.3338C391.88 34.3629 388.793 35.8796 388.042 38.1912C387.007 41.3788 389.205 45.3125 392.688 45.2476C393.39 45.2314 393.504 45.5072 393.1 46.0587C392.582 46.7725 391.976 47.397 391.33 47.981C389.94 49.2544 388.446 50.3737 386.789 51.2659C386.539 51.3957 386.232 51.639 386.022 51.3064C385.771 50.9009 386.207 50.7711 386.45 50.5846C386.547 50.5035 386.676 50.471 386.789 50.398C388.534 49.3355 390.167 48.1351 391.597 46.6589C392.001 46.2372 392.033 46.0425 391.387 45.8397C388.389 44.8745 386.7 42.2547 387.056 39.1239C387.516 35.0361 391.88 33.4707 394.231 35.5308C394.554 35.8147 394.861 35.7742 395.217 35.6687C399.216 34.4602 402.779 32.5379 405.583 29.3504C405.777 29.1233 405.939 28.6934 406.326 28.8718C406.73 29.0584 406.593 29.4964 406.529 29.8289C406.286 30.9563 406.044 32.0837 405.777 33.349ZM467.823 78.2345C467.645 72.8164 465.682 68.2824 461.181 65.0705C458.547 63.1888 455.477 62.3859 452.374 61.7127C450.443 61.2909 448.512 60.9908 446.524 61.372C443.244 62.0047 440.174 64.3892 441.289 68.1689C441.353 68.396 441.361 68.6393 441.087 68.7448C440.868 68.834 440.683 68.7042 440.618 68.5177C440.335 67.6417 440.06 68.1527 439.77 68.5095C438.194 70.4156 437.313 72.638 437.063 75.055C436.804 77.618 435.972 79.7512 433.726 81.2274C432.845 81.8032 433.015 82.517 433.968 82.9955C434.582 83.3037 435.253 83.4173 435.915 83.5633C436.142 83.6119 436.376 83.6687 436.408 83.9526C436.441 84.2365 436.255 84.3906 436.004 84.3744C435.487 84.3419 435.455 84.7069 435.39 85.0638C435.301 85.5748 435.229 86.0858 435.124 86.5967C434.59 89.1598 435.374 91.2929 437.305 92.9638C440.052 95.3402 443.276 95.8431 446.759 95.1537C447.098 95.0888 447.615 94.7562 447.72 95.3402C447.817 95.8674 447.227 95.8755 446.88 95.8999C446.209 95.9485 446.104 96.3054 446.153 96.8732C446.217 97.6843 446.128 98.4791 445.765 99.2415C445.143 100.547 444.092 101.375 442.791 101.869C441.967 102.186 442.056 102.453 442.646 102.924C443.81 103.865 445.038 104.684 446.444 105.219C451.178 107.02 455.501 105.99 459.614 103.362C460.277 102.94 460.26 102.656 459.517 102.38C458.45 101.975 457.449 101.391 457.295 100.174C457.02 98.033 457.505 96.0296 459.008 94.4156C460.196 93.1422 461.432 91.8931 462.733 90.7414C466.474 87.3916 467.605 83.0199 467.823 78.2345ZM467.363 117.118C468.631 117.118 469.827 117.126 471.015 117.11C471.306 117.11 471.661 117.004 471.718 117.402C471.782 117.872 471.37 117.872 471.055 117.888C470.635 117.921 470.215 117.929 469.795 117.937C466.668 117.986 463.533 118.018 460.406 118.075C459.816 118.083 459.129 118.091 459.048 118.854C458.976 119.575 459.687 119.673 460.18 119.835C461.101 120.143 462.07 120.249 463.04 120.265C464.494 120.281 465.949 120.281 467.395 120.289C467.678 120.289 468.058 120.224 468.09 120.622C468.13 121.117 467.702 121.019 467.395 121.052C467.298 121.06 467.201 121.052 467.104 121.06C464.365 121.246 461.618 121.173 458.879 121.23C458.345 121.238 457.78 121.352 457.675 121.976C457.562 122.649 458.16 122.836 458.636 122.99C459.687 123.323 460.786 123.461 461.884 123.469C463.597 123.485 465.302 123.452 467.015 123.444C467.274 123.444 467.581 123.412 467.621 123.761C467.67 124.126 467.363 124.15 467.104 124.182C466.749 124.215 466.393 124.255 466.046 124.255C463.783 124.272 461.529 124.272 459.267 124.28C458.943 124.28 458.62 124.296 458.305 124.328C457.885 124.377 457.562 124.62 457.489 125.042C457.408 125.513 457.739 125.756 458.127 125.886C458.644 126.056 459.17 126.234 459.711 126.316C462.216 126.697 464.737 126.518 467.249 126.478C467.557 126.47 468.082 126.267 468.082 126.818C468.082 127.338 467.565 127.192 467.241 127.2C465.335 127.265 463.436 127.297 461.529 127.354C461.141 127.362 460.761 127.402 460.382 127.475C460.034 127.54 459.808 127.8 459.751 128.141C459.687 128.514 459.953 128.733 460.252 128.895C460.858 129.235 461.529 129.357 462.2 129.422C466.627 129.868 471.055 129.738 475.41 128.911C481.462 127.759 487.231 125.675 492.774 122.982C499.052 119.932 504.87 116.185 509.952 111.351C511.132 110.224 511.883 108.958 512.013 107.328C512.069 106.655 512.206 105.982 512.255 105.308C512.667 99.6552 512.74 93.9938 512.513 88.3243C512.481 87.5863 512.287 87.5376 511.673 87.8053C508.102 89.322 504.377 90.1898 500.491 90.2628C499.779 90.2791 499.82 90.6197 499.876 91.1226C500.28 94.9509 500.539 98.7955 500.604 102.648C500.636 104.7 499.828 106.111 498.204 107.296C494.843 109.737 491.199 111.684 487.514 113.549C485.244 114.701 482.981 115.877 480.493 116.558C478.561 117.085 476.84 116.85 475.144 115.755C472.857 114.295 469.189 114.977 467.363 117.118ZM464.987 101.821C466.296 101.821 467.565 102.072 468.809 102.413C473.786 103.784 476.057 108.35 474.158 113.16C473.899 113.817 473.94 114.401 474.788 114.701C475.329 114.887 475.822 115.228 476.315 115.536C477.406 116.209 478.57 116.234 479.773 115.966C480.258 115.861 480.444 115.65 480.468 115.123C480.759 108.715 480.8 102.307 480.654 95.8918C480.638 95.0888 480.363 94.8049 479.612 94.6021C475.733 93.5477 474.36 91.447 474.812 87.424C475.022 85.5748 475.628 83.8309 476.202 82.079C476.509 81.1462 476.453 81.0895 475.467 81.203C473.35 81.4464 471.241 81.7383 469.116 81.933C468.405 81.9979 468.138 82.2493 467.985 82.9469C467.363 85.7775 466.231 88.3487 464.106 90.4088C462.692 91.7796 461.359 93.2395 459.905 94.5697C458.499 95.8593 458.095 97.5058 457.966 99.2821C457.909 100.061 458.16 100.807 458.879 101.196C460.083 101.845 461.246 102.616 462.773 102.064C463.46 101.821 464.244 101.894 464.987 101.821ZM392.995 79.2402C392.833 79.2402 392.671 79.2645 392.51 79.2402C391.564 79.0699 391.225 79.4349 391.201 80.4244C391.152 82.298 390.966 84.1716 390.829 86.0371C390.158 95.3646 389.488 104.692 388.809 114.011C388.777 114.409 388.906 114.685 389.165 114.96C390.272 116.136 391.387 117.304 392.445 118.521C392.857 119 393.116 118.959 393.504 118.513C394.465 117.418 395.435 116.331 396.453 115.301C396.978 114.774 397.14 114.23 397.083 113.492C396.695 108.658 396.34 103.816 396 98.9739C395.572 92.9394 395.168 86.9049 394.748 80.8705C394.627 79.2402 394.611 79.2402 392.995 79.2402ZM406.165 65.9303C406.383 66.271 406.634 66.2547 406.844 66.3115C408.847 66.8225 410.835 67.4146 412.855 67.812C417.719 68.7772 421.21 71.2753 422.608 76.2311C422.745 76.7015 423.084 76.7988 423.48 76.8556C426.817 77.3423 430.033 78.3237 433.233 79.3132C434.13 79.589 434.687 79.3862 435.277 78.7779C435.649 78.3967 435.73 77.9425 435.827 77.472C436.344 74.909 436.513 72.2568 437.879 69.9289C438.251 69.2963 437.725 69.3369 437.354 69.2801C434.097 68.7772 430.865 68.1446 427.666 67.3659C421.606 65.8897 415.473 65.1598 409.235 65.468C408.233 65.5248 407.207 65.5815 406.165 65.9303ZM443.89 96.1757C442.525 96.1432 441.192 95.9323 439.923 95.4213C436.376 94.0019 433.104 91.0496 434.598 85.226C434.8 84.4474 434.72 84.0337 433.831 83.7417C432.271 83.2307 431.956 81.8762 433.071 80.7488C433.588 80.2216 433.362 80.1243 432.829 79.9702C429.977 79.1429 427.149 78.2669 424.216 77.7559C423.149 77.5694 423.109 77.5937 423.448 78.5913C425.67 85.226 428.668 91.4551 432.829 97.1084C433.596 98.1466 434.429 99.0307 435.649 99.5092C437.03 100.053 438.372 100.685 439.753 101.229C441.935 102.097 444.965 100.353 445.377 98.0168C445.652 96.3865 445.514 96.2081 443.89 96.1757ZM401.543 66.1006C401.438 66.125 401.39 66.125 401.382 66.1412C399.685 69.3369 397.422 72.0215 394.336 73.9519C393.746 74.3169 394.061 74.5278 394.449 74.7387C395.903 75.5092 397.358 76.2635 398.804 77.0584C399.362 77.3666 399.58 77.1233 399.814 76.6366C400.735 74.7306 401.357 72.7353 401.705 70.6508C401.963 69.126 402.06 67.6011 401.543 66.1006ZM384.438 65.8897C384.333 66.2547 384.284 66.3683 384.26 66.4818C383.63 70.229 384.713 73.6437 386.264 76.9692C386.442 77.3504 386.676 77.2936 386.967 77.1395C388.502 76.3203 390.037 75.493 391.572 74.6819C392.057 74.4224 391.985 74.2034 391.572 73.9357C391.031 73.5788 390.506 73.2138 389.989 72.8245C387.654 71.0158 385.908 68.7204 384.438 65.8897ZM462.757 102.932C467.258 104.984 471.572 107.19 473.746 112.024C474.651 110.086 474.045 107.093 472.348 105.406C469.649 102.713 466.32 102.389 462.757 102.932ZM392.817 78.4778C394.708 78.4778 395.087 78.129 395.16 76.4176C395.176 75.9878 393.52 74.8685 392.914 74.9009C392.38 74.9333 390.684 75.9959 390.74 76.3041C390.878 76.9935 390.95 77.7721 391.322 78.3237C391.613 78.7373 392.364 78.4048 392.817 78.4778ZM475.96 36.5853C477.285 35.9526 478.408 35.3686 479.184 34.2899C479.58 33.7383 479.838 33.057 479.232 32.5542C478.675 32.1 477.964 32.3108 477.479 32.7813C476.461 33.7708 476.097 35.0361 475.96 36.5853Z" fill="#00B0CA"/>
<path d="M372.52 107.848C372.334 116.591 372.148 125.326 371.971 134.07C371.971 134.2 371.979 134.329 371.962 134.459C371.93 134.759 372.059 135.214 371.567 135.181C371.122 135.149 371.211 134.711 371.211 134.402C371.251 131.588 371.292 128.765 371.348 125.951C371.623 112 371.954 98.0497 372.601 84.1071C372.649 83.0689 372.69 82.0388 372.738 81.0006C372.754 80.7087 372.762 80.3274 373.126 80.3193C373.595 80.3193 373.522 80.7411 373.514 81.0574C373.417 83.7746 373.336 86.4917 373.199 89.2088C372.867 95.4217 372.754 101.635 372.52 107.848Z" fill="#00B0CA"/>
<path d="M472.897 56.7164C472.833 56.7245 472.768 56.7408 472.703 56.7327C472.316 56.684 471.677 56.9435 471.645 56.392C471.596 55.6539 472.307 55.9865 472.679 55.9702C477.01 55.808 480.371 52.3771 480.46 48.0135C480.46 47.9162 480.452 47.8188 480.46 47.7215C480.476 47.4376 480.428 47.0564 480.848 47.0889C481.236 47.1132 481.195 47.4944 481.195 47.7702C481.212 48.8408 481.123 49.9114 480.727 50.9172C479.337 54.4941 476.671 56.3677 472.897 56.7164Z" fill="#00B0CA"/>
<path d="M408.54 52.3853C404.412 52.3367 400.961 49.579 399.992 45.6533C399.911 45.3127 399.709 44.8909 400.194 44.7611C400.662 44.6313 400.638 45.1099 400.727 45.3938C402.125 50.0575 405.696 52.2231 410.512 51.3309C410.819 51.2741 411.231 51.0957 411.336 51.5256C411.441 51.9636 411.005 51.996 410.706 52.0771C409.954 52.2961 409.187 52.4097 408.54 52.3853Z" fill="#00B0CA"/>
<path d="M460.293 82.59C460.309 85.3314 458.2 87.6917 455.429 87.9269C454.677 87.9918 454.726 88.2513 455.008 88.7461C455.752 90.0438 456.665 91.2037 457.683 92.2987C457.877 92.5095 458.087 92.7123 458.289 92.9232C458.483 93.126 458.636 93.345 458.386 93.5883C458.119 93.8478 457.917 93.6207 457.731 93.4423C456.382 92.1283 455.21 90.6765 454.289 89.0219C454.071 88.6244 453.869 88.2189 453.683 87.8052C453.578 87.5781 453.417 87.3267 453.627 87.0834C453.837 86.8238 454.087 86.9861 454.338 87.0347C457.481 87.6349 460.26 84.5771 459.363 81.5193C458.822 79.6538 457.02 78.7373 455.251 79.4997C454.548 79.7998 454.41 79.5565 454.338 78.9401C454.112 77.0665 453.36 75.4038 452.31 73.8546C452.14 73.6113 451.744 73.3436 452.116 73.0354C452.536 72.6947 452.754 73.1652 452.94 73.4247C453.885 74.7549 454.596 76.1986 454.944 77.8046C455.065 78.3561 455.162 78.5994 455.849 78.5183C458.337 78.2182 460.277 80.0351 460.293 82.59Z" fill="#00B0CA"/>
<path d="M443.761 89.582C441.733 89.5658 440.157 88.6493 439.131 86.7675C438.768 86.1025 438.824 85.7456 439.608 85.4941C442.703 84.4965 445.789 83.4664 448.868 82.4039C449.587 82.1525 449.781 82.4282 449.886 83.0609C450.443 86.3052 448.1 89.2089 444.626 89.5415C444.375 89.5658 444.116 89.5658 443.761 89.582ZM444.052 88.8115C446.872 88.8034 449.013 86.9379 449.207 84.1883C449.263 83.434 449.118 83.1014 448.262 83.4015C445.684 84.3018 443.09 85.1778 440.489 86.0132C439.737 86.2566 439.85 86.5891 440.198 87.0433C441.119 88.2599 442.347 88.852 444.052 88.8115Z" fill="#00B0CA"/>
<path d="M442.614 67.2607C442.856 67.3094 442.953 67.4797 442.993 67.6744C443.155 68.4611 443.535 69.1019 444.133 69.6291C444.318 69.7913 444.415 70.0022 444.246 70.2212C444.068 70.4483 443.85 70.3753 443.656 70.2212C442.913 69.6129 442.42 68.8424 442.258 67.8853C442.202 67.5771 442.218 67.2932 442.614 67.2607Z" fill="#00B0CA"/>
<path d="M444.698 68.4284C444.698 68.1851 444.682 67.9417 444.997 67.9093C445.272 67.885 445.417 68.0796 445.45 68.3148C445.563 69.1178 445.959 69.7505 446.549 70.2858C446.734 70.4561 446.823 70.667 446.662 70.8779C446.484 71.1212 446.258 71.0157 446.072 70.8698C445.296 70.2371 444.836 69.4179 444.698 68.4284Z" fill="#00B0CA"/>
<path d="M447.122 69.1341C447.09 68.8908 447.138 68.6555 447.397 68.5907C447.68 68.5258 447.785 68.7448 447.85 68.98C448.035 69.7424 448.359 70.4318 448.989 70.9347C449.183 71.0888 449.312 71.2916 449.142 71.5106C448.94 71.7701 448.698 71.6728 448.464 71.5187C447.922 71.1618 447.138 69.783 447.122 69.1341Z" fill="#00B0CA"/>
<path d="M449.538 69.7995C449.514 69.5238 449.562 69.3048 449.829 69.248C450.112 69.1831 450.274 69.3778 450.298 69.613C450.403 70.4241 450.839 71.0486 451.38 71.6082C451.55 71.7786 451.704 71.9651 451.494 72.1841C451.3 72.3869 451.09 72.2733 450.888 72.1517C450.314 71.7867 449.546 70.4484 449.538 69.7995Z" fill="#00B0CA"/>
</g>
<path d="M44.76 46.116C43.57 46.116 42.652 47 42.652 48.224C42.652 49.38 43.57 50.264 44.76 50.264C45.916 50.264 46.834 49.38 46.834 48.224C46.834 47 45.916 46.116 44.76 46.116ZM43.162 52.508L43.026 71.65H46.426L46.256 52.508H43.162ZM51.9956 64H55.1576V52.61H68.1116V64H71.2396V38.874H68.1116V49.584H55.1576V38.874H51.9956V64ZM85.2468 64.442C90.8228 64.442 94.7668 60.192 94.7668 54.888C94.7668 49.652 90.8228 45.368 85.2468 45.368C79.6708 45.368 75.7268 49.652 75.7268 54.888C75.7268 60.192 79.6708 64.442 85.2468 64.442ZM85.2468 61.654C81.6088 61.654 78.7868 58.594 78.7868 54.888C78.7868 51.25 81.6088 48.156 85.2468 48.156C88.8848 48.156 91.7068 51.25 91.7068 54.888C91.7068 58.594 88.8848 61.654 85.2468 61.654ZM101.79 64V38.262H98.7637V64H101.79ZM121.415 45.81V48.496C119.783 46.456 117.539 45.368 114.921 45.368C109.685 45.368 105.809 49.346 105.809 54.786C105.809 60.226 109.685 64.442 114.921 64.442C117.539 64.442 119.783 63.388 121.415 61.382V64H124.339V45.81H121.415ZM115.227 61.654C111.317 61.654 108.869 58.594 108.869 54.922C108.869 51.25 111.317 48.156 115.227 48.156C119.137 48.156 121.653 51.25 121.653 54.888C121.653 58.594 119.137 61.654 115.227 61.654ZM154.298 64H158.208L147.226 50.74L157.256 38.874H153.516L141.684 52.814V38.874H138.556V64H141.684V56.962L145.152 52.848L154.298 64ZM173.809 45.81V48.496C172.177 46.456 169.933 45.368 167.315 45.368C162.079 45.368 158.203 49.346 158.203 54.786C158.203 60.226 162.079 64.442 167.315 64.442C169.933 64.442 172.177 63.388 173.809 61.382V64H176.733V45.81H173.809ZM167.621 61.654C163.711 61.654 161.263 58.594 161.263 54.922C161.263 51.25 163.711 48.156 167.621 48.156C171.531 48.156 174.047 51.25 174.047 54.888C174.047 58.594 171.531 61.654 167.621 61.654ZM181.904 64H184.93V54.208C184.93 50.094 187.242 48.258 189.996 48.258C190.608 48.258 191.22 48.36 191.866 48.564L192.138 45.606C191.356 45.402 190.676 45.334 190.03 45.334C187.582 45.334 185.848 46.354 184.76 48.53V45.81H181.904V64ZM210.819 54.582C210.819 48.802 207.113 45.368 202.081 45.368C196.607 45.368 192.935 49.448 192.935 54.854C192.935 59.58 195.723 64.408 202.591 64.408C205.821 64.408 208.779 63.15 210.377 61.858L209.085 59.512C207.385 60.736 204.835 61.586 202.659 61.586C198.477 61.586 196.573 59.07 196.131 56.18H210.717C210.751 55.772 210.819 55.33 210.819 54.582ZM202.081 48.122C205.039 48.122 207.453 50.128 207.623 53.46H196.131C196.641 50.366 198.919 48.122 202.081 48.122ZM214.775 64H217.801V53.868C217.801 50.536 219.909 48.156 222.935 48.156C225.655 48.156 227.695 50.094 227.695 53.868V64H230.721V52.984C230.721 47.782 227.287 45.334 223.513 45.334C220.963 45.334 218.855 46.422 217.733 48.394V45.81H214.775V64ZM236.476 58.016H239.57L239.74 38.874H236.34L236.476 58.016ZM238.074 64.408C239.23 64.408 240.148 63.524 240.148 62.3C240.148 61.144 239.23 60.26 238.074 60.26C236.884 60.26 235.966 61.144 235.966 62.3C235.966 63.524 236.884 64.408 238.074 64.408Z" fill="#00B0CA"/>
<path d="M44.56 89.568C44.032 89.568 43.6 89.984 43.6 90.56C43.6 91.104 44.032 91.52 44.56 91.52C45.12 91.52 45.568 91.104 45.568 90.56C45.568 89.984 45.12 89.568 44.56 89.568ZM45.248 92.368H43.92V93.552C43.92 95.248 40.592 95.92 40.592 98.576C40.592 100.576 42.288 101.888 44.144 101.888C45.44 101.888 46.736 101.232 47.552 100.288L46.672 99.296C46 100.016 45.12 100.544 44.224 100.544C42.992 100.544 42 99.744 42 98.544C42 96.4 45.248 95.792 45.248 93.552V92.368ZM54.2851 98.176C56.5251 98.176 58.3971 97.088 59.4691 95.616L58.3811 94.704C57.4371 95.952 56.0131 96.752 54.3331 96.752C51.7251 96.752 49.7251 94.848 49.7251 92.144C49.7251 89.392 51.7891 87.408 54.3491 87.408C56.0131 87.408 57.4051 88.24 58.3171 89.488L59.4371 88.576C58.4611 87.056 56.5411 85.968 54.3331 85.968C51.0211 85.968 48.2051 88.48 48.2051 92.128C48.2051 95.744 50.9571 98.176 54.2851 98.176ZM64.3063 88.048H65.5383L67.0263 85.392H65.2503L64.3063 88.048ZM65.0583 98.208C67.6823 98.208 69.5383 96.208 69.5383 93.712C69.5383 91.248 67.6823 89.232 65.0583 89.232C62.4343 89.232 60.5783 91.248 60.5783 93.712C60.5783 96.208 62.4343 98.208 65.0583 98.208ZM65.0583 96.896C63.3463 96.896 62.0182 95.456 62.0182 93.712C62.0182 92 63.3463 90.544 65.0583 90.544C66.7703 90.544 68.0983 92 68.0983 93.712C68.0983 95.456 66.7703 96.896 65.0583 96.896ZM81.2271 89.216C79.8511 89.216 78.6671 89.872 78.1071 90.816C77.6111 89.792 76.5391 89.216 75.3871 89.216C74.2351 89.216 73.3071 89.808 72.8111 90.704V89.44H71.4191V98H72.8431V93.2C72.8431 91.584 73.8351 90.544 75.1951 90.544C76.5231 90.544 77.3231 91.52 77.3231 93.168V98H78.7471V93.168C78.7471 91.6 79.7071 90.544 81.0831 90.544C82.3631 90.544 83.1951 91.456 83.1951 93.136V98H84.6191V92.928C84.6191 90.672 83.3231 89.216 81.2271 89.216ZM90.8708 98.208C93.4948 98.208 95.3508 96.208 95.3508 93.712C95.3508 91.248 93.4948 89.232 90.8708 89.232C88.2468 89.232 86.3908 91.248 86.3908 93.712C86.3908 96.208 88.2468 98.208 90.8708 98.208ZM90.8708 96.896C89.1588 96.896 87.8307 95.456 87.8307 93.712C87.8307 92 89.1588 90.544 90.8708 90.544C92.5828 90.544 93.9108 92 93.9108 93.712C93.9108 95.456 92.5828 96.896 90.8708 96.896ZM105.713 89.232C104.465 89.232 103.393 89.744 102.609 90.752V89.44H101.185V101.52H102.609V96.736C103.377 97.712 104.433 98.208 105.681 98.208C108.161 98.208 109.985 96.208 109.985 93.728C109.985 91.248 108.161 89.232 105.713 89.232ZM105.553 96.896C103.697 96.896 102.545 95.456 102.545 93.712C102.545 92 103.697 90.544 105.553 90.544C107.393 90.544 108.561 91.984 108.561 93.712C108.561 95.456 107.393 96.896 105.553 96.896ZM115.808 98.208C118.432 98.208 120.288 96.208 120.288 93.712C120.288 91.248 118.432 89.232 115.808 89.232C113.184 89.232 111.328 91.248 111.328 93.712C111.328 96.208 113.184 98.208 115.808 98.208ZM115.808 96.896C114.096 96.896 112.768 95.456 112.768 93.712C112.768 92 114.096 90.544 115.808 90.544C117.52 90.544 118.848 92 118.848 93.712C118.848 95.456 117.52 96.896 115.808 96.896ZM128.969 85.888V90.72C128.201 89.744 127.145 89.232 125.913 89.232C123.449 89.232 121.625 91.248 121.625 93.712C121.625 96.208 123.433 98.208 125.945 98.208C127.129 98.208 128.201 97.76 128.969 96.8V98H130.393V85.888H128.969ZM126.073 96.896C124.233 96.896 123.065 95.456 123.065 93.712C123.065 92 124.233 90.544 126.073 90.544C127.913 90.544 129.081 92 129.081 93.712C129.081 95.456 127.913 96.896 126.073 96.896ZM140.713 93.568C140.713 90.848 138.969 89.232 136.601 89.232C134.025 89.232 132.297 91.152 132.297 93.696C132.297 95.92 133.609 98.192 136.841 98.192C138.361 98.192 139.753 97.6 140.505 96.992L139.897 95.888C139.097 96.464 137.897 96.864 136.873 96.864C134.905 96.864 134.009 95.68 133.801 94.32H140.665C140.681 94.128 140.713 93.92 140.713 93.568ZM136.601 90.528C137.993 90.528 139.129 91.472 139.209 93.04H133.801C134.041 91.584 135.113 90.528 136.601 90.528ZM152.383 89.216C151.007 89.216 149.823 89.872 149.263 90.816C148.767 89.792 147.695 89.216 146.543 89.216C145.391 89.216 144.463 89.808 143.967 90.704V89.44H142.575V98H143.999V93.2C143.999 91.584 144.991 90.544 146.351 90.544C147.679 90.544 148.479 91.52 148.479 93.168V98H149.903V93.168C149.903 91.6 150.863 90.544 152.239 90.544C153.519 90.544 154.351 91.456 154.351 93.136V98H155.775V92.928C155.775 90.672 154.479 89.216 152.383 89.216ZM162.027 98.208C164.651 98.208 166.507 96.208 166.507 93.712C166.507 91.248 164.651 89.232 162.027 89.232C159.403 89.232 157.547 91.248 157.547 93.712C157.547 96.208 159.403 98.208 162.027 98.208ZM162.027 96.896C160.315 96.896 158.987 95.456 158.987 93.712C158.987 92 160.315 90.544 162.027 90.544C163.739 90.544 165.067 92 165.067 93.712C165.067 95.456 163.739 96.896 162.027 96.896ZM170.708 98.192C172.5 98.192 173.732 97.024 173.732 95.616C173.732 94.576 173.156 93.92 172.276 93.456C171.62 93.104 170.756 92.784 170.18 92.496C169.652 92.24 169.476 91.808 169.476 91.456C169.476 90.896 169.892 90.368 170.74 90.368C171.396 90.368 172.084 90.656 172.548 91.376L173.508 90.528C172.964 89.6 171.876 89.152 170.836 89.152C169.156 89.152 168.116 90.192 168.116 91.52C168.116 92.272 168.484 93.072 169.396 93.568C169.94 93.872 170.98 94.256 171.508 94.544C171.972 94.8 172.324 95.152 172.324 95.696C172.324 96.336 171.732 96.928 170.756 96.928C170.036 96.928 169.188 96.528 168.676 95.552L167.588 96.304C168.26 97.632 169.524 98.192 170.708 98.192ZM186.313 89.44V90.704C185.545 89.744 184.489 89.232 183.257 89.232C180.793 89.232 178.969 91.104 178.969 93.664C178.969 96.224 180.793 98.208 183.257 98.208C184.489 98.208 185.545 97.712 186.313 96.768V98H187.689V89.44H186.313ZM183.401 96.896C181.561 96.896 180.409 95.456 180.409 93.728C180.409 92 181.561 90.544 183.401 90.544C185.241 90.544 186.425 92 186.425 93.712C186.425 95.456 185.241 96.896 183.401 96.896ZM195.85 89.44L193.498 96L190.778 89.44H189.13L192.842 97.952L192.506 98.784C192.042 99.904 191.482 100.304 190.81 100.304C190.458 100.304 190.074 100.176 189.77 100.048L189.61 101.312C189.93 101.52 190.394 101.632 190.938 101.632C192.17 101.632 193.082 100.976 193.818 99.04L197.434 89.44H195.85ZM202.408 98.208C204.664 98.208 206.04 96.816 206.04 94.576V89.44H204.616V94.528C204.616 95.968 203.816 96.88 202.408 96.88C201 96.88 200.2 95.968 200.2 94.528V89.44H198.776V94.576C198.776 96.784 200.184 98.208 202.408 98.208ZM215.157 85.888V90.72C214.389 89.744 213.333 89.232 212.101 89.232C209.637 89.232 207.813 91.248 207.813 93.712C207.813 96.208 209.621 98.208 212.133 98.208C213.317 98.208 214.389 97.76 215.157 96.8V98H216.581V85.888H215.157ZM212.261 96.896C210.421 96.896 209.253 95.456 209.253 93.712C209.253 92 210.421 90.544 212.261 90.544C214.101 90.544 215.269 92 215.269 93.712C215.269 95.456 214.101 96.896 212.261 96.896ZM225.813 89.44V90.704C225.045 89.744 223.989 89.232 222.757 89.232C220.293 89.232 218.469 91.104 218.469 93.664C218.469 96.224 220.293 98.208 222.757 98.208C223.989 98.208 225.045 97.712 225.813 96.768V98H227.189V89.44H225.813ZM222.901 96.896C221.061 96.896 219.909 95.456 219.909 93.728C219.909 92 221.061 90.544 222.901 90.544C224.741 90.544 225.925 92 225.925 93.712C225.925 95.456 224.741 96.896 222.901 96.896ZM229.622 98H231.046V93.392C231.046 91.456 232.134 90.592 233.43 90.592C233.718 90.592 234.006 90.64 234.31 90.736L234.438 89.344C234.07 89.248 233.75 89.216 233.446 89.216C232.294 89.216 231.478 89.696 230.966 90.72V89.44H229.622V98ZM240.941 96.384C240.461 96.688 239.933 96.896 239.389 96.896C238.349 96.896 237.981 96.224 237.981 95.168V90.672H241.037V89.44H237.981V86.416H236.573V89.44H235.037V90.672H236.557V95.024C236.557 96.992 237.421 98.208 239.261 98.208C240.061 98.208 240.893 97.968 241.501 97.488L240.941 96.384ZM250.526 93.568C250.526 90.848 248.782 89.232 246.414 89.232C243.838 89.232 242.11 91.152 242.11 93.696C242.11 95.92 243.422 98.192 246.654 98.192C248.174 98.192 249.566 97.6 250.318 96.992L249.71 95.888C248.91 96.464 247.71 96.864 246.686 96.864C244.718 96.864 243.822 95.68 243.614 94.32H250.478C250.494 94.128 250.526 93.92 250.526 93.568ZM246.414 90.528C247.806 90.528 248.942 91.472 249.022 93.04H243.614C243.854 91.584 244.926 90.528 246.414 90.528ZM253.908 95.392H255.236V94.208C255.236 92.512 258.564 91.84 258.564 89.184C258.564 87.184 256.868 85.872 255.012 85.872C253.716 85.872 252.42 86.528 251.604 87.472L252.484 88.464C253.156 87.744 254.036 87.216 254.932 87.216C256.164 87.216 257.156 88.016 257.156 89.216C257.156 91.36 253.908 91.968 253.908 94.208V95.392ZM254.596 98.192C255.124 98.192 255.556 97.776 255.556 97.2C255.556 96.656 255.124 96.24 254.596 96.24C254.036 96.24 253.588 96.656 253.588 97.2C253.588 97.776 254.036 98.192 254.596 98.192Z" fill="#00B0CA"/>
<defs>
<clipPath id="clip0">
<path d="M244 16H632V136H244V16Z" fill="white"/>
</clipPath>
</defs>
</svg>
