<svg width="20" height="20" viewBox="0 0 20 20" fill="none" xmlns="http://www.w3.org/2000/svg">
<path fill-rule="evenodd" clip-rule="evenodd" d="M10 20C15.5228 20 20 15.5228 20 10C20 4.47715 15.5228 0 10 0C4.47715 0 0 4.47715 0 10C0 15.5228 4.47715 20 10 20ZM7.3187 15.1504V8.2046H5.03087V15.1504H7.3187ZM6.17478 7.25627C6.97259 7.25627 7.46916 6.72291 7.46916 6.05637C7.45429 5.37482 6.97259 4.85626 6.18991 4.85626C5.40731 4.85626 4.89563 5.37482 4.89563 6.05637C4.89563 6.72291 5.3921 7.25627 6.15986 7.25627H6.17478ZM8.75586 15.1504H11.0743V11.2888C11.0743 11.0821 11.0893 10.8757 11.1506 10.7279C11.3182 10.315 11.6997 9.88734 12.3402 9.88734C13.1791 9.88734 13.5147 10.5215 13.5147 11.451V15.1504H15.833V11.1854C15.833 9.06149 14.6892 8.07317 13.1638 8.07317C11.9339 8.07317 11.3825 8.74328 11.0743 9.21446V8.23544H8.75586C8.78629 8.88429 8.75586 15.1504 8.75586 15.1504ZM11.0743 9.21446V9.23828H11.0589L11.0743 9.21446Z" fill="#B8BCD5"/>
</svg>
