<svg width="215" height="46" viewBox="0 0 215 46" fill="none" xmlns="http://www.w3.org/2000/svg">
<path fill-rule="evenodd" clip-rule="evenodd" d="M122.179 27.4809C117.208 27.4809 113.182 31.3544 113.182 36.1359V44.7564H131.137V27.4809H122.179ZM86.1294 18.8277V1.55371H104.083V10.1808C104.083 14.9569 100.06 18.8277 95.0972 18.8277H86.1294Z" fill="#C2DF0A"/>
<path fill-rule="evenodd" clip-rule="evenodd" d="M24.5641 33.977C32.9817 33.977 35.8072 27.1485 35.8072 22.9645C35.8072 17.7658 32.0807 12.027 24.4922 12.027C16.8071 12.027 13.4184 18.2278 13.4184 23.126C13.4184 27.1485 16.4854 33.977 24.5641 33.977ZM49.2169 44.5294H35.8072V39.864H35.6447C33.3821 44.0575 27.8087 46 22.549 46C8.32602 46 0 35.2927 0 22.9645C0 8.84137 10.5926 0 22.549 0C29.9028 0 34.03 3.41831 35.6447 6.05827H35.8072V1.47583H49.2169V44.5294Z" fill="#00B0CA"/>
<path fill-rule="evenodd" clip-rule="evenodd" d="M190.35 33.977C198.75 33.977 201.581 27.1485 201.581 22.9645C201.581 17.7658 197.861 12.027 190.273 12.027C182.59 12.027 179.19 18.2278 179.19 23.126C179.19 27.1485 182.261 33.977 190.35 33.977ZM215 44.5294H201.581V39.864H201.413C199.159 44.0575 193.577 46 188.328 46C174.107 46 165.783 35.2927 165.783 22.9645C165.783 8.84137 176.361 0 188.328 0C195.685 0 199.8 3.41831 201.413 6.05827H201.581V1.47583H215V44.5294Z" fill="#00B0CA"/>
<path fill-rule="evenodd" clip-rule="evenodd" d="M95.3091 27.4245H86.1364C85.3926 32.4586 82.025 33.9878 78.6048 33.9878C71.3918 33.9878 71.3918 28.3197 71.3918 25.3685V1.55371H57.9595V27.3123C57.9595 33.2026 58.4272 36.3085 61.9985 40.5748C65.9662 45.3781 72.441 45.9997 75.1901 45.9997C78.3849 45.9997 83.3953 45.5906 86.2927 41.0402V44.6536H104.262V35.7597C104.262 31.138 100.169 27.4245 95.3091 27.4245Z" fill="#00B0CA"/>
<path fill-rule="evenodd" clip-rule="evenodd" d="M122.288 18.889H131.452C132.192 13.8554 135.563 12.3344 138.988 12.3344C146.2 12.3344 146.2 18.003 146.2 20.943V44.757H159.631V19.0068C159.631 13.1138 159.16 10.0027 155.593 5.73639C151.618 0.931448 145.144 0.311035 142.39 0.311035C139.209 0.311035 134.192 0.721338 131.292 5.27867V1.65599H113.328V10.5559C113.328 15.1768 117.423 18.8958 122.288 18.889Z" fill="#00B0CA"/>
</svg>
