<svg width="52" height="32" viewBox="0 0 52 32" fill="none" xmlns="http://www.w3.org/2000/svg">
		<path d="M44.2339 17.9117C44.1022 18.0295 43.8979 18.0295 43.7662 17.9117L40.7765 15.2363C40.5488 15.0326 40.6991 14.6667 41.0103 14.6667L46.9899 14.6667C47.3011 14.6667 47.4513 15.0326 47.2237 15.2363L44.2339 17.9117Z" fill="#B8BCD5"/>
		<g clip-path="url(#clip0)">
		<path d="M9.57341 13.3334H2.66675V2.66675H13.3334V9.57341C13.3334 11.6534 11.6534 13.3334 9.57341 13.3334Z" fill="#00B0CA"/>
		<path d="M13.3334 29.3334H2.66675V18.6667H9.57341C11.6534 18.6667 13.3334 20.3467 13.3334 22.4267V29.3334Z" fill="#00B0CA"/>
		<path d="M29.3334 13.3334H22.4267C20.3467 13.3334 18.6667 11.6534 18.6667 9.57341V2.66675H29.3334V13.3334Z" fill="#00B0CA"/>
		<path d="M29.3334 29.3334H18.6667V22.4267C18.6667 20.3467 20.3467 18.6667 22.4267 18.6667H29.3334V29.3334Z" fill="#00B0CA"/>
		</g>
		<defs>
		<clipPath id="clip0">
		<rect x="2.66675" y="2.66675" width="26.6667" height="26.6667" fill="white"/>
		</clipPath>
		</defs>
</svg>