<svg width="148" height="148" viewBox="0 0 148 148" fill="none" xmlns="http://www.w3.org/2000/svg">
<path d="M148 0H0V148H148V0Z" fill="white"/>
<path d="M28.3048 133.828C28.3048 133.828 22.0082 126.064 32.203 96.3916C43.5673 63.303 49.7582 52.6853 52.2094 43.7393C54.6673 34.7932 84.373 0.958017 113.649 25.2327C144.947 51.1789 130.266 85.2519 123.111 96.636C104.716 125.906 53.1873 159.325 28.3048 133.828Z" fill="#E5F6F9"/>
<path d="M51.404 137.429C50.8358 137.429 50.294 137.429 49.7852 137.422C40.5617 137.045 40.0397 134.746 39.8085 130.009C39.7754 129.302 39.564 127.141 39.2469 123.871C37.562 106.613 33.089 60.7725 34.7011 29.6463C34.6152 21.9688 37.5224 19.3127 39.9802 18.4472C42.3324 17.6147 84.2679 15.8043 87.9547 15.9629C92.322 16.1413 97.2708 16.3461 98.3544 22.1075C99.3388 27.347 100.429 99.0939 100.475 102.146C100.495 102.364 101.03 108.734 96.8545 109.487C94.9186 109.837 89.3356 110.009 83.4288 110.201C78.414 110.359 73.2274 110.524 70.8752 110.795C73.6965 111.377 75.8438 112.348 77.1719 113.689C78.3017 114.826 78.8038 116.233 78.6254 117.753C77.9779 123.21 73.1944 126.097 70.0097 126.408C68.1333 126.593 65.3186 125.965 63.5611 124.155C62.3322 122.886 61.8036 121.234 62.0349 119.365C62.4577 115.955 63.8056 113.253 65.8406 111.529C63.244 111.41 60.2972 111.515 57.0927 111.866C52.2695 112.308 47.737 111.344 45.5369 109.408C44.5722 108.555 44.0635 107.551 44.0238 106.415L43.9511 104.049C43.0195 73.0552 42.0681 51.2582 41.1233 39.253C40.9647 38.6055 39.8085 33.333 41.3677 23.4422C41.4272 23.0788 41.7642 22.8409 42.121 22.8938C42.4844 22.9532 42.7288 23.2902 42.6694 23.647C41.0902 33.6964 42.4051 38.9293 42.4183 38.9822C42.4249 39.0218 42.4315 39.0614 42.4381 39.0945C43.3829 51.1063 44.3344 72.9495 45.2726 104.01L45.3452 106.368C45.3717 107.122 45.7285 107.809 46.4156 108.41C48.3185 110.088 52.5536 110.954 56.9606 110.544C60.991 110.101 64.6117 110.035 67.6906 110.326C68.5495 109.91 69.4877 109.632 70.4986 109.507C72.8045 109.209 78.1827 109.038 83.3892 108.873C88.992 108.694 94.7865 108.509 96.6233 108.179C99.6097 107.644 99.1604 102.265 99.1538 102.213C99.1406 101.413 98.0174 27.4791 97.0527 22.352C96.1608 17.6279 92.3352 17.4693 87.9019 17.2843C83.779 17.1125 42.4976 18.9889 40.4229 19.6893C37.4827 20.7266 35.9631 24.1755 36.0292 29.6661C34.417 60.7461 38.8769 106.507 40.5551 123.739C40.8788 127.029 41.0902 129.203 41.1233 129.936C41.3281 134.046 41.414 135.75 49.8183 136.094C61.1297 136.239 86.5672 134.753 96.1476 134.191C98.5592 134.052 100.013 133.966 100.363 133.953C103.805 133.854 104.221 132.057 105.041 121.974C107.34 94.8191 105.166 58.1429 103.865 36.2204C103.409 28.5495 103.078 23.0127 103.085 20.2972C103.098 16.2734 101.169 13.3068 97.3633 11.4832C94.4495 10.0891 91.4631 9.91072 91.4367 9.91072C91.1394 9.91072 58.1565 9.94376 51.8335 10.8688C45.7879 11.7475 43.2508 15.3418 43.2244 15.3748C43.0195 15.6722 42.6099 15.7514 42.306 15.5466C42.0086 15.3418 41.9294 14.9322 42.1342 14.6282C42.2465 14.463 44.9951 10.5252 51.6485 9.56054C58.0574 8.62233 90.1086 8.58929 91.4697 8.58929C91.6349 8.5959 94.7469 8.77429 97.9051 10.2807C102.173 12.3157 104.426 15.7779 104.413 20.3104C104.406 22.9797 104.737 28.5032 105.186 36.1543C106.488 58.1032 108.668 94.8455 106.362 122.093C105.589 131.594 105.305 135.149 100.403 135.288C100.072 135.294 98.546 135.387 96.2269 135.519C87.0694 136.048 63.4224 137.429 51.404 137.429ZM67.9219 111.681C65.4376 113.022 63.8122 115.751 63.3431 119.523C63.1581 120.997 63.5479 122.245 64.506 123.23C65.8935 124.657 68.2654 125.238 69.8776 125.086C72.6261 124.822 76.7556 122.318 77.3106 117.594C77.4427 116.471 77.0794 115.473 76.2336 114.621C74.714 113.081 71.8069 112.084 67.9219 111.681Z" fill="#00ABC9"/>
<path d="M70.8619 88.985C70.7364 88.985 70.6108 88.9454 70.4985 88.8727C64.0235 84.578 53.168 74.4823 53.168 55.1168C53.168 54.8393 53.3398 54.5948 53.5908 54.5023C54.3308 54.2182 55.0708 53.9539 55.8042 53.6963C60.6539 51.9586 65.2392 50.32 69.5735 43.7195C69.6924 43.5345 69.9039 43.4221 70.1219 43.4221C70.3465 43.4221 70.5514 43.5345 70.6703 43.7195C76.7687 52.9629 87.1881 52.3022 87.2939 52.2955C87.6639 52.2691 87.9744 52.54 88.0008 52.9034C88.0272 53.2668 87.7563 53.5839 87.393 53.6104C87.2872 53.6236 76.7092 54.3107 70.1219 45.2457C65.6885 51.5489 60.8917 53.2668 56.2403 54.9318C55.6589 55.1432 55.0708 55.348 54.4762 55.5727C54.6414 73.6564 64.5983 83.2698 70.8355 87.5182C81.3144 79.8407 86.7124 69.6129 86.8974 57.1188C85.5628 57.0989 82.5235 56.9338 79.7815 55.9493C76.6894 62.2922 71.4962 72.5861 71.4433 72.6918C71.331 72.9098 71.113 73.0486 70.8685 73.0552C70.6439 73.0486 70.3994 72.9363 70.2805 72.7248C68.6023 69.8177 65.9065 65.2588 65.3515 64.6179C65.1137 64.3404 65.1401 63.9241 65.411 63.6863C65.6819 63.4484 66.1048 63.4748 66.3426 63.7457C67.0033 64.4989 69.5867 68.8927 70.809 71.007C72.2824 68.08 76.3789 59.9268 78.8565 54.8261C79.0085 54.5089 79.3785 54.3702 79.7022 54.5023C83.1181 55.903 87.4921 55.7973 87.5383 55.7907C87.7101 55.7907 87.8885 55.8502 88.0206 55.9757C88.1462 56.1013 88.2188 56.273 88.2188 56.4514C88.2188 69.8441 82.5037 80.7459 71.2319 88.8529C71.1328 88.9454 71.0006 88.985 70.8619 88.985Z" fill="#00ABC9"/>
</svg>
