<svg width="16" height="16" viewBox="0 0 16 16" fill="none" xmlns="http://www.w3.org/2000/svg">
<path d="M14.3533 1.64033C13.7267 1.01366 12.8933 0.666992 12 0.666992C11.1067 0.666992 10.2733 1.01366 9.64667 1.64033L0.860005 10.4003C0.740005 10.527 0.666672 10.6937 0.666672 10.8737V14.667C0.666672 15.0337 0.966672 15.3337 1.33334 15.3337H5.12667C5.30667 15.3337 5.47334 15.2603 5.6 15.1403L14.3533 6.36033C14.9867 5.72699 15.3333 4.89366 15.3333 4.00033C15.3333 3.10699 14.9867 2.27366 14.3533 1.64033ZM4.84667 14.0003H2.00001V11.147L9.39334 3.77366L12.2267 6.60699L4.84667 14.0003ZM13.4133 5.41366L13.1667 5.66033L10.34 2.83366L10.5867 2.58699C11.34 1.83366 12.66 1.83366 13.4133 2.58699C13.7933 2.96699 14 3.46699 14 4.00033C14 4.53366 13.7933 5.04033 13.4133 5.41366Z" fill="#00B0CA"/>
</svg>
