<svg width="333" height="164" viewBox="0 0 333 164" fill="none" xmlns="http://www.w3.org/2000/svg">
<path fill-rule="evenodd" clip-rule="evenodd" d="M167.623 9.26249C175.503 3.51555 186.712 -1.7404 199.79 0.548457C211.959 2.67638 220.503 8.12865 226.157 15.3395C231.801 22.5363 234.519 31.4241 235.16 40.3668C235.802 49.3089 234.371 58.3505 231.669 65.9096C228.976 73.4418 224.976 79.6237 220.38 82.7099C210.001 89.6827 199.601 89.0251 191.507 86.5579C187.465 85.3259 183.988 83.6407 181.358 82.2245C180.34 81.6762 179.442 81.1647 178.695 80.7386C178.479 80.6155 178.275 80.4995 178.085 80.3919C177.657 80.1494 177.301 79.9523 177.013 79.8053C176.711 79.651 176.539 79.5805 176.458 79.5584C176.267 79.5066 175.877 79.5701 175.21 80.2867C174.587 80.9564 173.942 81.9693 173.302 83.1265C172.817 84.0045 172.356 84.9234 171.921 85.7906C171.786 86.0599 171.654 86.3241 171.524 86.5807C171.001 87.6121 170.479 88.6045 170.018 89.1414C169.908 89.27 169.747 89.4115 169.525 89.4954C169.288 89.5849 169.042 89.5858 168.817 89.5165C168.427 89.396 168.181 89.0906 168.049 88.8995C167.754 88.4763 167.492 87.8252 167.252 87.1104C166.758 85.6407 166.232 83.5083 165.703 81.2899C165.603 80.8682 165.502 80.4429 165.402 80.0172C164.968 78.1837 164.533 76.3442 164.106 74.765C163.843 73.7929 163.588 72.9364 163.343 72.2523C163.32 72.1861 163.296 72.1223 163.273 72.0609C162.926 73.1473 162.517 74.8274 162.058 76.9546C161.279 80.5671 160.376 85.3719 159.408 90.5282C159.204 91.6126 158.997 92.7125 158.788 93.8202C157.588 100.184 156.309 106.795 155.062 112.119C154.438 114.78 153.819 117.136 153.216 118.986C152.915 119.911 152.614 120.722 152.313 121.389C152.018 122.042 151.699 122.613 151.343 123.012C150.194 124.3 149.029 124.934 147.857 124.807C146.714 124.683 145.9 123.867 145.362 123.084C144.808 122.279 144.423 121.333 144.18 120.618C144.056 120.255 143.965 119.939 143.904 119.712C143.874 119.599 143.851 119.507 143.836 119.443C143.828 119.411 143.822 119.385 143.818 119.367L143.813 119.345L143.811 119.339L143.811 119.336C143.811 119.336 143.811 119.335 144.651 119.152C143.806 119.31 143.805 119.31 143.805 119.309L143.805 119.308L143.804 119.3L143.775 119.146C143.754 119.037 143.723 118.875 143.683 118.664C143.602 118.242 143.483 117.624 143.329 116.837C143.022 115.264 142.576 113.021 142.023 110.339C140.917 104.975 139.382 97.8641 137.667 90.866C135.95 83.8598 134.06 76.9983 132.245 72.1194C131.333 69.6682 130.463 67.7802 129.673 66.6271C129.273 66.0426 128.946 65.7278 128.714 65.5939C128.544 65.4957 128.498 65.524 128.452 65.5523L128.447 65.5551C127.107 66.3735 125.223 68.1407 123.042 70.4485C120.881 72.7347 118.497 75.4764 116.162 78.1786C115.931 78.4465 115.7 78.7139 115.47 78.9805C113.384 81.3962 111.36 83.7406 109.617 85.6266C108.649 86.6738 107.757 87.5921 106.98 88.3091C106.223 89.0074 105.509 89.5791 104.906 89.8617C103.738 90.4091 102.624 90.4212 101.168 90.1908C100.373 90.0652 99.4048 89.8531 98.2129 89.592C97.3106 89.3944 96.2803 89.1687 95.1006 88.9313C92.3327 88.3743 88.612 87.7222 83.4495 87.1301C90.0499 97.9646 101.338 112.432 114.061 125.931C121.797 134.14 130.044 141.969 138.061 148.387C145.985 154.73 153.642 159.66 160.331 162.234C160.391 162.203 160.466 162.161 160.559 162.104C160.869 161.914 161.297 161.61 161.84 161.186C162.921 160.342 164.395 159.073 166.184 157.425C169.757 154.131 174.548 149.355 179.894 143.51C190.581 131.825 203.455 115.906 213.249 99.0614C213.8 97.8522 214.312 96.7077 214.795 95.629C216.053 92.8143 217.111 90.4485 218.149 88.5552C219.595 85.9179 221.093 84.013 223.236 83.0089C223.645 82.8175 224.193 82.758 224.737 82.7407C225.317 82.7224 226.029 82.7509 226.85 82.8128C228.493 82.9367 230.651 83.2014 233.204 83.5384C234.191 83.6688 235.239 83.8103 236.343 83.9593C240.962 84.5826 246.55 85.3368 252.695 85.9556C267.932 87.4898 286.455 88.1746 301.804 83.9959C306.251 82.5276 318.413 80.5389 332.346 83.9847C332.807 84.0987 333.089 84.565 332.975 85.0261C332.861 85.4873 332.395 85.7688 331.934 85.6548C318.31 82.2857 306.462 84.2631 302.323 85.6362C302.308 85.6411 302.293 85.6456 302.278 85.6496C286.603 89.9228 267.803 89.2057 252.523 87.6672C246.346 87.0452 240.722 86.2862 236.102 85.6626C235.002 85.5141 233.959 85.3733 232.979 85.2439C230.423 84.9064 228.309 84.648 226.721 84.5282C225.925 84.4682 225.282 84.4447 224.792 84.4602C224.266 84.4768 224.03 84.5368 223.966 84.5669C222.327 85.3345 221.05 86.8401 219.657 89.3824C218.655 91.2106 217.64 93.4797 216.396 96.2609C215.903 97.3635 215.374 98.5465 214.795 99.8145C214.784 99.8401 214.771 99.8652 214.757 99.8896C204.877 116.89 191.907 132.924 181.162 144.671C175.788 150.547 170.963 155.358 167.349 158.69C165.543 160.355 164.031 161.658 162.898 162.542C162.333 162.983 161.847 163.332 161.457 163.571C161.264 163.689 161.074 163.793 160.897 163.868C160.758 163.926 160.484 164.03 160.181 163.992C160.114 163.983 160.049 163.967 159.986 163.943C152.989 161.306 145.072 156.203 136.987 149.73C128.892 143.25 120.586 135.362 112.81 127.112C99.6181 113.114 87.8941 98.0115 81.3029 86.8965C76.4326 86.394 70.4043 85.9535 62.8887 85.6795C52.3687 85.3898 25.2483 85.8353 1.00299 89.9309C0.534805 90.0099 0.0911833 89.6943 0.0121346 89.2259C-0.0669143 88.7575 0.248544 88.3137 0.71673 88.2346C25.1107 84.1139 52.3538 83.6682 62.9398 83.9599L62.9474 83.9601C69.8782 84.2128 75.558 84.6067 80.241 85.0613C79.5121 83.768 78.8619 82.5376 78.297 81.3795C72.7994 70.1085 69.8346 53.6129 73.1801 38.7126C76.5391 23.7523 86.2739 10.3863 106.109 5.61867C124.37 1.22734 136.967 5.11962 145.015 10.1805C149.027 12.7037 151.889 15.5052 153.751 17.6807C154.683 18.7687 155.365 19.7015 155.817 20.3667C155.82 20.3715 155.824 20.3763 155.827 20.3811C155.859 20.3417 155.892 20.3012 155.926 20.2597C156.489 19.5739 157.319 18.603 158.394 17.4538C160.542 15.1569 163.677 12.1401 167.623 9.26249ZM154.999 22.2859L154.999 22.2854L154.994 22.2762C154.989 22.2672 154.98 22.2526 154.969 22.2326C154.945 22.1926 154.909 22.1309 154.859 22.0492C154.759 21.8859 154.605 21.6429 154.395 21.3338C153.975 20.7156 153.331 19.8343 152.445 18.7997C150.674 16.7297 147.939 14.0514 144.1 11.637C136.444 6.82259 124.321 3.00821 106.511 7.29133C87.402 11.8844 78.0942 24.6749 74.8578 39.0896C71.6079 53.5642 74.4949 69.6619 79.8423 80.625C80.5442 82.0642 81.3831 83.6209 82.3456 85.2766C88.2345 85.9105 92.3932 86.6317 95.4397 87.2448C96.7124 87.5009 97.766 87.7323 98.6633 87.9294C99.7935 88.1776 100.676 88.3714 101.436 88.4916C102.739 88.6977 103.455 88.6422 104.177 88.3038C104.519 88.1434 105.066 87.7354 105.814 87.0447C106.542 86.3725 107.4 85.4922 108.355 84.4587C110.077 82.5955 112.081 80.2743 114.171 77.8528C114.4 77.5875 114.63 77.321 114.861 77.0537C117.193 74.3549 119.601 71.5848 121.792 69.2665C123.963 66.9698 125.99 65.0399 127.552 64.0865L127.553 64.086C128.231 63.6735 128.953 63.7462 129.573 64.1035C130.137 64.4291 130.64 64.9951 131.091 65.6547C132.006 66.9897 132.935 69.0426 133.856 71.5194C135.708 76.4963 137.617 83.4382 139.337 90.4564C141.059 97.4826 142.599 104.616 143.707 109.992C144.262 112.68 144.709 114.929 145.017 116.507C145.171 117.296 145.291 117.917 145.372 118.341C145.412 118.553 145.443 118.716 145.464 118.826L145.493 118.978L145.494 118.982C145.496 118.994 145.501 119.014 145.507 119.04C145.514 119.068 145.523 119.103 145.533 119.145C145.543 119.181 145.553 119.222 145.565 119.267C145.618 119.464 145.698 119.743 145.808 120.063C146.029 120.715 146.354 121.492 146.778 122.109C147.218 122.748 147.649 123.054 148.042 123.097C148.406 123.136 149.067 122.98 150.06 121.866C150.24 121.665 150.473 121.284 150.746 120.681C151.011 120.092 151.291 119.344 151.581 118.453C152.162 116.671 152.769 114.369 153.388 111.727C154.625 106.444 155.897 99.8678 157.099 93.5011C157.307 92.3984 157.513 91.3018 157.716 90.2193C158.685 85.0632 159.593 80.229 160.377 76.5917C160.85 74.3974 161.286 72.6028 161.671 71.4278C161.856 70.8615 162.057 70.3505 162.285 70.0142C162.38 69.8733 162.597 69.58 162.972 69.4698C163.196 69.404 163.44 69.4153 163.665 69.516C163.871 69.6081 164.008 69.7507 164.093 69.8632C164.419 70.2937 164.705 70.9528 164.962 71.6726C165.229 72.419 165.498 73.3255 165.766 74.3158C166.201 75.9241 166.644 77.798 167.078 79.6329C167.178 80.0556 167.277 80.4763 167.376 80.8912C167.908 83.1266 168.417 85.1798 168.882 86.5619C168.986 86.8719 169.082 87.1306 169.17 87.3406C169.401 86.9455 169.674 86.4265 169.99 85.8029C170.113 85.5598 170.241 85.3046 170.373 85.0412C170.811 84.1685 171.293 83.2053 171.798 82.2935C172.451 81.1131 173.178 79.9458 173.952 79.1146C174.681 78.3307 175.711 77.5719 176.911 77.8988L176.911 77.899C177.177 77.9717 177.487 78.1157 177.796 78.2733C178.119 78.4385 178.502 78.6513 178.932 78.8945C179.129 79.006 179.337 79.1246 179.556 79.2495C180.302 79.6746 181.175 80.1723 182.173 80.7097C184.75 82.0974 188.116 83.726 192.008 84.9123C199.78 87.2815 209.603 87.8785 219.422 81.2816C223.58 78.4892 227.414 72.7039 230.05 65.3303C232.676 57.9837 234.069 49.181 233.445 40.4899C232.822 31.7994 230.187 23.2653 224.804 16.4013C219.433 9.55131 211.279 4.30386 199.494 2.24305C187.059 0.0666992 176.322 5.04701 168.636 10.6527C164.798 13.4513 161.744 16.39 159.649 18.6293C158.602 19.7483 157.797 20.6908 157.255 21.3513C156.984 21.6815 156.779 21.941 156.643 22.1167C156.575 22.2046 156.524 22.2714 156.49 22.3157C156.474 22.3378 156.461 22.3542 156.453 22.3648L156.445 22.3763L156.443 22.3787C156.269 22.6143 155.988 22.7455 155.696 22.7267C155.404 22.7079 155.142 22.5416 154.999 22.2859C154.999 22.286 154.999 22.2858 154.999 22.2859ZM160.19 162.296C160.188 162.297 160.194 162.295 160.205 162.292C160.196 162.295 160.191 162.296 160.19 162.296ZM144.651 119.152L143.806 119.31C143.807 119.318 143.809 119.327 143.811 119.335L144.651 119.152ZM163.727 70.9546C163.727 70.9557 163.722 70.9618 163.714 70.9712C163.723 70.9583 163.727 70.9535 163.727 70.9546Z" fill="#C2DF0A"/>
</svg>
