<svg width="16" height="16" viewBox="0 0 16 16" fill="none" xmlns="http://www.w3.org/2000/svg">
<path d="M8 0C12.4183 0 16 3.58167 16 8C16 12.4183 12.4183 16 8 16C3.58173 16 0 12.4183 0 8C0 3.58167 3.58173 0 8 0ZM7.97493 4.2406C7.97053 4.2406 5.84427 4.31013 4.41447 4.41353C4.21473 4.43727 3.79767 4.5088 3.40893 4.9158C3.10267 5.22587 3.0396 5.92993 3.0396 5.92993C3.0396 5.92993 3.0108 6.7568 3.0108 7.58353L3.01101 8.48266C3.01366 9.26621 3.04013 10.0123 3.04013 10.0123C3.04013 10.0123 3.067 10.7164 3.37327 11.0265C3.762 11.4335 4.27353 11.4206 4.50087 11.4632C5.26553 11.5366 7.64137 11.5625 7.94475 11.5656L8.07194 11.5655C8.50317 11.5635 10.3063 11.5498 11.5573 11.4593C11.7571 11.4355 12.2004 11.4335 12.5889 11.0265C12.8952 10.7164 13.0108 10.0123 13.0108 10.0123C13.0108 10.0123 13.1441 9.1856 13.1441 8.35873V7.58353C13.1441 6.7568 13.0108 5.91253 13.0108 5.91253C13.0108 5.91253 12.8795 5.19107 12.5731 4.88107C12.1847 4.47407 11.7492 4.43727 11.5495 4.41353C10.1197 4.31013 7.97493 4.2406 7.97493 4.2406ZM7.0108 6.42734L9.77133 7.86761L7.0108 9.29807V6.42734Z" fill="#B8BCD5"/>
</svg>
